%TF.GenerationSoftware,KiCad,Pcbnew,8.0.7*%
%TF.CreationDate,2025-03-15T22:48:54-07:00*%
%TF.ProjectId,launchController_noTemp,6c61756e-6368-4436-9f6e-74726f6c6c65,rev?*%
%TF.SameCoordinates,Original*%
%TF.FileFunction,Soldermask,Bot*%
%TF.FilePolarity,Negative*%
%FSLAX46Y46*%
G04 Gerber Fmt 4.6, Leading zero omitted, Abs format (unit mm)*
G04 Created by KiCad (PCBNEW 8.0.7) date 2025-03-15 22:48:54*
%MOMM*%
%LPD*%
G01*
G04 APERTURE LIST*
G04 Aperture macros list*
%AMRoundRect*
0 Rectangle with rounded corners*
0 $1 Rounding radius*
0 $2 $3 $4 $5 $6 $7 $8 $9 X,Y pos of 4 corners*
0 Add a 4 corners polygon primitive as box body*
4,1,4,$2,$3,$4,$5,$6,$7,$8,$9,$2,$3,0*
0 Add four circle primitives for the rounded corners*
1,1,$1+$1,$2,$3*
1,1,$1+$1,$4,$5*
1,1,$1+$1,$6,$7*
1,1,$1+$1,$8,$9*
0 Add four rect primitives between the rounded corners*
20,1,$1+$1,$2,$3,$4,$5,0*
20,1,$1+$1,$4,$5,$6,$7,0*
20,1,$1+$1,$6,$7,$8,$9,0*
20,1,$1+$1,$8,$9,$2,$3,0*%
G04 Aperture macros list end*
%ADD10R,1.700000X1.700000*%
%ADD11O,1.700000X1.700000*%
%ADD12C,3.300000*%
%ADD13C,5.500000*%
%ADD14C,1.600000*%
%ADD15O,1.600000X1.600000*%
%ADD16C,7.400000*%
%ADD17C,4.000000*%
%ADD18R,1.600000X1.600000*%
%ADD19RoundRect,0.102000X0.817500X0.817500X-0.817500X0.817500X-0.817500X-0.817500X0.817500X-0.817500X0*%
%ADD20C,1.839000*%
%ADD21C,1.879600*%
%ADD22C,3.301600*%
%ADD23C,2.750000*%
%ADD24R,1.750000X1.750000*%
%ADD25C,1.750000*%
G04 APERTURE END LIST*
D10*
%TO.C,J2*%
X143281753Y-182500000D03*
D11*
X140741753Y-182500000D03*
X138201753Y-182500000D03*
X135661753Y-182500000D03*
X133121753Y-182500000D03*
%TD*%
D10*
%TO.C,J8*%
X259692271Y-182500000D03*
D11*
X257152271Y-182500000D03*
X254612271Y-182500000D03*
X252072271Y-182500000D03*
X249532271Y-182500000D03*
%TD*%
D12*
%TO.C,POWER1*%
X107740000Y-96460000D03*
X107715000Y-129760000D03*
D13*
X109365000Y-106260000D03*
X109365000Y-113110000D03*
X109365000Y-119960000D03*
%TD*%
D14*
%TO.C,C15*%
X115540000Y-159610000D03*
D15*
X115540000Y-152110000D03*
%TD*%
D10*
%TO.C,J6*%
X220888765Y-182500000D03*
D11*
X218348765Y-182500000D03*
X215808765Y-182500000D03*
X213268765Y-182500000D03*
X210728765Y-182500000D03*
%TD*%
D16*
%TO.C,H1*%
X308990000Y-88910000D03*
%TD*%
D12*
%TO.C,RELAY_ARM1*%
X107740000Y-137260000D03*
X107715000Y-170560000D03*
D13*
X109365000Y-147060000D03*
X109365000Y-153910000D03*
X109365000Y-160760000D03*
%TD*%
D17*
%TO.C,J13*%
X297915000Y-92960000D03*
X264615000Y-92960000D03*
D18*
X272640000Y-94380000D03*
D14*
X274930000Y-94380000D03*
X277220000Y-94380000D03*
X279510000Y-94380000D03*
X281800000Y-94380000D03*
X284090000Y-94380000D03*
X286380000Y-94380000D03*
X288670000Y-94380000D03*
X290960000Y-94380000D03*
X271495000Y-92400000D03*
X273785000Y-92400000D03*
X276075000Y-92400000D03*
X278365000Y-92400000D03*
X280655000Y-92400000D03*
X282945000Y-92400000D03*
X285235000Y-92400000D03*
X287525000Y-92400000D03*
X289815000Y-92400000D03*
X272640000Y-90420000D03*
X274930000Y-90420000D03*
X277220000Y-90420000D03*
X279510000Y-90420000D03*
X281800000Y-90420000D03*
X284090000Y-90420000D03*
X286380000Y-90420000D03*
X288670000Y-90420000D03*
%TD*%
D10*
%TO.C,J5*%
X201487012Y-182500000D03*
D11*
X198947012Y-182500000D03*
X196407012Y-182500000D03*
X193867012Y-182500000D03*
X191327012Y-182500000D03*
%TD*%
D17*
%TO.C,J17*%
X166385000Y-91170331D03*
X119285000Y-91170331D03*
D18*
X126215000Y-92590331D03*
D14*
X128985000Y-92590331D03*
X131755000Y-92590331D03*
X134525000Y-92590331D03*
X137295000Y-92590331D03*
X140065000Y-92590331D03*
X142835000Y-92590331D03*
X145605000Y-92590331D03*
X148375000Y-92590331D03*
X151145000Y-92590331D03*
X153915000Y-92590331D03*
X156685000Y-92590331D03*
X159455000Y-92590331D03*
X127600000Y-89750331D03*
X130370000Y-89750331D03*
X133140000Y-89750331D03*
X135910000Y-89750331D03*
X138680000Y-89750331D03*
X141450000Y-89750331D03*
X144220000Y-89750331D03*
X146990000Y-89750331D03*
X149760000Y-89750331D03*
X152530000Y-89750331D03*
X155300000Y-89750331D03*
X158070000Y-89750331D03*
%TD*%
D19*
%TO.C,J12*%
X199110000Y-85920000D03*
D20*
X196570000Y-85920000D03*
X194030000Y-85920000D03*
X191490000Y-85920000D03*
X188950000Y-85920000D03*
X186410000Y-85920000D03*
X183870000Y-85920000D03*
X181330000Y-85920000D03*
X178790000Y-85920000D03*
X176250000Y-85920000D03*
%TD*%
D18*
%TO.C,C1*%
X116257621Y-101960000D03*
D14*
X118757621Y-101960000D03*
%TD*%
D21*
%TO.C,U2*%
X128693000Y-115247000D03*
X131233000Y-115247000D03*
X133773000Y-115247000D03*
X136313000Y-115247000D03*
X138853000Y-115247000D03*
X141393000Y-115247000D03*
X128693000Y-102547000D03*
X131233000Y-102547000D03*
X133773000Y-102547000D03*
X136313000Y-102547000D03*
X138853000Y-102547000D03*
X141393000Y-102547000D03*
D22*
X124883000Y-102547000D03*
X124883000Y-115247000D03*
X145203000Y-102547000D03*
X145203000Y-115247000D03*
%TD*%
D16*
%TO.C,H4*%
X102990000Y-182110000D03*
%TD*%
%TO.C,H3*%
X102990000Y-88910000D03*
%TD*%
D10*
%TO.C,J9*%
X279094024Y-182500000D03*
D11*
X276554024Y-182500000D03*
X274014024Y-182500000D03*
X271474024Y-182500000D03*
X268934024Y-182500000D03*
%TD*%
D17*
%TO.C,J16*%
X256325000Y-91180000D03*
X209225000Y-91180000D03*
D18*
X216155000Y-92600000D03*
D14*
X218925000Y-92600000D03*
X221695000Y-92600000D03*
X224465000Y-92600000D03*
X227235000Y-92600000D03*
X230005000Y-92600000D03*
X232775000Y-92600000D03*
X235545000Y-92600000D03*
X238315000Y-92600000D03*
X241085000Y-92600000D03*
X243855000Y-92600000D03*
X246625000Y-92600000D03*
X249395000Y-92600000D03*
X217540000Y-89760000D03*
X220310000Y-89760000D03*
X223080000Y-89760000D03*
X225850000Y-89760000D03*
X228620000Y-89760000D03*
X231390000Y-89760000D03*
X234160000Y-89760000D03*
X236930000Y-89760000D03*
X239700000Y-89760000D03*
X242470000Y-89760000D03*
X245240000Y-89760000D03*
X248010000Y-89760000D03*
%TD*%
D21*
%TO.C,U1*%
X155540000Y-115260000D03*
X158080000Y-115260000D03*
X160620000Y-115260000D03*
X163160000Y-115260000D03*
X165700000Y-115260000D03*
X168240000Y-115260000D03*
X155540000Y-102560000D03*
X158080000Y-102560000D03*
X160620000Y-102560000D03*
X163160000Y-102560000D03*
X165700000Y-102560000D03*
X168240000Y-102560000D03*
D22*
X151730000Y-102560000D03*
X151730000Y-115260000D03*
X172050000Y-102560000D03*
X172050000Y-115260000D03*
%TD*%
D10*
%TO.C,J1*%
X123880000Y-182500000D03*
D11*
X121340000Y-182500000D03*
X118800000Y-182500000D03*
X116260000Y-182500000D03*
X113720000Y-182500000D03*
%TD*%
D10*
%TO.C,J10*%
X298495777Y-182500000D03*
D11*
X295955777Y-182500000D03*
X293415777Y-182500000D03*
X290875777Y-182500000D03*
X288335777Y-182500000D03*
%TD*%
D16*
%TO.C,H2*%
X308990000Y-182110000D03*
%TD*%
D17*
%TO.C,J14*%
X306529669Y-151505000D03*
X306529669Y-104405000D03*
D18*
X305109669Y-111335000D03*
D14*
X305109669Y-114105000D03*
X305109669Y-116875000D03*
X305109669Y-119645000D03*
X305109669Y-122415000D03*
X305109669Y-125185000D03*
X305109669Y-127955000D03*
X305109669Y-130725000D03*
X305109669Y-133495000D03*
X305109669Y-136265000D03*
X305109669Y-139035000D03*
X305109669Y-141805000D03*
X305109669Y-144575000D03*
X307949669Y-112720000D03*
X307949669Y-115490000D03*
X307949669Y-118260000D03*
X307949669Y-121030000D03*
X307949669Y-123800000D03*
X307949669Y-126570000D03*
X307949669Y-129340000D03*
X307949669Y-132110000D03*
X307949669Y-134880000D03*
X307949669Y-137650000D03*
X307949669Y-140420000D03*
X307949669Y-143190000D03*
%TD*%
D10*
%TO.C,J4*%
X182085259Y-182500000D03*
D11*
X179545259Y-182500000D03*
X177005259Y-182500000D03*
X174465259Y-182500000D03*
X171925259Y-182500000D03*
%TD*%
D10*
%TO.C,J7*%
X240290518Y-182500000D03*
D11*
X237750518Y-182500000D03*
X235210518Y-182500000D03*
X232670518Y-182500000D03*
X230130518Y-182500000D03*
%TD*%
D23*
%TO.C,J11*%
X239140000Y-154260000D03*
X239140000Y-105260000D03*
X181140000Y-154260000D03*
X181140000Y-105260000D03*
D24*
X186010000Y-152990000D03*
D25*
X186010000Y-155530000D03*
X188550000Y-152990000D03*
X188550000Y-155530000D03*
X191090000Y-152990000D03*
X191090000Y-155530000D03*
X193630000Y-152990000D03*
X193630000Y-155530000D03*
X196170000Y-152990000D03*
X196170000Y-155530000D03*
X198710000Y-152990000D03*
X198710000Y-155530000D03*
X201250000Y-152990000D03*
X201250000Y-155530000D03*
X203790000Y-152990000D03*
X203790000Y-155530000D03*
X206330000Y-152990000D03*
X206330000Y-155530000D03*
X208870000Y-152990000D03*
X208870000Y-155530000D03*
X211410000Y-152990000D03*
X211410000Y-155530000D03*
X213950000Y-152990000D03*
X213950000Y-155530000D03*
X216490000Y-152990000D03*
X216490000Y-155530000D03*
X219030000Y-152990000D03*
X219030000Y-155530000D03*
X221570000Y-152990000D03*
X221570000Y-155530000D03*
X224110000Y-152990000D03*
X224110000Y-155530000D03*
X226650000Y-152990000D03*
X226650000Y-155530000D03*
X229190000Y-152990000D03*
X229190000Y-155530000D03*
X231730000Y-152990000D03*
X231730000Y-155530000D03*
X234270000Y-152990000D03*
X234270000Y-155530000D03*
%TD*%
D10*
%TO.C,J3*%
X162683506Y-182500000D03*
D11*
X160143506Y-182500000D03*
X157603506Y-182500000D03*
X155063506Y-182500000D03*
X152523506Y-182500000D03*
%TD*%
M02*
