%TF.GenerationSoftware,KiCad,Pcbnew,8.0.7*%
%TF.CreationDate,2025-03-15T22:48:54-07:00*%
%TF.ProjectId,launchController_noTemp,6c61756e-6368-4436-9f6e-74726f6c6c65,rev?*%
%TF.SameCoordinates,Original*%
%TF.FileFunction,Soldermask,Top*%
%TF.FilePolarity,Negative*%
%FSLAX46Y46*%
G04 Gerber Fmt 4.6, Leading zero omitted, Abs format (unit mm)*
G04 Created by KiCad (PCBNEW 8.0.7) date 2025-03-15 22:48:54*
%MOMM*%
%LPD*%
G01*
G04 APERTURE LIST*
G04 Aperture macros list*
%AMRoundRect*
0 Rectangle with rounded corners*
0 $1 Rounding radius*
0 $2 $3 $4 $5 $6 $7 $8 $9 X,Y pos of 4 corners*
0 Add a 4 corners polygon primitive as box body*
4,1,4,$2,$3,$4,$5,$6,$7,$8,$9,$2,$3,0*
0 Add four circle primitives for the rounded corners*
1,1,$1+$1,$2,$3*
1,1,$1+$1,$4,$5*
1,1,$1+$1,$6,$7*
1,1,$1+$1,$8,$9*
0 Add four rect primitives between the rounded corners*
20,1,$1+$1,$2,$3,$4,$5,0*
20,1,$1+$1,$4,$5,$6,$7,0*
20,1,$1+$1,$6,$7,$8,$9,0*
20,1,$1+$1,$8,$9,$2,$3,0*%
G04 Aperture macros list end*
%ADD10RoundRect,0.150000X0.150000X-0.512500X0.150000X0.512500X-0.150000X0.512500X-0.150000X-0.512500X0*%
%ADD11RoundRect,0.250000X-0.450000X0.350000X-0.450000X-0.350000X0.450000X-0.350000X0.450000X0.350000X0*%
%ADD12RoundRect,0.155000X-0.212500X-0.155000X0.212500X-0.155000X0.212500X0.155000X-0.212500X0.155000X0*%
%ADD13RoundRect,0.250001X0.462499X0.624999X-0.462499X0.624999X-0.462499X-0.624999X0.462499X-0.624999X0*%
%ADD14R,1.700000X1.700000*%
%ADD15O,1.700000X1.700000*%
%ADD16RoundRect,0.250000X-0.350000X-0.450000X0.350000X-0.450000X0.350000X0.450000X-0.350000X0.450000X0*%
%ADD17RoundRect,0.250000X-0.400000X-1.075000X0.400000X-1.075000X0.400000X1.075000X-0.400000X1.075000X0*%
%ADD18RoundRect,0.062500X-0.117500X-0.062500X0.117500X-0.062500X0.117500X0.062500X-0.117500X0.062500X0*%
%ADD19RoundRect,0.237500X-0.287500X-0.237500X0.287500X-0.237500X0.287500X0.237500X-0.287500X0.237500X0*%
%ADD20C,3.300000*%
%ADD21C,5.500000*%
%ADD22RoundRect,0.150000X0.150000X0.200000X-0.150000X0.200000X-0.150000X-0.200000X0.150000X-0.200000X0*%
%ADD23C,1.600000*%
%ADD24O,1.600000X1.600000*%
%ADD25RoundRect,0.250000X1.075000X-0.400000X1.075000X0.400000X-1.075000X0.400000X-1.075000X-0.400000X0*%
%ADD26RoundRect,0.150000X0.512500X0.150000X-0.512500X0.150000X-0.512500X-0.150000X0.512500X-0.150000X0*%
%ADD27RoundRect,0.250001X-0.624999X0.462499X-0.624999X-0.462499X0.624999X-0.462499X0.624999X0.462499X0*%
%ADD28RoundRect,0.155000X0.155000X-0.212500X0.155000X0.212500X-0.155000X0.212500X-0.155000X-0.212500X0*%
%ADD29RoundRect,0.150000X-0.150000X-0.200000X0.150000X-0.200000X0.150000X0.200000X-0.150000X0.200000X0*%
%ADD30C,7.400000*%
%ADD31RoundRect,0.155000X-0.155000X0.212500X-0.155000X-0.212500X0.155000X-0.212500X0.155000X0.212500X0*%
%ADD32C,4.000000*%
%ADD33R,1.600000X1.600000*%
%ADD34RoundRect,0.102000X0.817500X0.817500X-0.817500X0.817500X-0.817500X-0.817500X0.817500X-0.817500X0*%
%ADD35C,1.839000*%
%ADD36RoundRect,0.250000X-0.250000X-0.250000X0.250000X-0.250000X0.250000X0.250000X-0.250000X0.250000X0*%
%ADD37C,1.879600*%
%ADD38C,3.301600*%
%ADD39RoundRect,0.112500X-0.612500X-0.112500X0.612500X-0.112500X0.612500X0.112500X-0.612500X0.112500X0*%
%ADD40RoundRect,0.237500X0.287500X0.237500X-0.287500X0.237500X-0.287500X-0.237500X0.287500X-0.237500X0*%
%ADD41C,2.750000*%
%ADD42R,1.750000X1.750000*%
%ADD43C,1.750000*%
G04 APERTURE END LIST*
D10*
%TO.C,Q9*%
X274057512Y-174787500D03*
X275957512Y-174787500D03*
X275007512Y-172512500D03*
%TD*%
D11*
%TO.C,R11*%
X282061964Y-175350000D03*
X282061964Y-177350000D03*
%TD*%
D12*
%TO.C,C13*%
X155405000Y-119160000D03*
X156540000Y-119160000D03*
%TD*%
D13*
%TO.C,D1*%
X196617500Y-95400000D03*
X193642500Y-95400000D03*
%TD*%
D14*
%TO.C,J2*%
X143281753Y-182500000D03*
D15*
X140741753Y-182500000D03*
X138201753Y-182500000D03*
X135661753Y-182500000D03*
X133121753Y-182500000D03*
%TD*%
D16*
%TO.C,R1*%
X189080000Y-95270000D03*
X191080000Y-95270000D03*
%TD*%
D10*
%TO.C,Q3*%
X157776006Y-174787500D03*
X159676006Y-174787500D03*
X158726006Y-172512500D03*
%TD*%
D17*
%TO.C,R15*%
X149630458Y-176550000D03*
X152730458Y-176550000D03*
%TD*%
D18*
%TO.C,D25*%
X158526006Y-177850000D03*
X157686006Y-177850000D03*
%TD*%
D14*
%TO.C,J8*%
X259692271Y-182500000D03*
D15*
X257152271Y-182500000D03*
X254612271Y-182500000D03*
X252072271Y-182500000D03*
X249532271Y-182500000D03*
%TD*%
D19*
%TO.C,D12*%
X297544509Y-174950000D03*
X299294509Y-174950000D03*
%TD*%
D20*
%TO.C,POWER1*%
X107740000Y-96460000D03*
X107715000Y-129760000D03*
D21*
X109365000Y-106260000D03*
X109365000Y-113110000D03*
X109365000Y-119960000D03*
%TD*%
D22*
%TO.C,D37*%
X141627858Y-96160000D03*
X143027858Y-96160000D03*
%TD*%
D23*
%TO.C,C15*%
X115540000Y-159610000D03*
D24*
X115540000Y-152110000D03*
%TD*%
D25*
%TO.C,R29*%
X227339998Y-99760000D03*
X227339998Y-96660000D03*
%TD*%
D26*
%TO.C,J15*%
X117777500Y-109010000D03*
X117777500Y-107110000D03*
X115502500Y-108060000D03*
%TD*%
D19*
%TO.C,D6*%
X181263003Y-174950000D03*
X183013003Y-174950000D03*
%TD*%
D27*
%TO.C,D14*%
X135914009Y-172162500D03*
X135914009Y-175137500D03*
%TD*%
D18*
%TO.C,D27*%
X197350000Y-177850000D03*
X196510000Y-177850000D03*
%TD*%
D25*
%TO.C,R28*%
X232506664Y-99760000D03*
X232506664Y-96660000D03*
%TD*%
D18*
%TO.C,D32*%
X294219509Y-177850000D03*
X293379509Y-177850000D03*
%TD*%
D17*
%TO.C,R18*%
X207866449Y-176550000D03*
X210966449Y-176550000D03*
%TD*%
D28*
%TO.C,C14*%
X184040000Y-155660000D03*
X184040000Y-154525000D03*
%TD*%
D29*
%TO.C,D34*%
X156054284Y-96160000D03*
X154654284Y-96160000D03*
%TD*%
D12*
%TO.C,C9*%
X257360515Y-177850000D03*
X258495515Y-177850000D03*
%TD*%
D17*
%TO.C,R22*%
X285323961Y-176550000D03*
X288423961Y-176550000D03*
%TD*%
D11*
%TO.C,R3*%
X126956464Y-175350000D03*
X126956464Y-177350000D03*
%TD*%
D27*
%TO.C,D21*%
X271607512Y-172162500D03*
X271607512Y-175137500D03*
%TD*%
D12*
%TO.C,C8*%
X238138994Y-177850000D03*
X239273994Y-177850000D03*
%TD*%
D14*
%TO.C,J6*%
X220888765Y-182500000D03*
D15*
X218348765Y-182500000D03*
X215808765Y-182500000D03*
X213268765Y-182500000D03*
X210728765Y-182500000D03*
%TD*%
D17*
%TO.C,R17*%
X188454452Y-176550000D03*
X191554452Y-176550000D03*
%TD*%
D19*
%TO.C,D11*%
X278132512Y-174950000D03*
X279882512Y-174950000D03*
%TD*%
D29*
%TO.C,D40*%
X129911432Y-96160000D03*
X128511432Y-96160000D03*
%TD*%
D30*
%TO.C,H1*%
X308990000Y-88910000D03*
%TD*%
D17*
%TO.C,R19*%
X227278446Y-176550000D03*
X230378446Y-176550000D03*
%TD*%
D20*
%TO.C,RELAY_ARM1*%
X107740000Y-137260000D03*
X107715000Y-170560000D03*
D21*
X109365000Y-147060000D03*
X109365000Y-153910000D03*
X109365000Y-160760000D03*
%TD*%
D31*
%TO.C,C17*%
X185928000Y-142180500D03*
X185928000Y-143315500D03*
%TD*%
D10*
%TO.C,Q4*%
X177188003Y-174787500D03*
X179088003Y-174787500D03*
X178138003Y-172512500D03*
%TD*%
%TO.C,Q8*%
X254645515Y-174787500D03*
X256545515Y-174787500D03*
X255595515Y-172512500D03*
%TD*%
D27*
%TO.C,D20*%
X252195515Y-172162500D03*
X252195515Y-175137500D03*
%TD*%
D18*
%TO.C,D29*%
X236173994Y-177850000D03*
X235333994Y-177850000D03*
%TD*%
D10*
%TO.C,Q6*%
X216011997Y-174787500D03*
X217911997Y-174787500D03*
X216961997Y-172512500D03*
%TD*%
D32*
%TO.C,J13*%
X297915000Y-92960000D03*
X264615000Y-92960000D03*
D33*
X272640000Y-94380000D03*
D23*
X274930000Y-94380000D03*
X277220000Y-94380000D03*
X279510000Y-94380000D03*
X281800000Y-94380000D03*
X284090000Y-94380000D03*
X286380000Y-94380000D03*
X288670000Y-94380000D03*
X290960000Y-94380000D03*
X271495000Y-92400000D03*
X273785000Y-92400000D03*
X276075000Y-92400000D03*
X278365000Y-92400000D03*
X280655000Y-92400000D03*
X282945000Y-92400000D03*
X285235000Y-92400000D03*
X287525000Y-92400000D03*
X289815000Y-92400000D03*
X272640000Y-90420000D03*
X274930000Y-90420000D03*
X277220000Y-90420000D03*
X279510000Y-90420000D03*
X281800000Y-90420000D03*
X284090000Y-90420000D03*
X286380000Y-90420000D03*
X288670000Y-90420000D03*
%TD*%
D31*
%TO.C,C16*%
X193548000Y-142180500D03*
X193548000Y-143315500D03*
%TD*%
D18*
%TO.C,D23*%
X119702012Y-177850000D03*
X118862012Y-177850000D03*
%TD*%
D14*
%TO.C,J5*%
X201487012Y-182500000D03*
D15*
X198947012Y-182500000D03*
X196407012Y-182500000D03*
X193867012Y-182500000D03*
X191327012Y-182500000D03*
%TD*%
D12*
%TO.C,C10*%
X276772512Y-177850000D03*
X277907512Y-177850000D03*
%TD*%
D10*
%TO.C,Q1*%
X118952012Y-174787500D03*
X120852012Y-174787500D03*
X119902012Y-172512500D03*
%TD*%
D32*
%TO.C,J17*%
X166385000Y-91170331D03*
X119285000Y-91170331D03*
D33*
X126215000Y-92590331D03*
D23*
X128985000Y-92590331D03*
X131755000Y-92590331D03*
X134525000Y-92590331D03*
X137295000Y-92590331D03*
X140065000Y-92590331D03*
X142835000Y-92590331D03*
X145605000Y-92590331D03*
X148375000Y-92590331D03*
X151145000Y-92590331D03*
X153915000Y-92590331D03*
X156685000Y-92590331D03*
X159455000Y-92590331D03*
X127600000Y-89750331D03*
X130370000Y-89750331D03*
X133140000Y-89750331D03*
X135910000Y-89750331D03*
X138680000Y-89750331D03*
X141450000Y-89750331D03*
X144220000Y-89750331D03*
X146990000Y-89750331D03*
X149760000Y-89750331D03*
X152530000Y-89750331D03*
X155300000Y-89750331D03*
X158070000Y-89750331D03*
%TD*%
D29*
%TO.C,D36*%
X147340000Y-96160000D03*
X145940000Y-96160000D03*
%TD*%
D17*
%TO.C,R13*%
X110806464Y-176550000D03*
X113906464Y-176550000D03*
%TD*%
D34*
%TO.C,J12*%
X199110000Y-85920000D03*
D35*
X196570000Y-85920000D03*
X194030000Y-85920000D03*
X191490000Y-85920000D03*
X188950000Y-85920000D03*
X186410000Y-85920000D03*
X183870000Y-85920000D03*
X181330000Y-85920000D03*
X178790000Y-85920000D03*
X176250000Y-85920000D03*
%TD*%
D36*
%TO.C,D41*%
X178730000Y-91030000D03*
X181230000Y-91030000D03*
%TD*%
D11*
%TO.C,R9*%
X243428446Y-175350000D03*
X243428446Y-177350000D03*
%TD*%
D33*
%TO.C,C1*%
X116257621Y-101960000D03*
D23*
X118757621Y-101960000D03*
%TD*%
D27*
%TO.C,D15*%
X155326006Y-172162500D03*
X155326006Y-175137500D03*
%TD*%
D17*
%TO.C,R2*%
X179610000Y-94690000D03*
X182710000Y-94690000D03*
%TD*%
D37*
%TO.C,U2*%
X128693000Y-115247000D03*
X131233000Y-115247000D03*
X133773000Y-115247000D03*
X136313000Y-115247000D03*
X138853000Y-115247000D03*
X141393000Y-115247000D03*
X128693000Y-102547000D03*
X131233000Y-102547000D03*
X133773000Y-102547000D03*
X136313000Y-102547000D03*
X138853000Y-102547000D03*
X141393000Y-102547000D03*
D38*
X124883000Y-102547000D03*
X124883000Y-115247000D03*
X145203000Y-102547000D03*
X145203000Y-115247000D03*
%TD*%
D27*
%TO.C,D19*%
X232973994Y-172162500D03*
X232973994Y-175137500D03*
%TD*%
D25*
%TO.C,R26*%
X242839996Y-99760000D03*
X242839996Y-96660000D03*
%TD*%
D11*
%TO.C,R7*%
X204604452Y-175350000D03*
X204604452Y-177350000D03*
%TD*%
D19*
%TO.C,D3*%
X123027012Y-174950000D03*
X124777012Y-174950000D03*
%TD*%
D30*
%TO.C,H4*%
X102990000Y-182110000D03*
%TD*%
%TO.C,H3*%
X102990000Y-88910000D03*
%TD*%
D18*
%TO.C,D24*%
X139114009Y-177850000D03*
X138274009Y-177850000D03*
%TD*%
D14*
%TO.C,J9*%
X279094024Y-182500000D03*
D15*
X276554024Y-182500000D03*
X274014024Y-182500000D03*
X271474024Y-182500000D03*
X268934024Y-182500000D03*
%TD*%
D32*
%TO.C,J16*%
X256325000Y-91180000D03*
X209225000Y-91180000D03*
D33*
X216155000Y-92600000D03*
D23*
X218925000Y-92600000D03*
X221695000Y-92600000D03*
X224465000Y-92600000D03*
X227235000Y-92600000D03*
X230005000Y-92600000D03*
X232775000Y-92600000D03*
X235545000Y-92600000D03*
X238315000Y-92600000D03*
X241085000Y-92600000D03*
X243855000Y-92600000D03*
X246625000Y-92600000D03*
X249395000Y-92600000D03*
X217540000Y-89760000D03*
X220310000Y-89760000D03*
X223080000Y-89760000D03*
X225850000Y-89760000D03*
X228620000Y-89760000D03*
X231390000Y-89760000D03*
X234160000Y-89760000D03*
X236930000Y-89760000D03*
X239700000Y-89760000D03*
X242470000Y-89760000D03*
X245240000Y-89760000D03*
X248010000Y-89760000D03*
%TD*%
D22*
%TO.C,D33*%
X158940000Y-96160000D03*
X160340000Y-96160000D03*
%TD*%
D12*
%TO.C,C6*%
X199315000Y-177850000D03*
X200450000Y-177850000D03*
%TD*%
D19*
%TO.C,D7*%
X200675000Y-174950000D03*
X202425000Y-174950000D03*
%TD*%
D17*
%TO.C,R20*%
X246499967Y-176550000D03*
X249599967Y-176550000D03*
%TD*%
D37*
%TO.C,U1*%
X155540000Y-115260000D03*
X158080000Y-115260000D03*
X160620000Y-115260000D03*
X163160000Y-115260000D03*
X165700000Y-115260000D03*
X168240000Y-115260000D03*
X155540000Y-102560000D03*
X158080000Y-102560000D03*
X160620000Y-102560000D03*
X163160000Y-102560000D03*
X165700000Y-102560000D03*
X168240000Y-102560000D03*
D38*
X151730000Y-102560000D03*
X151730000Y-115260000D03*
X172050000Y-102560000D03*
X172050000Y-115260000D03*
%TD*%
D17*
%TO.C,R14*%
X130218461Y-176550000D03*
X133318461Y-176550000D03*
%TD*%
D19*
%TO.C,D9*%
X239498994Y-174950000D03*
X241248994Y-174950000D03*
%TD*%
D14*
%TO.C,J1*%
X123880000Y-182500000D03*
D15*
X121340000Y-182500000D03*
X118800000Y-182500000D03*
X116260000Y-182500000D03*
X113720000Y-182500000D03*
%TD*%
D14*
%TO.C,J10*%
X298495777Y-182500000D03*
D15*
X295955777Y-182500000D03*
X293415777Y-182500000D03*
X290875777Y-182500000D03*
X288335777Y-182500000D03*
%TD*%
D19*
%TO.C,D10*%
X258720515Y-174950000D03*
X260470515Y-174950000D03*
%TD*%
D10*
%TO.C,Q7*%
X235423994Y-174787500D03*
X237323994Y-174787500D03*
X236373994Y-172512500D03*
%TD*%
D19*
%TO.C,D4*%
X142439009Y-174950000D03*
X144189009Y-174950000D03*
%TD*%
D25*
%TO.C,R23*%
X258340000Y-99760000D03*
X258340000Y-96660000D03*
%TD*%
%TO.C,R30*%
X222173332Y-99760000D03*
X222173332Y-96660000D03*
%TD*%
%TO.C,R31*%
X217006666Y-99760000D03*
X217006666Y-96660000D03*
%TD*%
D12*
%TO.C,C2*%
X121667012Y-177850000D03*
X122802012Y-177850000D03*
%TD*%
D18*
%TO.C,D28*%
X216761997Y-177850000D03*
X215921997Y-177850000D03*
%TD*%
D39*
%TO.C,U3*%
X187624000Y-141306000D03*
X187624000Y-141956000D03*
X187624000Y-142606000D03*
X187624000Y-143256000D03*
X192024000Y-143256000D03*
X192024000Y-142606000D03*
X192024000Y-141956000D03*
X192024000Y-141306000D03*
%TD*%
D12*
%TO.C,C3*%
X141079009Y-177850000D03*
X142214009Y-177850000D03*
%TD*%
D27*
%TO.C,D13*%
X116502012Y-172162500D03*
X116502012Y-175137500D03*
%TD*%
%TO.C,D18*%
X213561997Y-172162500D03*
X213561997Y-175137500D03*
%TD*%
%TO.C,D22*%
X291019509Y-172162500D03*
X291019509Y-175137500D03*
%TD*%
%TO.C,D17*%
X194150000Y-172162500D03*
X194150000Y-175137500D03*
%TD*%
D12*
%TO.C,C4*%
X160491006Y-177850000D03*
X161626006Y-177850000D03*
%TD*%
D30*
%TO.C,H2*%
X308990000Y-182110000D03*
%TD*%
D17*
%TO.C,R21*%
X265911964Y-176550000D03*
X269011964Y-176550000D03*
%TD*%
D32*
%TO.C,J14*%
X306529669Y-151505000D03*
X306529669Y-104405000D03*
D33*
X305109669Y-111335000D03*
D23*
X305109669Y-114105000D03*
X305109669Y-116875000D03*
X305109669Y-119645000D03*
X305109669Y-122415000D03*
X305109669Y-125185000D03*
X305109669Y-127955000D03*
X305109669Y-130725000D03*
X305109669Y-133495000D03*
X305109669Y-136265000D03*
X305109669Y-139035000D03*
X305109669Y-141805000D03*
X305109669Y-144575000D03*
X307949669Y-112720000D03*
X307949669Y-115490000D03*
X307949669Y-118260000D03*
X307949669Y-121030000D03*
X307949669Y-123800000D03*
X307949669Y-126570000D03*
X307949669Y-129340000D03*
X307949669Y-132110000D03*
X307949669Y-134880000D03*
X307949669Y-137650000D03*
X307949669Y-140420000D03*
X307949669Y-143190000D03*
%TD*%
D29*
%TO.C,D38*%
X138625716Y-96160000D03*
X137225716Y-96160000D03*
%TD*%
D22*
%TO.C,D39*%
X132913574Y-96160000D03*
X134313574Y-96160000D03*
%TD*%
D25*
%TO.C,R32*%
X211840000Y-99760000D03*
X211840000Y-96660000D03*
%TD*%
D11*
%TO.C,R8*%
X224016449Y-175350000D03*
X224016449Y-177350000D03*
%TD*%
D18*
%TO.C,D31*%
X274807512Y-177850000D03*
X273967512Y-177850000D03*
%TD*%
D11*
%TO.C,R4*%
X146368461Y-175350000D03*
X146368461Y-177350000D03*
%TD*%
D12*
%TO.C,C7*%
X218726997Y-177850000D03*
X219861997Y-177850000D03*
%TD*%
D19*
%TO.C,D5*%
X161851006Y-174950000D03*
X163601006Y-174950000D03*
%TD*%
D11*
%TO.C,R10*%
X262649967Y-175350000D03*
X262649967Y-177350000D03*
%TD*%
D27*
%TO.C,D16*%
X174738003Y-172162500D03*
X174738003Y-175137500D03*
%TD*%
D18*
%TO.C,D30*%
X255395515Y-177850000D03*
X254555515Y-177850000D03*
%TD*%
D12*
%TO.C,C12*%
X128605000Y-119160000D03*
X129740000Y-119160000D03*
%TD*%
D18*
%TO.C,D26*%
X177938003Y-177850000D03*
X177098003Y-177850000D03*
%TD*%
D14*
%TO.C,J4*%
X182085259Y-182500000D03*
D15*
X179545259Y-182500000D03*
X177005259Y-182500000D03*
X174465259Y-182500000D03*
X171925259Y-182500000D03*
%TD*%
D12*
%TO.C,C11*%
X296184509Y-177850000D03*
X297319509Y-177850000D03*
%TD*%
D40*
%TO.C,D2*%
X186780000Y-95450000D03*
X185030000Y-95450000D03*
%TD*%
D22*
%TO.C,D35*%
X150342142Y-96160000D03*
X151742142Y-96160000D03*
%TD*%
D12*
%TO.C,C5*%
X179903003Y-177850000D03*
X181038003Y-177850000D03*
%TD*%
D14*
%TO.C,J7*%
X240290518Y-182500000D03*
D15*
X237750518Y-182500000D03*
X235210518Y-182500000D03*
X232670518Y-182500000D03*
X230130518Y-182500000D03*
%TD*%
D11*
%TO.C,R6*%
X185192455Y-175350000D03*
X185192455Y-177350000D03*
%TD*%
D10*
%TO.C,Q5*%
X196600000Y-174787500D03*
X198500000Y-174787500D03*
X197550000Y-172512500D03*
%TD*%
%TO.C,Q2*%
X138364009Y-174787500D03*
X140264009Y-174787500D03*
X139314009Y-172512500D03*
%TD*%
D41*
%TO.C,J11*%
X239140000Y-154260000D03*
X239140000Y-105260000D03*
X181140000Y-154260000D03*
X181140000Y-105260000D03*
D42*
X186010000Y-152990000D03*
D43*
X186010000Y-155530000D03*
X188550000Y-152990000D03*
X188550000Y-155530000D03*
X191090000Y-152990000D03*
X191090000Y-155530000D03*
X193630000Y-152990000D03*
X193630000Y-155530000D03*
X196170000Y-152990000D03*
X196170000Y-155530000D03*
X198710000Y-152990000D03*
X198710000Y-155530000D03*
X201250000Y-152990000D03*
X201250000Y-155530000D03*
X203790000Y-152990000D03*
X203790000Y-155530000D03*
X206330000Y-152990000D03*
X206330000Y-155530000D03*
X208870000Y-152990000D03*
X208870000Y-155530000D03*
X211410000Y-152990000D03*
X211410000Y-155530000D03*
X213950000Y-152990000D03*
X213950000Y-155530000D03*
X216490000Y-152990000D03*
X216490000Y-155530000D03*
X219030000Y-152990000D03*
X219030000Y-155530000D03*
X221570000Y-152990000D03*
X221570000Y-155530000D03*
X224110000Y-152990000D03*
X224110000Y-155530000D03*
X226650000Y-152990000D03*
X226650000Y-155530000D03*
X229190000Y-152990000D03*
X229190000Y-155530000D03*
X231730000Y-152990000D03*
X231730000Y-155530000D03*
X234270000Y-152990000D03*
X234270000Y-155530000D03*
%TD*%
D19*
%TO.C,D8*%
X220086997Y-174950000D03*
X221836997Y-174950000D03*
%TD*%
D11*
%TO.C,R12*%
X301473961Y-175350000D03*
X301473961Y-177350000D03*
%TD*%
D25*
%TO.C,R25*%
X248006662Y-99760000D03*
X248006662Y-96660000D03*
%TD*%
D14*
%TO.C,J3*%
X162683506Y-182500000D03*
D15*
X160143506Y-182500000D03*
X157603506Y-182500000D03*
X155063506Y-182500000D03*
X152523506Y-182500000D03*
%TD*%
D25*
%TO.C,R24*%
X253173328Y-99760000D03*
X253173328Y-96660000D03*
%TD*%
D11*
%TO.C,R5*%
X165780458Y-175350000D03*
X165780458Y-177350000D03*
%TD*%
D25*
%TO.C,R27*%
X237673330Y-99760000D03*
X237673330Y-96660000D03*
%TD*%
D17*
%TO.C,R16*%
X169042455Y-176550000D03*
X172142455Y-176550000D03*
%TD*%
D26*
%TO.C,J18*%
X116677500Y-164910000D03*
X116677500Y-163010000D03*
X114402500Y-163960000D03*
%TD*%
D10*
%TO.C,Q10*%
X293469509Y-174787500D03*
X295369509Y-174787500D03*
X294419509Y-172512500D03*
%TD*%
M02*
