%TF.GenerationSoftware,KiCad,Pcbnew,8.0.7*%
%TF.CreationDate,2025-03-15T22:48:53-07:00*%
%TF.ProjectId,launchController_noTemp,6c61756e-6368-4436-9f6e-74726f6c6c65,rev?*%
%TF.SameCoordinates,Original*%
%TF.FileFunction,Paste,Top*%
%TF.FilePolarity,Positive*%
%FSLAX46Y46*%
G04 Gerber Fmt 4.6, Leading zero omitted, Abs format (unit mm)*
G04 Created by KiCad (PCBNEW 8.0.7) date 2025-03-15 22:48:53*
%MOMM*%
%LPD*%
G01*
G04 APERTURE LIST*
G04 Aperture macros list*
%AMRoundRect*
0 Rectangle with rounded corners*
0 $1 Rounding radius*
0 $2 $3 $4 $5 $6 $7 $8 $9 X,Y pos of 4 corners*
0 Add a 4 corners polygon primitive as box body*
4,1,4,$2,$3,$4,$5,$6,$7,$8,$9,$2,$3,0*
0 Add four circle primitives for the rounded corners*
1,1,$1+$1,$2,$3*
1,1,$1+$1,$4,$5*
1,1,$1+$1,$6,$7*
1,1,$1+$1,$8,$9*
0 Add four rect primitives between the rounded corners*
20,1,$1+$1,$2,$3,$4,$5,0*
20,1,$1+$1,$4,$5,$6,$7,0*
20,1,$1+$1,$6,$7,$8,$9,0*
20,1,$1+$1,$8,$9,$2,$3,0*%
G04 Aperture macros list end*
%ADD10RoundRect,0.150000X0.150000X-0.512500X0.150000X0.512500X-0.150000X0.512500X-0.150000X-0.512500X0*%
%ADD11RoundRect,0.250000X-0.450000X0.350000X-0.450000X-0.350000X0.450000X-0.350000X0.450000X0.350000X0*%
%ADD12RoundRect,0.155000X-0.212500X-0.155000X0.212500X-0.155000X0.212500X0.155000X-0.212500X0.155000X0*%
%ADD13RoundRect,0.250001X0.462499X0.624999X-0.462499X0.624999X-0.462499X-0.624999X0.462499X-0.624999X0*%
%ADD14RoundRect,0.250000X-0.350000X-0.450000X0.350000X-0.450000X0.350000X0.450000X-0.350000X0.450000X0*%
%ADD15RoundRect,0.250000X-0.400000X-1.075000X0.400000X-1.075000X0.400000X1.075000X-0.400000X1.075000X0*%
%ADD16RoundRect,0.062500X-0.117500X-0.062500X0.117500X-0.062500X0.117500X0.062500X-0.117500X0.062500X0*%
%ADD17RoundRect,0.237500X-0.287500X-0.237500X0.287500X-0.237500X0.287500X0.237500X-0.287500X0.237500X0*%
%ADD18RoundRect,0.150000X0.150000X0.200000X-0.150000X0.200000X-0.150000X-0.200000X0.150000X-0.200000X0*%
%ADD19RoundRect,0.250000X1.075000X-0.400000X1.075000X0.400000X-1.075000X0.400000X-1.075000X-0.400000X0*%
%ADD20RoundRect,0.150000X0.512500X0.150000X-0.512500X0.150000X-0.512500X-0.150000X0.512500X-0.150000X0*%
%ADD21RoundRect,0.250001X-0.624999X0.462499X-0.624999X-0.462499X0.624999X-0.462499X0.624999X0.462499X0*%
%ADD22RoundRect,0.155000X0.155000X-0.212500X0.155000X0.212500X-0.155000X0.212500X-0.155000X-0.212500X0*%
%ADD23RoundRect,0.150000X-0.150000X-0.200000X0.150000X-0.200000X0.150000X0.200000X-0.150000X0.200000X0*%
%ADD24RoundRect,0.155000X-0.155000X0.212500X-0.155000X-0.212500X0.155000X-0.212500X0.155000X0.212500X0*%
%ADD25RoundRect,0.250000X-0.250000X-0.250000X0.250000X-0.250000X0.250000X0.250000X-0.250000X0.250000X0*%
%ADD26RoundRect,0.112500X-0.612500X-0.112500X0.612500X-0.112500X0.612500X0.112500X-0.612500X0.112500X0*%
%ADD27RoundRect,0.237500X0.287500X0.237500X-0.287500X0.237500X-0.287500X-0.237500X0.287500X-0.237500X0*%
G04 APERTURE END LIST*
D10*
%TO.C,Q9*%
X274057512Y-174787500D03*
X275957512Y-174787500D03*
X275007512Y-172512500D03*
%TD*%
D11*
%TO.C,R11*%
X282061964Y-175350000D03*
X282061964Y-177350000D03*
%TD*%
D12*
%TO.C,C13*%
X155405000Y-119160000D03*
X156540000Y-119160000D03*
%TD*%
D13*
%TO.C,D1*%
X196617500Y-95400000D03*
X193642500Y-95400000D03*
%TD*%
D14*
%TO.C,R1*%
X189080000Y-95270000D03*
X191080000Y-95270000D03*
%TD*%
D10*
%TO.C,Q3*%
X157776006Y-174787500D03*
X159676006Y-174787500D03*
X158726006Y-172512500D03*
%TD*%
D15*
%TO.C,R15*%
X149630458Y-176550000D03*
X152730458Y-176550000D03*
%TD*%
D16*
%TO.C,D25*%
X158526006Y-177850000D03*
X157686006Y-177850000D03*
%TD*%
D17*
%TO.C,D12*%
X297544509Y-174950000D03*
X299294509Y-174950000D03*
%TD*%
D18*
%TO.C,D37*%
X141627858Y-96160000D03*
X143027858Y-96160000D03*
%TD*%
D19*
%TO.C,R29*%
X227339998Y-99760000D03*
X227339998Y-96660000D03*
%TD*%
D20*
%TO.C,J15*%
X117777500Y-109010000D03*
X117777500Y-107110000D03*
X115502500Y-108060000D03*
%TD*%
D17*
%TO.C,D6*%
X181263003Y-174950000D03*
X183013003Y-174950000D03*
%TD*%
D21*
%TO.C,D14*%
X135914009Y-172162500D03*
X135914009Y-175137500D03*
%TD*%
D16*
%TO.C,D27*%
X197350000Y-177850000D03*
X196510000Y-177850000D03*
%TD*%
D19*
%TO.C,R28*%
X232506664Y-99760000D03*
X232506664Y-96660000D03*
%TD*%
D16*
%TO.C,D32*%
X294219509Y-177850000D03*
X293379509Y-177850000D03*
%TD*%
D15*
%TO.C,R18*%
X207866449Y-176550000D03*
X210966449Y-176550000D03*
%TD*%
D22*
%TO.C,C14*%
X184040000Y-155660000D03*
X184040000Y-154525000D03*
%TD*%
D23*
%TO.C,D34*%
X156054284Y-96160000D03*
X154654284Y-96160000D03*
%TD*%
D12*
%TO.C,C9*%
X257360515Y-177850000D03*
X258495515Y-177850000D03*
%TD*%
D15*
%TO.C,R22*%
X285323961Y-176550000D03*
X288423961Y-176550000D03*
%TD*%
D11*
%TO.C,R3*%
X126956464Y-175350000D03*
X126956464Y-177350000D03*
%TD*%
D21*
%TO.C,D21*%
X271607512Y-172162500D03*
X271607512Y-175137500D03*
%TD*%
D12*
%TO.C,C8*%
X238138994Y-177850000D03*
X239273994Y-177850000D03*
%TD*%
D15*
%TO.C,R17*%
X188454452Y-176550000D03*
X191554452Y-176550000D03*
%TD*%
D17*
%TO.C,D11*%
X278132512Y-174950000D03*
X279882512Y-174950000D03*
%TD*%
D23*
%TO.C,D40*%
X129911432Y-96160000D03*
X128511432Y-96160000D03*
%TD*%
D15*
%TO.C,R19*%
X227278446Y-176550000D03*
X230378446Y-176550000D03*
%TD*%
D24*
%TO.C,C17*%
X185928000Y-142180500D03*
X185928000Y-143315500D03*
%TD*%
D10*
%TO.C,Q4*%
X177188003Y-174787500D03*
X179088003Y-174787500D03*
X178138003Y-172512500D03*
%TD*%
%TO.C,Q8*%
X254645515Y-174787500D03*
X256545515Y-174787500D03*
X255595515Y-172512500D03*
%TD*%
D21*
%TO.C,D20*%
X252195515Y-172162500D03*
X252195515Y-175137500D03*
%TD*%
D16*
%TO.C,D29*%
X236173994Y-177850000D03*
X235333994Y-177850000D03*
%TD*%
D10*
%TO.C,Q6*%
X216011997Y-174787500D03*
X217911997Y-174787500D03*
X216961997Y-172512500D03*
%TD*%
D24*
%TO.C,C16*%
X193548000Y-142180500D03*
X193548000Y-143315500D03*
%TD*%
D16*
%TO.C,D23*%
X119702012Y-177850000D03*
X118862012Y-177850000D03*
%TD*%
D12*
%TO.C,C10*%
X276772512Y-177850000D03*
X277907512Y-177850000D03*
%TD*%
D10*
%TO.C,Q1*%
X118952012Y-174787500D03*
X120852012Y-174787500D03*
X119902012Y-172512500D03*
%TD*%
D23*
%TO.C,D36*%
X147340000Y-96160000D03*
X145940000Y-96160000D03*
%TD*%
D15*
%TO.C,R13*%
X110806464Y-176550000D03*
X113906464Y-176550000D03*
%TD*%
D25*
%TO.C,D41*%
X178730000Y-91030000D03*
X181230000Y-91030000D03*
%TD*%
D11*
%TO.C,R9*%
X243428446Y-175350000D03*
X243428446Y-177350000D03*
%TD*%
D21*
%TO.C,D15*%
X155326006Y-172162500D03*
X155326006Y-175137500D03*
%TD*%
D15*
%TO.C,R2*%
X179610000Y-94690000D03*
X182710000Y-94690000D03*
%TD*%
D21*
%TO.C,D19*%
X232973994Y-172162500D03*
X232973994Y-175137500D03*
%TD*%
D19*
%TO.C,R26*%
X242839996Y-99760000D03*
X242839996Y-96660000D03*
%TD*%
D11*
%TO.C,R7*%
X204604452Y-175350000D03*
X204604452Y-177350000D03*
%TD*%
D17*
%TO.C,D3*%
X123027012Y-174950000D03*
X124777012Y-174950000D03*
%TD*%
D16*
%TO.C,D24*%
X139114009Y-177850000D03*
X138274009Y-177850000D03*
%TD*%
D18*
%TO.C,D33*%
X158940000Y-96160000D03*
X160340000Y-96160000D03*
%TD*%
D12*
%TO.C,C6*%
X199315000Y-177850000D03*
X200450000Y-177850000D03*
%TD*%
D17*
%TO.C,D7*%
X200675000Y-174950000D03*
X202425000Y-174950000D03*
%TD*%
D15*
%TO.C,R20*%
X246499967Y-176550000D03*
X249599967Y-176550000D03*
%TD*%
%TO.C,R14*%
X130218461Y-176550000D03*
X133318461Y-176550000D03*
%TD*%
D17*
%TO.C,D9*%
X239498994Y-174950000D03*
X241248994Y-174950000D03*
%TD*%
%TO.C,D10*%
X258720515Y-174950000D03*
X260470515Y-174950000D03*
%TD*%
D10*
%TO.C,Q7*%
X235423994Y-174787500D03*
X237323994Y-174787500D03*
X236373994Y-172512500D03*
%TD*%
D17*
%TO.C,D4*%
X142439009Y-174950000D03*
X144189009Y-174950000D03*
%TD*%
D19*
%TO.C,R23*%
X258340000Y-99760000D03*
X258340000Y-96660000D03*
%TD*%
%TO.C,R30*%
X222173332Y-99760000D03*
X222173332Y-96660000D03*
%TD*%
%TO.C,R31*%
X217006666Y-99760000D03*
X217006666Y-96660000D03*
%TD*%
D12*
%TO.C,C2*%
X121667012Y-177850000D03*
X122802012Y-177850000D03*
%TD*%
D16*
%TO.C,D28*%
X216761997Y-177850000D03*
X215921997Y-177850000D03*
%TD*%
D26*
%TO.C,U3*%
X187624000Y-141306000D03*
X187624000Y-141956000D03*
X187624000Y-142606000D03*
X187624000Y-143256000D03*
X192024000Y-143256000D03*
X192024000Y-142606000D03*
X192024000Y-141956000D03*
X192024000Y-141306000D03*
%TD*%
D12*
%TO.C,C3*%
X141079009Y-177850000D03*
X142214009Y-177850000D03*
%TD*%
D21*
%TO.C,D13*%
X116502012Y-172162500D03*
X116502012Y-175137500D03*
%TD*%
%TO.C,D18*%
X213561997Y-172162500D03*
X213561997Y-175137500D03*
%TD*%
%TO.C,D22*%
X291019509Y-172162500D03*
X291019509Y-175137500D03*
%TD*%
%TO.C,D17*%
X194150000Y-172162500D03*
X194150000Y-175137500D03*
%TD*%
D12*
%TO.C,C4*%
X160491006Y-177850000D03*
X161626006Y-177850000D03*
%TD*%
D15*
%TO.C,R21*%
X265911964Y-176550000D03*
X269011964Y-176550000D03*
%TD*%
D23*
%TO.C,D38*%
X138625716Y-96160000D03*
X137225716Y-96160000D03*
%TD*%
D18*
%TO.C,D39*%
X132913574Y-96160000D03*
X134313574Y-96160000D03*
%TD*%
D19*
%TO.C,R32*%
X211840000Y-99760000D03*
X211840000Y-96660000D03*
%TD*%
D11*
%TO.C,R8*%
X224016449Y-175350000D03*
X224016449Y-177350000D03*
%TD*%
D16*
%TO.C,D31*%
X274807512Y-177850000D03*
X273967512Y-177850000D03*
%TD*%
D11*
%TO.C,R4*%
X146368461Y-175350000D03*
X146368461Y-177350000D03*
%TD*%
D12*
%TO.C,C7*%
X218726997Y-177850000D03*
X219861997Y-177850000D03*
%TD*%
D17*
%TO.C,D5*%
X161851006Y-174950000D03*
X163601006Y-174950000D03*
%TD*%
D11*
%TO.C,R10*%
X262649967Y-175350000D03*
X262649967Y-177350000D03*
%TD*%
D21*
%TO.C,D16*%
X174738003Y-172162500D03*
X174738003Y-175137500D03*
%TD*%
D16*
%TO.C,D30*%
X255395515Y-177850000D03*
X254555515Y-177850000D03*
%TD*%
D12*
%TO.C,C12*%
X128605000Y-119160000D03*
X129740000Y-119160000D03*
%TD*%
D16*
%TO.C,D26*%
X177938003Y-177850000D03*
X177098003Y-177850000D03*
%TD*%
D12*
%TO.C,C11*%
X296184509Y-177850000D03*
X297319509Y-177850000D03*
%TD*%
D27*
%TO.C,D2*%
X186780000Y-95450000D03*
X185030000Y-95450000D03*
%TD*%
D18*
%TO.C,D35*%
X150342142Y-96160000D03*
X151742142Y-96160000D03*
%TD*%
D12*
%TO.C,C5*%
X179903003Y-177850000D03*
X181038003Y-177850000D03*
%TD*%
D11*
%TO.C,R6*%
X185192455Y-175350000D03*
X185192455Y-177350000D03*
%TD*%
D10*
%TO.C,Q5*%
X196600000Y-174787500D03*
X198500000Y-174787500D03*
X197550000Y-172512500D03*
%TD*%
%TO.C,Q2*%
X138364009Y-174787500D03*
X140264009Y-174787500D03*
X139314009Y-172512500D03*
%TD*%
D17*
%TO.C,D8*%
X220086997Y-174950000D03*
X221836997Y-174950000D03*
%TD*%
D11*
%TO.C,R12*%
X301473961Y-175350000D03*
X301473961Y-177350000D03*
%TD*%
D19*
%TO.C,R25*%
X248006662Y-99760000D03*
X248006662Y-96660000D03*
%TD*%
%TO.C,R24*%
X253173328Y-99760000D03*
X253173328Y-96660000D03*
%TD*%
D11*
%TO.C,R5*%
X165780458Y-175350000D03*
X165780458Y-177350000D03*
%TD*%
D19*
%TO.C,R27*%
X237673330Y-99760000D03*
X237673330Y-96660000D03*
%TD*%
D15*
%TO.C,R16*%
X169042455Y-176550000D03*
X172142455Y-176550000D03*
%TD*%
D20*
%TO.C,J18*%
X116677500Y-164910000D03*
X116677500Y-163010000D03*
X114402500Y-163960000D03*
%TD*%
D10*
%TO.C,Q10*%
X293469509Y-174787500D03*
X295369509Y-174787500D03*
X294419509Y-172512500D03*
%TD*%
M02*
