M48
; DRILL file {KiCad 8.0.7} date 2025-03-17T18:41:25-0700
; FORMAT={-:-/ absolute / inch / decimal}
; #@! TF.CreationDate,2025-03-17T18:41:25-07:00
; #@! TF.GenerationSoftware,Kicad,Pcbnew,8.0.7
; #@! TF.FileFunction,Plated,1,4,PTH
FMAT,2
INCH
; #@! TA.AperFunction,Plated,PTH,ViaDrill
T1C0.0118
; #@! TA.AperFunction,Plated,PTH,ViaDrill
T2C0.0236
; #@! TA.AperFunction,Plated,PTH,ComponentDrill
T3C0.0315
; #@! TA.AperFunction,Plated,PTH,ViaDrill
T4C0.0394
; #@! TA.AperFunction,Plated,PTH,ComponentDrill
T5C0.0394
; #@! TA.AperFunction,Plated,PTH,ComponentDrill
T6C0.0400
; #@! TA.AperFunction,Plated,PTH,ComponentDrill
T7C0.0429
; #@! TA.AperFunction,Plated,PTH,ViaDrill
T8C0.0512
; #@! TA.AperFunction,Plated,PTH,ComponentDrill
T9C0.0984
; #@! TA.AperFunction,Plated,PTH,ComponentDrill
T10C0.1260
; #@! TA.AperFunction,Plated,PTH,ComponentDrill
T11C0.1457
; #@! TA.AperFunction,Plated,PTH,ComponentDrill
T12C0.1654
%
G90
G05
T1
X4.53Y-6.77
X4.71Y-7.03
X4.72Y-6.74
X4.84Y-6.97
X5.1148Y-3.7446
X5.15Y-4.69
X5.2352Y-3.7446
X5.29Y-6.77
X5.4626Y-3.7462
X5.47Y-7.03
X5.48Y-6.74
X5.5735Y-3.7458
X5.6Y-6.97
X5.803Y-3.744
X5.9199Y-3.745
X6.06Y-6.77
X6.1437Y-3.7419
X6.21Y-4.69
X6.24Y-7.03
X6.25Y-6.74
X6.2578Y-3.7428
X6.37Y-6.97
X6.82Y-6.77
X7.0Y-7.03
X7.01Y-6.74
X7.13Y-6.97
X7.1798Y-3.5835
X7.2811Y-6.0811
X7.32Y-5.68
X7.3561Y-3.7119
X7.39Y-5.68
X7.5532Y-5.5232
X7.58Y-6.77
X7.62Y-5.68
X7.77Y-6.74
X7.79Y-7.03
X7.7945Y-3.7569
X7.89Y-6.97
X8.35Y-6.77
X8.53Y-7.03
X8.54Y-6.74
X8.66Y-6.97
X9.12Y-6.77
X9.3Y-7.03
X9.31Y-6.74
X9.43Y-6.97
X9.87Y-6.77
X10.05Y-7.03
X10.06Y-6.74
X10.18Y-6.97
X10.64Y-6.77
X10.82Y-7.03
X10.83Y-6.74
X10.95Y-6.97
X11.4Y-6.77
X11.58Y-7.03
X11.59Y-6.74
X11.71Y-6.97
T2
X5.7299Y-5.8252
X5.8835Y-5.6717
X6.4189Y-5.9039
X6.6433Y-5.6795
X6.915Y-5.6756
X6.915Y-5.9748
X7.06Y-5.99
X7.1079Y-5.6756
X7.2102Y-5.6756
X8.2732Y-6.4634
T3
X4.5488Y-5.9886
X4.5488Y-6.2839
X4.5771Y-4.0142
X4.6755Y-4.0142
T4
X8.163Y-5.6717
T5
X4.4772Y-7.185
X4.5772Y-7.185
X4.6772Y-7.185
X4.7772Y-7.185
X4.8772Y-7.185
X4.9691Y-3.6453
X5.0236Y-3.5335
X5.0667Y-4.0373
X5.0667Y-4.5373
X5.0781Y-3.6453
X5.1327Y-3.5335
X5.1667Y-4.0373
X5.1667Y-4.5373
X5.1872Y-3.6453
X5.241Y-7.185
X5.2417Y-3.5335
X5.2667Y-4.0373
X5.2667Y-4.5373
X5.2963Y-3.6453
X5.341Y-7.185
X5.3508Y-3.5335
X5.3667Y-4.0373
X5.3667Y-4.5373
X5.4053Y-3.6453
X5.441Y-7.185
X5.4598Y-3.5335
X5.4667Y-4.0373
X5.4667Y-4.5373
X5.5144Y-3.6453
X5.541Y-7.185
X5.5667Y-4.0373
X5.5667Y-4.5373
X5.5689Y-3.5335
X5.6234Y-3.6453
X5.641Y-7.185
X5.678Y-3.5335
X5.7325Y-3.6453
X5.787Y-3.5335
X5.8415Y-3.6453
X5.8961Y-3.5335
X5.9506Y-3.6453
X6.0049Y-7.185
X6.0051Y-3.5335
X6.0596Y-3.6453
X6.1049Y-7.185
X6.1142Y-3.5335
X6.1236Y-4.0378
X6.1236Y-4.5378
X6.1687Y-3.6453
X6.2049Y-7.185
X6.2232Y-3.5335
X6.2236Y-4.0378
X6.2236Y-4.5378
X6.2778Y-3.6453
X6.3049Y-7.185
X6.3236Y-4.0378
X6.3236Y-4.5378
X6.4049Y-7.185
X6.4236Y-4.0378
X6.4236Y-4.5378
X6.5236Y-4.0378
X6.5236Y-4.5378
X6.6236Y-4.0378
X6.6236Y-4.5378
X6.7687Y-7.185
X6.8687Y-7.185
X6.9687Y-7.185
X7.0687Y-7.185
X7.1687Y-7.185
X7.5326Y-7.185
X7.6326Y-7.185
X7.7326Y-7.185
X7.8326Y-7.185
X7.9326Y-7.185
X8.2964Y-7.185
X8.3964Y-7.185
X8.4964Y-7.185
X8.51Y-3.6457
X8.5646Y-3.5339
X8.5964Y-7.185
X8.6191Y-3.6457
X8.6736Y-3.5339
X8.6964Y-7.185
X8.7281Y-3.6457
X8.7827Y-3.5339
X8.8372Y-3.6457
X8.8917Y-3.5339
X8.9463Y-3.6457
X9.0008Y-3.5339
X9.0553Y-3.6457
X9.0603Y-7.185
X9.1098Y-3.5339
X9.1603Y-7.185
X9.1644Y-3.6457
X9.2189Y-3.5339
X9.2603Y-7.185
X9.2734Y-3.6457
X9.328Y-3.5339
X9.3603Y-7.185
X9.3825Y-3.6457
X9.437Y-3.5339
X9.4603Y-7.185
X9.4915Y-3.6457
X9.5461Y-3.5339
X9.6006Y-3.6457
X9.6551Y-3.5339
X9.7096Y-3.6457
X9.7642Y-3.5339
X9.8187Y-3.6457
X9.8241Y-7.185
X9.9241Y-7.185
X10.0241Y-7.185
X10.1241Y-7.185
X10.2241Y-7.185
X10.588Y-7.185
X10.688Y-7.185
X10.6888Y-3.6378
X10.7339Y-3.5598
X10.7339Y-3.7157
X10.7789Y-3.6378
X10.788Y-7.185
X10.824Y-3.5598
X10.824Y-3.7157
X10.8691Y-3.6378
X10.888Y-7.185
X10.9142Y-3.5598
X10.9142Y-3.7157
X10.9593Y-3.6378
X10.988Y-7.185
X11.0043Y-3.5598
X11.0043Y-3.7157
X11.0494Y-3.6378
X11.0945Y-3.5598
X11.0945Y-3.7157
X11.1396Y-3.6378
X11.1846Y-3.5598
X11.1846Y-3.7157
X11.2297Y-3.6378
X11.2748Y-3.5598
X11.2748Y-3.7157
X11.3199Y-3.6378
X11.3518Y-7.185
X11.365Y-3.5598
X11.365Y-3.7157
X11.41Y-3.6378
X11.4518Y-7.185
X11.4551Y-3.7157
X11.5518Y-7.185
X11.6518Y-7.185
X11.7518Y-7.185
X12.0122Y-4.3833
X12.0122Y-4.4923
X12.0122Y-4.6014
X12.0122Y-4.7104
X12.0122Y-4.8195
X12.0122Y-4.9285
X12.0122Y-5.0376
X12.0122Y-5.1467
X12.0122Y-5.2557
X12.0122Y-5.3648
X12.0122Y-5.4738
X12.0122Y-5.5829
X12.0122Y-5.6919
X12.124Y-4.4378
X12.124Y-4.5469
X12.124Y-4.6559
X12.124Y-4.765
X12.124Y-4.874
X12.124Y-4.9831
X12.124Y-5.0921
X12.124Y-5.2012
X12.124Y-5.3102
X12.124Y-5.4193
X12.124Y-5.5283
X12.124Y-5.6374
T6
X7.3232Y-6.0232
X7.3232Y-6.1232
X7.4232Y-6.0232
X7.4232Y-6.1232
X7.5232Y-6.0232
X7.5232Y-6.1232
X7.6232Y-6.0232
X7.6232Y-6.1232
X7.7232Y-6.0232
X7.7232Y-6.1232
X7.8232Y-6.0232
X7.8232Y-6.1232
X7.9232Y-6.0232
X7.9232Y-6.1232
X8.0232Y-6.0232
X8.0232Y-6.1232
X8.1232Y-6.0232
X8.1232Y-6.1232
X8.2232Y-6.0232
X8.2232Y-6.1232
X8.3232Y-6.0232
X8.3232Y-6.1232
X8.4232Y-6.0232
X8.4232Y-6.1232
X8.5232Y-6.0232
X8.5232Y-6.1232
X8.6232Y-6.0232
X8.6232Y-6.1232
X8.7232Y-6.0232
X8.7232Y-6.1232
X8.8232Y-6.0232
X8.8232Y-6.1232
X8.9232Y-6.0232
X8.9232Y-6.1232
X9.0232Y-6.0232
X9.0232Y-6.1232
X9.1232Y-6.0232
X9.1232Y-6.1232
X9.2232Y-6.0232
X9.2232Y-6.1232
T7
X6.939Y-3.3827
X7.039Y-3.3827
X7.139Y-3.3827
X7.239Y-3.3827
X7.339Y-3.3827
X7.439Y-3.3827
X7.539Y-3.3827
X7.639Y-3.3827
X7.739Y-3.3827
X7.839Y-3.3827
T8
X4.3625Y-6.837
X4.67Y-6.41
X4.6958Y-4.2542
X5.1295Y-6.837
X5.891Y-6.837
X6.6552Y-6.837
X7.4195Y-6.837
X8.1837Y-6.837
X8.948Y-6.837
X9.7047Y-6.837
X10.469Y-6.837
X10.9661Y-5.7504
X11.0549Y-4.7049
X11.0808Y-5.7509
X11.0996Y-4.6406
X11.1443Y-4.5762
X11.189Y-4.5118
X11.1904Y-5.7503
X11.2332Y-6.837
X11.2336Y-4.4475
X11.2783Y-4.3831
X11.3001Y-5.7497
X11.323Y-4.3187
X11.3677Y-4.2543
X11.4097Y-5.7491
X11.4124Y-4.19
X11.4571Y-4.1256
X11.5174Y-5.7505
X11.6247Y-5.7519
X11.7345Y-5.7513
X11.8443Y-5.7507
X11.954Y-5.7501
T9
X4.9167Y-4.0373
X4.9167Y-4.5373
X5.7167Y-4.0373
X5.7167Y-4.5373
X5.9736Y-4.0378
X5.9736Y-4.5378
X6.7736Y-4.0378
X6.7736Y-4.5378
T10
X4.6963Y-3.5894
X6.5506Y-3.5894
X8.2372Y-3.5898
X10.0915Y-3.5898
X10.4179Y-3.6598
X11.7289Y-3.6598
X12.0681Y-4.1104
X12.0681Y-5.9648
T11
X4.0547Y-3.5004
X4.0547Y-7.1697
X12.165Y-3.5004
X12.165Y-7.1697
T12
X4.3057Y-4.1835
X4.3057Y-4.4531
X4.3057Y-4.7228
X4.3057Y-5.7898
X4.3057Y-6.0594
X4.3057Y-6.3291
M30
