%TF.GenerationSoftware,KiCad,Pcbnew,8.0.7*%
%TF.CreationDate,2025-03-17T18:49:10-07:00*%
%TF.ProjectId,Buck5,4275636b-352e-46b6-9963-61645f706362,rev?*%
%TF.SameCoordinates,Original*%
%TF.FileFunction,Copper,L4,Bot*%
%TF.FilePolarity,Positive*%
%FSLAX46Y46*%
G04 Gerber Fmt 4.6, Leading zero omitted, Abs format (unit mm)*
G04 Created by KiCad (PCBNEW 8.0.7) date 2025-03-17 18:49:10*
%MOMM*%
%LPD*%
G01*
G04 APERTURE LIST*
%TA.AperFunction,ComponentPad*%
%ADD10R,1.600000X1.600000*%
%TD*%
%TA.AperFunction,ComponentPad*%
%ADD11C,1.600000*%
%TD*%
%TA.AperFunction,ComponentPad*%
%ADD12C,7.400000*%
%TD*%
%TA.AperFunction,ComponentPad*%
%ADD13R,3.200000X3.200000*%
%TD*%
%TA.AperFunction,ComponentPad*%
%ADD14O,3.200000X3.200000*%
%TD*%
%TA.AperFunction,ComponentPad*%
%ADD15R,1.635000X1.635000*%
%TD*%
%TA.AperFunction,ComponentPad*%
%ADD16C,1.635000*%
%TD*%
%TA.AperFunction,ViaPad*%
%ADD17C,1.700000*%
%TD*%
%TA.AperFunction,Conductor*%
%ADD18C,0.850000*%
%TD*%
G04 APERTURE END LIST*
D10*
%TO.P,C2,1*%
%TO.N,/+5V*%
X108329349Y-86106000D03*
D11*
%TO.P,C2,2*%
%TO.N,GND*%
X111829349Y-86106000D03*
%TD*%
D12*
%TO.P,H1,1,1*%
%TO.N,GND*%
X103450000Y-108749900D03*
%TD*%
D13*
%TO.P,D2,1,K*%
%TO.N,Net-(D2-K)*%
X101092000Y-100076000D03*
D14*
%TO.P,D2,2,A*%
%TO.N,GND*%
X101092000Y-84836000D03*
%TD*%
D12*
%TO.P,H2,1,1*%
%TO.N,GND*%
X120100000Y-108720000D03*
%TD*%
D15*
%TO.P,J1,1,Pin_1*%
%TO.N,GND*%
X100330000Y-73660000D03*
D16*
%TO.P,J1,2,Pin_2*%
X102870000Y-73660000D03*
%TO.P,J1,3,Pin_3*%
X105410000Y-73660000D03*
%TO.P,J1,4,Pin_4*%
X107950000Y-73660000D03*
%TO.P,J1,5,Pin_5*%
X110490000Y-73660000D03*
%TO.P,J1,6,Pin_6*%
X113030000Y-73660000D03*
%TO.P,J1,7,Pin_7*%
X115570000Y-73660000D03*
%TO.P,J1,8,Pin_8*%
X118110000Y-73660000D03*
%TO.P,J1,9,Pin_9*%
%TO.N,/+5V*%
X120650000Y-73660000D03*
%TO.P,J1,10,Pin_10*%
%TO.N,/+24V*%
X123190000Y-73660000D03*
%TD*%
D17*
%TO.N,GND*%
X120650000Y-86360000D03*
X115757000Y-89729000D03*
%TD*%
D18*
%TO.N,/+5V*%
X108329349Y-86106000D02*
X108329349Y-85980651D01*
X108329349Y-85980651D02*
X120650000Y-73660000D01*
%TD*%
%TA.AperFunction,Conductor*%
%TO.N,GND*%
G36*
X126891880Y-69919670D02*
G01*
X126937635Y-69972474D01*
X126948841Y-70023985D01*
X126949236Y-115464939D01*
X126929552Y-115531979D01*
X126876748Y-115577734D01*
X126825322Y-115588940D01*
X96644086Y-115609990D01*
X96577033Y-115590352D01*
X96531242Y-115537580D01*
X96520000Y-115485990D01*
X96520000Y-108749900D01*
X99244935Y-108749900D01*
X99265185Y-109162076D01*
X99325735Y-109570273D01*
X99426007Y-109970576D01*
X99565019Y-110359089D01*
X99565027Y-110359109D01*
X99741466Y-110732157D01*
X99953614Y-111086106D01*
X100199441Y-111417564D01*
X100308478Y-111537867D01*
X101977060Y-109869284D01*
X102056112Y-109972307D01*
X102227593Y-110143788D01*
X102330613Y-110222838D01*
X100662031Y-111891420D01*
X100782335Y-112000458D01*
X101113793Y-112246285D01*
X101467742Y-112458433D01*
X101840790Y-112634872D01*
X101840810Y-112634880D01*
X102229323Y-112773892D01*
X102629626Y-112874164D01*
X103037823Y-112934714D01*
X103450000Y-112954964D01*
X103862176Y-112934714D01*
X104270373Y-112874164D01*
X104670676Y-112773892D01*
X105059189Y-112634880D01*
X105059209Y-112634872D01*
X105432257Y-112458433D01*
X105786206Y-112246285D01*
X106117670Y-112000454D01*
X106237967Y-111891421D01*
X106237967Y-111891419D01*
X104569385Y-110222838D01*
X104672407Y-110143788D01*
X104843888Y-109972307D01*
X104922938Y-109869286D01*
X106591519Y-111537867D01*
X106591521Y-111537867D01*
X106700554Y-111417570D01*
X106946385Y-111086106D01*
X107158533Y-110732157D01*
X107334972Y-110359109D01*
X107334980Y-110359089D01*
X107473992Y-109970576D01*
X107574264Y-109570273D01*
X107634814Y-109162076D01*
X107655064Y-108749900D01*
X107653595Y-108720000D01*
X115894935Y-108720000D01*
X115915185Y-109132176D01*
X115975735Y-109540373D01*
X116076007Y-109940676D01*
X116215019Y-110329189D01*
X116215027Y-110329209D01*
X116391466Y-110702257D01*
X116603614Y-111056206D01*
X116849441Y-111387664D01*
X116958478Y-111507967D01*
X118627060Y-109839384D01*
X118706112Y-109942407D01*
X118877593Y-110113888D01*
X118980613Y-110192938D01*
X117312031Y-111861520D01*
X117432335Y-111970558D01*
X117763793Y-112216385D01*
X118117742Y-112428533D01*
X118490790Y-112604972D01*
X118490810Y-112604980D01*
X118879323Y-112743992D01*
X119279626Y-112844264D01*
X119687823Y-112904814D01*
X120100000Y-112925064D01*
X120512176Y-112904814D01*
X120920373Y-112844264D01*
X121320676Y-112743992D01*
X121709189Y-112604980D01*
X121709209Y-112604972D01*
X122082257Y-112428533D01*
X122436206Y-112216385D01*
X122767670Y-111970554D01*
X122887967Y-111861521D01*
X122887967Y-111861519D01*
X121219385Y-110192938D01*
X121322407Y-110113888D01*
X121493888Y-109942407D01*
X121572938Y-109839386D01*
X123241519Y-111507967D01*
X123241521Y-111507967D01*
X123350554Y-111387670D01*
X123596385Y-111056206D01*
X123808533Y-110702257D01*
X123984972Y-110329209D01*
X123984980Y-110329189D01*
X124123992Y-109940676D01*
X124224264Y-109540373D01*
X124284814Y-109132176D01*
X124305064Y-108720000D01*
X124284814Y-108307823D01*
X124224264Y-107899626D01*
X124123992Y-107499323D01*
X123984980Y-107110810D01*
X123984972Y-107110790D01*
X123808533Y-106737742D01*
X123596385Y-106383793D01*
X123350558Y-106052335D01*
X123241520Y-105932031D01*
X121572938Y-107600613D01*
X121493888Y-107497593D01*
X121322407Y-107326112D01*
X121219384Y-107247060D01*
X122887967Y-105578478D01*
X122767664Y-105469441D01*
X122436206Y-105223614D01*
X122082257Y-105011466D01*
X121709209Y-104835027D01*
X121709189Y-104835019D01*
X121320676Y-104696007D01*
X120920373Y-104595735D01*
X120512176Y-104535185D01*
X120100000Y-104514935D01*
X119687823Y-104535185D01*
X119279626Y-104595735D01*
X118879323Y-104696007D01*
X118490810Y-104835019D01*
X118490790Y-104835027D01*
X118117742Y-105011466D01*
X117763793Y-105223614D01*
X117432329Y-105469445D01*
X117312031Y-105578477D01*
X117312031Y-105578478D01*
X118980614Y-107247061D01*
X118877593Y-107326112D01*
X118706112Y-107497593D01*
X118627061Y-107600614D01*
X116958478Y-105932031D01*
X116958477Y-105932031D01*
X116849445Y-106052329D01*
X116603614Y-106383793D01*
X116391466Y-106737742D01*
X116215027Y-107110790D01*
X116215019Y-107110810D01*
X116076007Y-107499323D01*
X115975735Y-107899626D01*
X115915185Y-108307823D01*
X115894935Y-108720000D01*
X107653595Y-108720000D01*
X107634814Y-108337723D01*
X107574264Y-107929526D01*
X107473992Y-107529223D01*
X107334980Y-107140710D01*
X107334972Y-107140690D01*
X107158533Y-106767642D01*
X106946385Y-106413693D01*
X106700558Y-106082235D01*
X106591520Y-105961931D01*
X104922938Y-107630513D01*
X104843888Y-107527493D01*
X104672407Y-107356012D01*
X104569384Y-107276960D01*
X106237967Y-105608378D01*
X106117664Y-105499341D01*
X105786206Y-105253514D01*
X105432257Y-105041366D01*
X105059209Y-104864927D01*
X105059189Y-104864919D01*
X104670676Y-104725907D01*
X104270373Y-104625635D01*
X103862176Y-104565085D01*
X103450000Y-104544835D01*
X103037823Y-104565085D01*
X102629626Y-104625635D01*
X102229323Y-104725907D01*
X101840810Y-104864919D01*
X101840790Y-104864927D01*
X101467742Y-105041366D01*
X101113793Y-105253514D01*
X100782329Y-105499345D01*
X100662031Y-105608377D01*
X100662031Y-105608378D01*
X102330614Y-107276961D01*
X102227593Y-107356012D01*
X102056112Y-107527493D01*
X101977061Y-107630514D01*
X100308478Y-105961931D01*
X100308477Y-105961931D01*
X100199445Y-106082229D01*
X99953614Y-106413693D01*
X99741466Y-106767642D01*
X99565027Y-107140690D01*
X99565019Y-107140710D01*
X99426007Y-107529223D01*
X99325735Y-107929526D01*
X99265185Y-108337723D01*
X99244935Y-108749900D01*
X96520000Y-108749900D01*
X96520000Y-104454508D01*
X96523348Y-102119793D01*
X96528642Y-98428135D01*
X98991500Y-98428135D01*
X98991500Y-101723870D01*
X98991501Y-101723876D01*
X98997908Y-101783483D01*
X99048202Y-101918328D01*
X99048206Y-101918335D01*
X99134452Y-102033544D01*
X99134455Y-102033547D01*
X99249664Y-102119793D01*
X99249671Y-102119797D01*
X99384517Y-102170091D01*
X99384516Y-102170091D01*
X99391444Y-102170835D01*
X99444127Y-102176500D01*
X102739872Y-102176499D01*
X102799483Y-102170091D01*
X102934331Y-102119796D01*
X103049546Y-102033546D01*
X103135796Y-101918331D01*
X103186091Y-101783483D01*
X103192500Y-101723873D01*
X103192499Y-98428128D01*
X103186091Y-98368517D01*
X103135796Y-98233669D01*
X103135795Y-98233668D01*
X103135793Y-98233664D01*
X103049547Y-98118455D01*
X103049544Y-98118452D01*
X102934335Y-98032206D01*
X102934328Y-98032202D01*
X102799482Y-97981908D01*
X102799483Y-97981908D01*
X102739883Y-97975501D01*
X102739881Y-97975500D01*
X102739873Y-97975500D01*
X102739864Y-97975500D01*
X99444129Y-97975500D01*
X99444123Y-97975501D01*
X99384516Y-97981908D01*
X99249671Y-98032202D01*
X99249664Y-98032206D01*
X99134455Y-98118452D01*
X99134452Y-98118455D01*
X99048206Y-98233664D01*
X99048202Y-98233671D01*
X98997908Y-98368517D01*
X98991501Y-98428116D01*
X98991501Y-98428123D01*
X98991500Y-98428135D01*
X96528642Y-98428135D01*
X96548490Y-84585999D01*
X99004192Y-84585999D01*
X99004193Y-84586000D01*
X100329639Y-84586000D01*
X100322743Y-84602649D01*
X100292000Y-84757207D01*
X100292000Y-84914793D01*
X100322743Y-85069351D01*
X100329639Y-85086000D01*
X99004193Y-85086000D01*
X99006697Y-85122619D01*
X99065146Y-85403888D01*
X99065150Y-85403902D01*
X99161355Y-85674595D01*
X99293527Y-85929676D01*
X99459204Y-86164385D01*
X99459204Y-86164386D01*
X99655288Y-86374341D01*
X99878135Y-86555641D01*
X99878146Y-86555648D01*
X100123607Y-86704917D01*
X100387108Y-86819371D01*
X100663737Y-86896879D01*
X100663746Y-86896881D01*
X100841999Y-86921380D01*
X100842000Y-86921380D01*
X100842000Y-85598360D01*
X100858649Y-85605257D01*
X101013207Y-85636000D01*
X101170793Y-85636000D01*
X101325351Y-85605257D01*
X101342000Y-85598360D01*
X101342000Y-86921380D01*
X101520253Y-86896881D01*
X101520262Y-86896879D01*
X101796891Y-86819371D01*
X102060392Y-86704917D01*
X102305853Y-86555648D01*
X102305864Y-86555641D01*
X102528711Y-86374341D01*
X102724795Y-86164386D01*
X102724795Y-86164385D01*
X102890472Y-85929676D01*
X103022644Y-85674595D01*
X103118849Y-85403902D01*
X103118853Y-85403888D01*
X103177302Y-85122619D01*
X103179807Y-85086000D01*
X101854361Y-85086000D01*
X101861257Y-85069351D01*
X101892000Y-84914793D01*
X101892000Y-84757207D01*
X101861257Y-84602649D01*
X101854361Y-84586000D01*
X103179807Y-84586000D01*
X103179807Y-84585999D01*
X103177302Y-84549380D01*
X103118853Y-84268111D01*
X103118849Y-84268097D01*
X103022644Y-83997404D01*
X102890472Y-83742323D01*
X102724795Y-83507614D01*
X102724795Y-83507613D01*
X102528711Y-83297658D01*
X102305864Y-83116358D01*
X102305853Y-83116351D01*
X102060392Y-82967082D01*
X101796891Y-82852628D01*
X101520262Y-82775120D01*
X101520255Y-82775119D01*
X101342000Y-82750618D01*
X101342000Y-84073639D01*
X101325351Y-84066743D01*
X101170793Y-84036000D01*
X101013207Y-84036000D01*
X100858649Y-84066743D01*
X100842000Y-84073639D01*
X100842000Y-82750618D01*
X100663744Y-82775119D01*
X100663737Y-82775120D01*
X100387108Y-82852628D01*
X100123607Y-82967082D01*
X99878146Y-83116351D01*
X99878135Y-83116358D01*
X99655288Y-83297658D01*
X99459204Y-83507613D01*
X99459204Y-83507614D01*
X99293527Y-83742323D01*
X99161355Y-83997404D01*
X99065150Y-84268097D01*
X99065146Y-84268111D01*
X99006697Y-84549380D01*
X99004192Y-84585999D01*
X96548490Y-84585999D01*
X96565398Y-72794655D01*
X99012500Y-72794655D01*
X99012500Y-73410000D01*
X99845026Y-73410000D01*
X99822141Y-73449638D01*
X99785000Y-73588249D01*
X99785000Y-73731751D01*
X99822141Y-73870362D01*
X99845026Y-73910000D01*
X99012500Y-73910000D01*
X99012500Y-74525344D01*
X99018901Y-74584872D01*
X99018903Y-74584879D01*
X99069145Y-74719586D01*
X99069149Y-74719593D01*
X99155309Y-74834687D01*
X99155312Y-74834690D01*
X99270406Y-74920850D01*
X99270413Y-74920854D01*
X99405120Y-74971096D01*
X99405127Y-74971098D01*
X99464655Y-74977499D01*
X99464672Y-74977500D01*
X100080000Y-74977500D01*
X100080000Y-74144974D01*
X100119638Y-74167859D01*
X100258249Y-74205000D01*
X100401751Y-74205000D01*
X100540362Y-74167859D01*
X100580000Y-74144974D01*
X100580000Y-74977500D01*
X101195328Y-74977500D01*
X101195344Y-74977499D01*
X101254872Y-74971098D01*
X101254879Y-74971096D01*
X101389586Y-74920854D01*
X101389593Y-74920850D01*
X101504687Y-74834690D01*
X101504690Y-74834687D01*
X101590850Y-74719593D01*
X101590854Y-74719586D01*
X101641096Y-74584879D01*
X101641098Y-74584872D01*
X101647499Y-74525344D01*
X101647500Y-74525327D01*
X101647500Y-74521906D01*
X101667185Y-74454867D01*
X101719989Y-74409112D01*
X101777185Y-74399260D01*
X102350294Y-73826151D01*
X102362141Y-73870362D01*
X102433891Y-73994638D01*
X102535362Y-74096109D01*
X102659638Y-74167859D01*
X102703848Y-74179705D01*
X102131961Y-74751590D01*
X102208735Y-74805348D01*
X102417665Y-74902773D01*
X102417674Y-74902777D01*
X102640339Y-74962439D01*
X102640350Y-74962441D01*
X102869998Y-74982533D01*
X102870002Y-74982533D01*
X103099649Y-74962441D01*
X103099660Y-74962439D01*
X103322325Y-74902777D01*
X103322334Y-74902773D01*
X103531266Y-74805347D01*
X103531270Y-74805345D01*
X103608037Y-74751591D01*
X103036151Y-74179705D01*
X103080362Y-74167859D01*
X103204638Y-74096109D01*
X103306109Y-73994638D01*
X103377859Y-73870362D01*
X103389705Y-73826151D01*
X103961591Y-74398037D01*
X104015345Y-74321270D01*
X104015349Y-74321262D01*
X104027618Y-74294953D01*
X104073790Y-74242513D01*
X104140984Y-74223361D01*
X104207865Y-74243577D01*
X104252382Y-74294953D01*
X104264650Y-74321262D01*
X104318408Y-74398037D01*
X104890294Y-73826151D01*
X104902141Y-73870362D01*
X104973891Y-73994638D01*
X105075362Y-74096109D01*
X105199638Y-74167859D01*
X105243848Y-74179705D01*
X104671961Y-74751590D01*
X104748735Y-74805348D01*
X104957665Y-74902773D01*
X104957674Y-74902777D01*
X105180339Y-74962439D01*
X105180350Y-74962441D01*
X105409998Y-74982533D01*
X105410002Y-74982533D01*
X105639649Y-74962441D01*
X105639660Y-74962439D01*
X105862325Y-74902777D01*
X105862334Y-74902773D01*
X106071266Y-74805347D01*
X106071270Y-74805345D01*
X106148037Y-74751591D01*
X105576151Y-74179705D01*
X105620362Y-74167859D01*
X105744638Y-74096109D01*
X105846109Y-73994638D01*
X105917859Y-73870362D01*
X105929705Y-73826151D01*
X106501591Y-74398037D01*
X106555345Y-74321270D01*
X106555349Y-74321262D01*
X106567618Y-74294953D01*
X106613790Y-74242513D01*
X106680984Y-74223361D01*
X106747865Y-74243577D01*
X106792382Y-74294953D01*
X106804650Y-74321262D01*
X106858408Y-74398037D01*
X107430294Y-73826151D01*
X107442141Y-73870362D01*
X107513891Y-73994638D01*
X107615362Y-74096109D01*
X107739638Y-74167859D01*
X107783848Y-74179705D01*
X107211961Y-74751590D01*
X107288735Y-74805348D01*
X107497665Y-74902773D01*
X107497674Y-74902777D01*
X107720339Y-74962439D01*
X107720350Y-74962441D01*
X107949998Y-74982533D01*
X107950002Y-74982533D01*
X108179649Y-74962441D01*
X108179660Y-74962439D01*
X108402325Y-74902777D01*
X108402334Y-74902773D01*
X108611266Y-74805347D01*
X108611270Y-74805345D01*
X108688037Y-74751591D01*
X108116151Y-74179705D01*
X108160362Y-74167859D01*
X108284638Y-74096109D01*
X108386109Y-73994638D01*
X108457859Y-73870362D01*
X108469705Y-73826151D01*
X109041591Y-74398037D01*
X109095345Y-74321270D01*
X109095349Y-74321262D01*
X109107618Y-74294953D01*
X109153790Y-74242513D01*
X109220984Y-74223361D01*
X109287865Y-74243577D01*
X109332382Y-74294953D01*
X109344650Y-74321262D01*
X109398408Y-74398037D01*
X109970294Y-73826151D01*
X109982141Y-73870362D01*
X110053891Y-73994638D01*
X110155362Y-74096109D01*
X110279638Y-74167859D01*
X110323848Y-74179705D01*
X109751961Y-74751590D01*
X109828735Y-74805348D01*
X110037665Y-74902773D01*
X110037674Y-74902777D01*
X110260339Y-74962439D01*
X110260350Y-74962441D01*
X110489998Y-74982533D01*
X110490002Y-74982533D01*
X110719649Y-74962441D01*
X110719660Y-74962439D01*
X110942325Y-74902777D01*
X110942334Y-74902773D01*
X111151266Y-74805347D01*
X111151270Y-74805345D01*
X111228037Y-74751591D01*
X110656151Y-74179705D01*
X110700362Y-74167859D01*
X110824638Y-74096109D01*
X110926109Y-73994638D01*
X110997859Y-73870362D01*
X111009705Y-73826151D01*
X111581591Y-74398037D01*
X111635345Y-74321270D01*
X111635349Y-74321262D01*
X111647618Y-74294953D01*
X111693790Y-74242513D01*
X111760984Y-74223361D01*
X111827865Y-74243577D01*
X111872382Y-74294953D01*
X111884650Y-74321262D01*
X111938408Y-74398037D01*
X112510294Y-73826151D01*
X112522141Y-73870362D01*
X112593891Y-73994638D01*
X112695362Y-74096109D01*
X112819638Y-74167859D01*
X112863848Y-74179705D01*
X112291961Y-74751590D01*
X112368735Y-74805348D01*
X112577665Y-74902773D01*
X112577674Y-74902777D01*
X112800339Y-74962439D01*
X112800350Y-74962441D01*
X113029998Y-74982533D01*
X113030002Y-74982533D01*
X113259649Y-74962441D01*
X113259660Y-74962439D01*
X113482325Y-74902777D01*
X113482334Y-74902773D01*
X113691266Y-74805347D01*
X113691270Y-74805345D01*
X113768037Y-74751591D01*
X113196151Y-74179705D01*
X113240362Y-74167859D01*
X113364638Y-74096109D01*
X113466109Y-73994638D01*
X113537859Y-73870362D01*
X113549705Y-73826151D01*
X114121591Y-74398037D01*
X114175345Y-74321270D01*
X114175349Y-74321262D01*
X114187618Y-74294953D01*
X114233790Y-74242513D01*
X114300984Y-74223361D01*
X114367865Y-74243577D01*
X114412382Y-74294953D01*
X114424650Y-74321262D01*
X114478408Y-74398037D01*
X115050294Y-73826151D01*
X115062141Y-73870362D01*
X115133891Y-73994638D01*
X115235362Y-74096109D01*
X115359638Y-74167859D01*
X115403848Y-74179705D01*
X114831961Y-74751590D01*
X114908735Y-74805348D01*
X115117665Y-74902773D01*
X115117674Y-74902777D01*
X115340339Y-74962439D01*
X115340350Y-74962441D01*
X115569998Y-74982533D01*
X115570002Y-74982533D01*
X115799649Y-74962441D01*
X115799660Y-74962439D01*
X116022325Y-74902777D01*
X116022334Y-74902773D01*
X116231266Y-74805347D01*
X116231270Y-74805345D01*
X116308037Y-74751591D01*
X115736151Y-74179705D01*
X115780362Y-74167859D01*
X115904638Y-74096109D01*
X116006109Y-73994638D01*
X116077859Y-73870362D01*
X116089705Y-73826151D01*
X116661591Y-74398037D01*
X116715345Y-74321270D01*
X116715349Y-74321262D01*
X116727618Y-74294953D01*
X116773790Y-74242513D01*
X116840984Y-74223361D01*
X116907865Y-74243577D01*
X116952382Y-74294953D01*
X116964650Y-74321262D01*
X117018408Y-74398037D01*
X117590294Y-73826151D01*
X117602141Y-73870362D01*
X117673891Y-73994638D01*
X117775362Y-74096109D01*
X117899638Y-74167859D01*
X117943847Y-74179705D01*
X117371961Y-74751590D01*
X117448735Y-74805348D01*
X117657665Y-74902773D01*
X117657674Y-74902777D01*
X117797780Y-74940318D01*
X117857441Y-74976683D01*
X117887970Y-75039530D01*
X117879675Y-75108905D01*
X117853368Y-75147774D01*
X108231962Y-84769181D01*
X108170639Y-84802666D01*
X108144281Y-84805500D01*
X107481478Y-84805500D01*
X107481472Y-84805501D01*
X107421865Y-84811908D01*
X107287020Y-84862202D01*
X107287013Y-84862206D01*
X107171804Y-84948452D01*
X107171801Y-84948455D01*
X107085555Y-85063664D01*
X107085551Y-85063671D01*
X107035257Y-85198517D01*
X107028850Y-85258116D01*
X107028849Y-85258135D01*
X107028849Y-86953870D01*
X107028850Y-86953876D01*
X107035257Y-87013483D01*
X107085551Y-87148328D01*
X107085555Y-87148335D01*
X107171801Y-87263544D01*
X107171804Y-87263547D01*
X107287013Y-87349793D01*
X107287020Y-87349797D01*
X107421866Y-87400091D01*
X107421865Y-87400091D01*
X107428793Y-87400835D01*
X107481476Y-87406500D01*
X109177221Y-87406499D01*
X109236832Y-87400091D01*
X109371680Y-87349796D01*
X109486895Y-87263546D01*
X109573145Y-87148331D01*
X109623440Y-87013483D01*
X109629849Y-86953873D01*
X109629848Y-86105997D01*
X110524383Y-86105997D01*
X110524383Y-86106002D01*
X110544207Y-86332599D01*
X110544209Y-86332610D01*
X110603079Y-86552317D01*
X110603084Y-86552331D01*
X110699212Y-86758478D01*
X110750323Y-86831472D01*
X111429349Y-86152446D01*
X111429349Y-86158661D01*
X111456608Y-86260394D01*
X111509269Y-86351606D01*
X111583743Y-86426080D01*
X111674955Y-86478741D01*
X111776688Y-86506000D01*
X111782902Y-86506000D01*
X111103875Y-87185025D01*
X111176862Y-87236132D01*
X111176870Y-87236136D01*
X111383017Y-87332264D01*
X111383031Y-87332269D01*
X111602738Y-87391139D01*
X111602749Y-87391141D01*
X111829347Y-87410966D01*
X111829351Y-87410966D01*
X112055948Y-87391141D01*
X112055959Y-87391139D01*
X112275666Y-87332269D01*
X112275680Y-87332264D01*
X112481827Y-87236136D01*
X112554820Y-87185024D01*
X111875796Y-86506000D01*
X111882010Y-86506000D01*
X111983743Y-86478741D01*
X112074955Y-86426080D01*
X112149429Y-86351606D01*
X112202090Y-86260394D01*
X112229349Y-86158661D01*
X112229349Y-86152447D01*
X112908373Y-86831471D01*
X112959485Y-86758478D01*
X113055613Y-86552331D01*
X113055618Y-86552317D01*
X113114488Y-86332610D01*
X113114490Y-86332599D01*
X113134315Y-86106002D01*
X113134315Y-86105997D01*
X113114490Y-85879400D01*
X113114488Y-85879389D01*
X113055618Y-85659682D01*
X113055613Y-85659668D01*
X112959485Y-85453521D01*
X112959481Y-85453513D01*
X112908374Y-85380526D01*
X112229349Y-86059551D01*
X112229349Y-86053339D01*
X112202090Y-85951606D01*
X112149429Y-85860394D01*
X112074955Y-85785920D01*
X111983743Y-85733259D01*
X111882010Y-85706000D01*
X111875794Y-85706000D01*
X112554821Y-85026974D01*
X112481827Y-84975863D01*
X112275680Y-84879735D01*
X112275666Y-84879730D01*
X112055959Y-84820860D01*
X112055948Y-84820858D01*
X111829351Y-84801034D01*
X111829347Y-84801034D01*
X111602749Y-84820858D01*
X111602738Y-84820860D01*
X111383031Y-84879730D01*
X111383022Y-84879734D01*
X111176865Y-84975866D01*
X111176861Y-84975868D01*
X111103875Y-85026973D01*
X111103875Y-85026974D01*
X111782902Y-85706000D01*
X111776688Y-85706000D01*
X111674955Y-85733259D01*
X111583743Y-85785920D01*
X111509269Y-85860394D01*
X111456608Y-85951606D01*
X111429349Y-86053339D01*
X111429349Y-86059552D01*
X110750323Y-85380526D01*
X110750322Y-85380526D01*
X110699217Y-85453512D01*
X110699215Y-85453516D01*
X110603083Y-85659673D01*
X110603079Y-85659682D01*
X110544209Y-85879389D01*
X110544207Y-85879400D01*
X110524383Y-86105997D01*
X109629848Y-86105997D01*
X109629848Y-86040366D01*
X109649532Y-85973328D01*
X109666162Y-85952691D01*
X120602547Y-75016306D01*
X120663868Y-74982823D01*
X120679416Y-74980461D01*
X120879743Y-74962935D01*
X121102505Y-74903246D01*
X121311518Y-74805782D01*
X121500431Y-74673504D01*
X121663504Y-74510431D01*
X121795782Y-74321518D01*
X121807618Y-74296134D01*
X121853789Y-74243696D01*
X121920982Y-74224543D01*
X121987864Y-74244758D01*
X122032381Y-74296134D01*
X122044218Y-74321518D01*
X122044219Y-74321519D01*
X122044220Y-74321522D01*
X122176496Y-74510432D01*
X122339567Y-74673503D01*
X122528477Y-74805779D01*
X122528479Y-74805780D01*
X122528482Y-74805782D01*
X122737495Y-74903246D01*
X122960257Y-74962935D01*
X123117397Y-74976683D01*
X123189998Y-74983035D01*
X123190000Y-74983035D01*
X123190002Y-74983035D01*
X123262603Y-74976683D01*
X123419743Y-74962935D01*
X123642505Y-74903246D01*
X123851518Y-74805782D01*
X124040431Y-74673504D01*
X124203504Y-74510431D01*
X124335782Y-74321518D01*
X124433246Y-74112505D01*
X124492935Y-73889743D01*
X124513035Y-73660000D01*
X124492935Y-73430257D01*
X124433246Y-73207495D01*
X124335782Y-72998483D01*
X124203504Y-72809569D01*
X124203502Y-72809566D01*
X124040432Y-72646496D01*
X123851522Y-72514220D01*
X123851518Y-72514218D01*
X123851516Y-72514217D01*
X123642505Y-72416754D01*
X123642501Y-72416753D01*
X123642497Y-72416751D01*
X123419748Y-72357066D01*
X123419744Y-72357065D01*
X123419743Y-72357065D01*
X123419742Y-72357064D01*
X123419737Y-72357064D01*
X123190002Y-72336965D01*
X123189998Y-72336965D01*
X122960262Y-72357064D01*
X122960251Y-72357066D01*
X122737502Y-72416751D01*
X122737495Y-72416753D01*
X122737495Y-72416754D01*
X122736485Y-72417225D01*
X122528484Y-72514217D01*
X122528482Y-72514218D01*
X122339566Y-72646497D01*
X122176497Y-72809566D01*
X122044218Y-72998482D01*
X122044214Y-72998489D01*
X122032381Y-73023866D01*
X121986208Y-73076305D01*
X121919015Y-73095456D01*
X121852134Y-73075239D01*
X121807619Y-73023866D01*
X121795785Y-72998489D01*
X121795781Y-72998482D01*
X121795780Y-72998481D01*
X121663504Y-72809569D01*
X121663502Y-72809566D01*
X121500432Y-72646496D01*
X121311522Y-72514220D01*
X121311518Y-72514218D01*
X121311516Y-72514217D01*
X121102505Y-72416754D01*
X121102501Y-72416753D01*
X121102497Y-72416751D01*
X120879748Y-72357066D01*
X120879744Y-72357065D01*
X120879743Y-72357065D01*
X120879742Y-72357064D01*
X120879737Y-72357064D01*
X120650002Y-72336965D01*
X120649998Y-72336965D01*
X120420262Y-72357064D01*
X120420251Y-72357066D01*
X120197502Y-72416751D01*
X120197495Y-72416753D01*
X120197495Y-72416754D01*
X120196485Y-72417225D01*
X119988484Y-72514217D01*
X119988482Y-72514218D01*
X119799566Y-72646497D01*
X119636497Y-72809566D01*
X119504219Y-72998481D01*
X119492106Y-73024458D01*
X119445933Y-73076897D01*
X119378739Y-73096048D01*
X119311858Y-73075832D01*
X119267342Y-73024457D01*
X119255350Y-72998740D01*
X119201589Y-72921961D01*
X118629704Y-73493847D01*
X118617859Y-73449638D01*
X118546109Y-73325362D01*
X118444638Y-73223891D01*
X118320362Y-73152141D01*
X118276151Y-73140294D01*
X118848037Y-72568408D01*
X118771264Y-72514651D01*
X118562334Y-72417226D01*
X118562325Y-72417222D01*
X118339660Y-72357560D01*
X118339649Y-72357558D01*
X118110002Y-72337467D01*
X118109998Y-72337467D01*
X117880350Y-72357558D01*
X117880339Y-72357560D01*
X117657674Y-72417222D01*
X117657665Y-72417225D01*
X117448731Y-72514654D01*
X117371961Y-72568407D01*
X117943848Y-73140294D01*
X117899638Y-73152141D01*
X117775362Y-73223891D01*
X117673891Y-73325362D01*
X117602141Y-73449638D01*
X117590294Y-73493848D01*
X117018407Y-72921961D01*
X116964655Y-72998729D01*
X116952382Y-73025050D01*
X116906209Y-73077489D01*
X116839015Y-73096640D01*
X116772134Y-73076424D01*
X116727618Y-73025048D01*
X116715351Y-72998742D01*
X116661589Y-72921961D01*
X116089704Y-73493847D01*
X116077859Y-73449638D01*
X116006109Y-73325362D01*
X115904638Y-73223891D01*
X115780362Y-73152141D01*
X115736151Y-73140294D01*
X116308037Y-72568408D01*
X116231264Y-72514651D01*
X116022334Y-72417226D01*
X116022325Y-72417222D01*
X115799660Y-72357560D01*
X115799649Y-72357558D01*
X115570002Y-72337467D01*
X115569998Y-72337467D01*
X115340350Y-72357558D01*
X115340339Y-72357560D01*
X115117674Y-72417222D01*
X115117665Y-72417225D01*
X114908731Y-72514654D01*
X114831961Y-72568407D01*
X115403848Y-73140294D01*
X115359638Y-73152141D01*
X115235362Y-73223891D01*
X115133891Y-73325362D01*
X115062141Y-73449638D01*
X115050294Y-73493848D01*
X114478407Y-72921961D01*
X114424655Y-72998729D01*
X114412382Y-73025050D01*
X114366209Y-73077489D01*
X114299015Y-73096640D01*
X114232134Y-73076424D01*
X114187618Y-73025048D01*
X114175351Y-72998742D01*
X114121589Y-72921961D01*
X113549704Y-73493847D01*
X113537859Y-73449638D01*
X113466109Y-73325362D01*
X113364638Y-73223891D01*
X113240362Y-73152141D01*
X113196151Y-73140294D01*
X113768037Y-72568408D01*
X113691264Y-72514651D01*
X113482334Y-72417226D01*
X113482325Y-72417222D01*
X113259660Y-72357560D01*
X113259649Y-72357558D01*
X113030002Y-72337467D01*
X113029998Y-72337467D01*
X112800350Y-72357558D01*
X112800339Y-72357560D01*
X112577674Y-72417222D01*
X112577665Y-72417225D01*
X112368731Y-72514654D01*
X112291961Y-72568407D01*
X112863848Y-73140294D01*
X112819638Y-73152141D01*
X112695362Y-73223891D01*
X112593891Y-73325362D01*
X112522141Y-73449638D01*
X112510294Y-73493848D01*
X111938407Y-72921961D01*
X111884655Y-72998729D01*
X111872382Y-73025050D01*
X111826209Y-73077489D01*
X111759015Y-73096640D01*
X111692134Y-73076424D01*
X111647618Y-73025048D01*
X111635351Y-72998742D01*
X111581589Y-72921961D01*
X111009704Y-73493847D01*
X110997859Y-73449638D01*
X110926109Y-73325362D01*
X110824638Y-73223891D01*
X110700362Y-73152141D01*
X110656151Y-73140294D01*
X111228037Y-72568408D01*
X111151264Y-72514651D01*
X110942334Y-72417226D01*
X110942325Y-72417222D01*
X110719660Y-72357560D01*
X110719649Y-72357558D01*
X110490002Y-72337467D01*
X110489998Y-72337467D01*
X110260350Y-72357558D01*
X110260339Y-72357560D01*
X110037674Y-72417222D01*
X110037665Y-72417225D01*
X109828731Y-72514654D01*
X109751961Y-72568407D01*
X110323848Y-73140294D01*
X110279638Y-73152141D01*
X110155362Y-73223891D01*
X110053891Y-73325362D01*
X109982141Y-73449638D01*
X109970294Y-73493848D01*
X109398407Y-72921961D01*
X109344655Y-72998729D01*
X109332382Y-73025050D01*
X109286209Y-73077489D01*
X109219015Y-73096640D01*
X109152134Y-73076424D01*
X109107618Y-73025048D01*
X109095351Y-72998742D01*
X109041589Y-72921961D01*
X108469704Y-73493847D01*
X108457859Y-73449638D01*
X108386109Y-73325362D01*
X108284638Y-73223891D01*
X108160362Y-73152141D01*
X108116151Y-73140294D01*
X108688037Y-72568408D01*
X108611264Y-72514651D01*
X108402334Y-72417226D01*
X108402325Y-72417222D01*
X108179660Y-72357560D01*
X108179649Y-72357558D01*
X107950002Y-72337467D01*
X107949998Y-72337467D01*
X107720350Y-72357558D01*
X107720339Y-72357560D01*
X107497674Y-72417222D01*
X107497665Y-72417225D01*
X107288731Y-72514654D01*
X107211961Y-72568407D01*
X107783848Y-73140294D01*
X107739638Y-73152141D01*
X107615362Y-73223891D01*
X107513891Y-73325362D01*
X107442141Y-73449638D01*
X107430294Y-73493848D01*
X106858407Y-72921961D01*
X106804655Y-72998729D01*
X106792382Y-73025050D01*
X106746209Y-73077489D01*
X106679015Y-73096640D01*
X106612134Y-73076424D01*
X106567618Y-73025048D01*
X106555351Y-72998742D01*
X106501589Y-72921961D01*
X105929704Y-73493847D01*
X105917859Y-73449638D01*
X105846109Y-73325362D01*
X105744638Y-73223891D01*
X105620362Y-73152141D01*
X105576151Y-73140294D01*
X106148037Y-72568408D01*
X106071264Y-72514651D01*
X105862334Y-72417226D01*
X105862325Y-72417222D01*
X105639660Y-72357560D01*
X105639649Y-72357558D01*
X105410002Y-72337467D01*
X105409998Y-72337467D01*
X105180350Y-72357558D01*
X105180339Y-72357560D01*
X104957674Y-72417222D01*
X104957665Y-72417225D01*
X104748731Y-72514654D01*
X104671961Y-72568407D01*
X105243848Y-73140294D01*
X105199638Y-73152141D01*
X105075362Y-73223891D01*
X104973891Y-73325362D01*
X104902141Y-73449638D01*
X104890294Y-73493848D01*
X104318407Y-72921961D01*
X104264655Y-72998729D01*
X104252382Y-73025050D01*
X104206209Y-73077489D01*
X104139015Y-73096640D01*
X104072134Y-73076424D01*
X104027618Y-73025048D01*
X104015351Y-72998742D01*
X103961589Y-72921961D01*
X103389704Y-73493847D01*
X103377859Y-73449638D01*
X103306109Y-73325362D01*
X103204638Y-73223891D01*
X103080362Y-73152141D01*
X103036151Y-73140294D01*
X103608037Y-72568408D01*
X103531264Y-72514651D01*
X103322334Y-72417226D01*
X103322325Y-72417222D01*
X103099660Y-72357560D01*
X103099649Y-72357558D01*
X102870002Y-72337467D01*
X102869998Y-72337467D01*
X102640350Y-72357558D01*
X102640339Y-72357560D01*
X102417674Y-72417222D01*
X102417665Y-72417225D01*
X102208731Y-72514654D01*
X102131961Y-72568407D01*
X102703848Y-73140294D01*
X102659638Y-73152141D01*
X102535362Y-73223891D01*
X102433891Y-73325362D01*
X102362141Y-73449638D01*
X102350294Y-73493848D01*
X101776999Y-72920553D01*
X101713807Y-72907853D01*
X101663624Y-72859237D01*
X101647500Y-72798092D01*
X101647500Y-72794672D01*
X101647499Y-72794655D01*
X101641098Y-72735127D01*
X101641096Y-72735120D01*
X101590854Y-72600413D01*
X101590850Y-72600406D01*
X101504690Y-72485312D01*
X101504687Y-72485309D01*
X101389593Y-72399149D01*
X101389586Y-72399145D01*
X101254879Y-72348903D01*
X101254872Y-72348901D01*
X101195344Y-72342500D01*
X100580000Y-72342500D01*
X100580000Y-73175025D01*
X100540362Y-73152141D01*
X100401751Y-73115000D01*
X100258249Y-73115000D01*
X100119638Y-73152141D01*
X100080000Y-73175025D01*
X100080000Y-72342500D01*
X99464655Y-72342500D01*
X99405127Y-72348901D01*
X99405120Y-72348903D01*
X99270413Y-72399145D01*
X99270406Y-72399149D01*
X99155312Y-72485309D01*
X99155309Y-72485312D01*
X99069149Y-72600406D01*
X99069145Y-72600413D01*
X99018903Y-72735120D01*
X99018901Y-72735127D01*
X99012500Y-72794655D01*
X96565398Y-72794655D01*
X96569371Y-70024062D01*
X96589152Y-69957053D01*
X96642021Y-69911374D01*
X96693365Y-69900242D01*
X126824840Y-69899986D01*
X126891880Y-69919670D01*
G37*
%TD.AperFunction*%
%TD*%
M02*
