%TF.GenerationSoftware,KiCad,Pcbnew,8.0.7*%
%TF.CreationDate,2025-03-17T18:49:10-07:00*%
%TF.ProjectId,Buck5,4275636b-352e-46b6-9963-61645f706362,rev?*%
%TF.SameCoordinates,Original*%
%TF.FileFunction,Copper,L1,Top*%
%TF.FilePolarity,Positive*%
%FSLAX46Y46*%
G04 Gerber Fmt 4.6, Leading zero omitted, Abs format (unit mm)*
G04 Created by KiCad (PCBNEW 8.0.7) date 2025-03-17 18:49:10*
%MOMM*%
%LPD*%
G01*
G04 APERTURE LIST*
G04 Aperture macros list*
%AMRoundRect*
0 Rectangle with rounded corners*
0 $1 Rounding radius*
0 $2 $3 $4 $5 $6 $7 $8 $9 X,Y pos of 4 corners*
0 Add a 4 corners polygon primitive as box body*
4,1,4,$2,$3,$4,$5,$6,$7,$8,$9,$2,$3,0*
0 Add four circle primitives for the rounded corners*
1,1,$1+$1,$2,$3*
1,1,$1+$1,$4,$5*
1,1,$1+$1,$6,$7*
1,1,$1+$1,$8,$9*
0 Add four rect primitives between the rounded corners*
20,1,$1+$1,$2,$3,$4,$5,0*
20,1,$1+$1,$4,$5,$6,$7,0*
20,1,$1+$1,$6,$7,$8,$9,0*
20,1,$1+$1,$8,$9,$2,$3,0*%
G04 Aperture macros list end*
%TA.AperFunction,ComponentPad*%
%ADD10R,1.600000X1.600000*%
%TD*%
%TA.AperFunction,ComponentPad*%
%ADD11C,1.600000*%
%TD*%
%TA.AperFunction,SMDPad,CuDef*%
%ADD12RoundRect,0.250000X-1.075000X0.400000X-1.075000X-0.400000X1.075000X-0.400000X1.075000X0.400000X0*%
%TD*%
%TA.AperFunction,SMDPad,CuDef*%
%ADD13RoundRect,0.237500X-0.237500X0.287500X-0.237500X-0.287500X0.237500X-0.287500X0.237500X0.287500X0*%
%TD*%
%TA.AperFunction,ComponentPad*%
%ADD14C,7.400000*%
%TD*%
%TA.AperFunction,SMDPad,CuDef*%
%ADD15RoundRect,0.200000X-1.550000X1.450000X-1.550000X-1.450000X1.550000X-1.450000X1.550000X1.450000X0*%
%TD*%
%TA.AperFunction,SMDPad,CuDef*%
%ADD16RoundRect,0.250001X0.624999X-0.462499X0.624999X0.462499X-0.624999X0.462499X-0.624999X-0.462499X0*%
%TD*%
%TA.AperFunction,SMDPad,CuDef*%
%ADD17RoundRect,0.250000X-0.300000X2.050000X-0.300000X-2.050000X0.300000X-2.050000X0.300000X2.050000X0*%
%TD*%
%TA.AperFunction,SMDPad,CuDef*%
%ADD18RoundRect,0.250000X-2.375000X2.025000X-2.375000X-2.025000X2.375000X-2.025000X2.375000X2.025000X0*%
%TD*%
%TA.AperFunction,SMDPad,CuDef*%
%ADD19RoundRect,0.250002X-5.149998X4.449998X-5.149998X-4.449998X5.149998X-4.449998X5.149998X4.449998X0*%
%TD*%
%TA.AperFunction,ComponentPad*%
%ADD20R,3.200000X3.200000*%
%TD*%
%TA.AperFunction,ComponentPad*%
%ADD21O,3.200000X3.200000*%
%TD*%
%TA.AperFunction,ComponentPad*%
%ADD22R,1.635000X1.635000*%
%TD*%
%TA.AperFunction,ComponentPad*%
%ADD23C,1.635000*%
%TD*%
%TA.AperFunction,SMDPad,CuDef*%
%ADD24RoundRect,0.160000X-0.160000X0.222500X-0.160000X-0.222500X0.160000X-0.222500X0.160000X0.222500X0*%
%TD*%
%TA.AperFunction,SMDPad,CuDef*%
%ADD25R,3.550000X1.850000*%
%TD*%
%TA.AperFunction,SMDPad,CuDef*%
%ADD26RoundRect,0.250000X0.450000X-0.350000X0.450000X0.350000X-0.450000X0.350000X-0.450000X-0.350000X0*%
%TD*%
%TA.AperFunction,ViaPad*%
%ADD27C,1.700000*%
%TD*%
%TA.AperFunction,Conductor*%
%ADD28C,0.850000*%
%TD*%
%TA.AperFunction,Conductor*%
%ADD29C,0.200000*%
%TD*%
%TA.AperFunction,Conductor*%
%ADD30C,0.250000*%
%TD*%
%TA.AperFunction,Conductor*%
%ADD31C,1.000000*%
%TD*%
G04 APERTURE END LIST*
D10*
%TO.P,C2,1*%
%TO.N,/+5V*%
X108329349Y-86106000D03*
D11*
%TO.P,C2,2*%
%TO.N,GND*%
X111829349Y-86106000D03*
%TD*%
D12*
%TO.P,R1,1*%
%TO.N,Net-(U1-VIN)*%
X113792000Y-78206000D03*
%TO.P,R1,2*%
%TO.N,Net-(D3-Pad2)*%
X113792000Y-81306000D03*
%TD*%
D13*
%TO.P,D3,1*%
%TO.N,GND*%
X111252000Y-78119000D03*
%TO.P,D3,2*%
%TO.N,Net-(D3-Pad2)*%
X111252000Y-79869000D03*
%TD*%
D14*
%TO.P,H1,1,1*%
%TO.N,GND*%
X103450000Y-108749900D03*
%TD*%
D15*
%TO.P,L1,1,1*%
%TO.N,Net-(D2-K)*%
X109542500Y-102174500D03*
%TO.P,L1,2,2*%
%TO.N,/+5V*%
X109542500Y-93474500D03*
%TD*%
D16*
%TO.P,D1,1*%
%TO.N,GND*%
X105664000Y-80989500D03*
%TO.P,D1,2*%
%TO.N,Net-(D1-Pad2)*%
X105664000Y-78014500D03*
%TD*%
D17*
%TO.P,U1,1,VIN*%
%TO.N,Net-(U1-VIN)*%
X124050000Y-89729000D03*
%TO.P,U1,2,OUT*%
%TO.N,Net-(D2-K)*%
X122350000Y-89729000D03*
%TO.P,U1,3,GND*%
%TO.N,GND*%
X120650000Y-89729000D03*
D18*
X123425000Y-96454000D03*
X117875000Y-96454000D03*
D19*
X120650000Y-98879000D03*
D18*
X123425000Y-101304000D03*
X117875000Y-101304000D03*
D17*
%TO.P,U1,4,FB*%
%TO.N,/+5V*%
X118950000Y-89729000D03*
%TO.P,U1,5,~{ON}/OFF*%
%TO.N,GND*%
X117250000Y-89729000D03*
%TD*%
D20*
%TO.P,D2,1,K*%
%TO.N,Net-(D2-K)*%
X101092000Y-100076000D03*
D21*
%TO.P,D2,2,A*%
%TO.N,GND*%
X101092000Y-84836000D03*
%TD*%
D14*
%TO.P,H2,1,1*%
%TO.N,GND*%
X120100000Y-108720000D03*
%TD*%
D22*
%TO.P,J1,1,Pin_1*%
%TO.N,GND*%
X100330000Y-73660000D03*
D23*
%TO.P,J1,2,Pin_2*%
X102870000Y-73660000D03*
%TO.P,J1,3,Pin_3*%
X105410000Y-73660000D03*
%TO.P,J1,4,Pin_4*%
X107950000Y-73660000D03*
%TO.P,J1,5,Pin_5*%
X110490000Y-73660000D03*
%TO.P,J1,6,Pin_6*%
X113030000Y-73660000D03*
%TO.P,J1,7,Pin_7*%
X115570000Y-73660000D03*
%TO.P,J1,8,Pin_8*%
X118110000Y-73660000D03*
%TO.P,J1,9,Pin_9*%
%TO.N,/+5V*%
X120650000Y-73660000D03*
%TO.P,J1,10,Pin_10*%
%TO.N,/+24V*%
X123190000Y-73660000D03*
%TD*%
D24*
%TO.P,F1,1*%
%TO.N,/+24V*%
X123190000Y-76135500D03*
%TO.P,F1,2*%
%TO.N,Net-(U1-VIN)*%
X123190000Y-77280500D03*
%TD*%
D25*
%TO.P,C1,1*%
%TO.N,Net-(U1-VIN)*%
X123300000Y-83058000D03*
%TO.P,C1,2*%
%TO.N,GND*%
X118000000Y-83058000D03*
%TD*%
D26*
%TO.P,R2,1*%
%TO.N,/+5V*%
X107950000Y-79978000D03*
%TO.P,R2,2*%
%TO.N,Net-(D1-Pad2)*%
X107950000Y-77978000D03*
%TD*%
D27*
%TO.N,GND*%
X120650000Y-86360000D03*
X115757000Y-89729000D03*
%TD*%
D28*
%TO.N,/+24V*%
X123190000Y-73660000D02*
X123190000Y-76135500D01*
D29*
%TO.N,/+5V*%
X108329349Y-80357349D02*
X107950000Y-79978000D01*
D28*
X108329349Y-92327349D02*
X108329349Y-86106000D01*
X117627000Y-86106000D02*
X116911000Y-86106000D01*
D29*
X108329349Y-86106000D02*
X108329349Y-80357349D01*
D28*
X109476500Y-93474500D02*
X108329349Y-92327349D01*
X118950000Y-87429000D02*
X117627000Y-86106000D01*
D30*
X118950000Y-89729000D02*
X118950000Y-87429000D01*
D28*
X116911000Y-86106000D02*
X109542500Y-93474500D01*
D30*
X109542500Y-93474500D02*
X109476500Y-93474500D01*
%TO.N,Net-(D3-Pad2)*%
X113792000Y-81306000D02*
X112355000Y-79869000D01*
X112355000Y-79869000D02*
X111252000Y-79869000D01*
D28*
%TO.N,Net-(D2-K)*%
X113030000Y-94742000D02*
X114554000Y-93218000D01*
X121161000Y-93218000D02*
X122350000Y-92029000D01*
X111185500Y-102174500D02*
X113030000Y-100330000D01*
X102936500Y-102174500D02*
X101092000Y-100330000D01*
D30*
X109476000Y-102108000D02*
X109542500Y-102174500D01*
D28*
X122350000Y-92029000D02*
X122350000Y-89729000D01*
X114554000Y-93218000D02*
X121161000Y-93218000D01*
X109542500Y-102174500D02*
X111185500Y-102174500D01*
X113030000Y-100330000D02*
X113030000Y-94742000D01*
X111185500Y-102174500D02*
X102936500Y-102174500D01*
X101092000Y-100330000D02*
X101092000Y-100076000D01*
D30*
%TO.N,Net-(D1-Pad2)*%
X105664000Y-78014500D02*
X107913500Y-78014500D01*
D31*
%TO.N,GND*%
X120650000Y-89729000D02*
X120650000Y-86360000D01*
X117250000Y-89729000D02*
X115757000Y-89729000D01*
D30*
%TO.N,Net-(U1-VIN)*%
X123190000Y-77280500D02*
X123190000Y-77470000D01*
X123190000Y-77470000D02*
X122708000Y-77952000D01*
D28*
X124714000Y-89065000D02*
X124050000Y-89729000D01*
X124714000Y-78994000D02*
X124714000Y-82296000D01*
X123190000Y-77470000D02*
X124714000Y-78994000D01*
X124714000Y-82296000D02*
X124714000Y-89065000D01*
D30*
X122708000Y-77952000D02*
X113792000Y-77952000D01*
%TD*%
%TA.AperFunction,Conductor*%
%TO.N,GND*%
G36*
X126942985Y-69869685D02*
G01*
X126988740Y-69922489D01*
X126999945Y-69974053D01*
X126991923Y-88350905D01*
X126980058Y-115526054D01*
X126960344Y-115593085D01*
X126907520Y-115638817D01*
X126856058Y-115650000D01*
X120884000Y-115650000D01*
X96643797Y-115610235D01*
X96576790Y-115590440D01*
X96531121Y-115537561D01*
X96520000Y-115486235D01*
X96520000Y-108749900D01*
X99244935Y-108749900D01*
X99265185Y-109162076D01*
X99325735Y-109570273D01*
X99426007Y-109970576D01*
X99565019Y-110359089D01*
X99565027Y-110359109D01*
X99741466Y-110732157D01*
X99953614Y-111086106D01*
X100199441Y-111417564D01*
X100308478Y-111537867D01*
X101977060Y-109869284D01*
X102056112Y-109972307D01*
X102227593Y-110143788D01*
X102330613Y-110222838D01*
X100662031Y-111891420D01*
X100782335Y-112000458D01*
X101113793Y-112246285D01*
X101467742Y-112458433D01*
X101840790Y-112634872D01*
X101840810Y-112634880D01*
X102229323Y-112773892D01*
X102629626Y-112874164D01*
X103037823Y-112934714D01*
X103450000Y-112954964D01*
X103862176Y-112934714D01*
X104270373Y-112874164D01*
X104670676Y-112773892D01*
X105059189Y-112634880D01*
X105059209Y-112634872D01*
X105432257Y-112458433D01*
X105786206Y-112246285D01*
X106117670Y-112000454D01*
X106237967Y-111891421D01*
X106237967Y-111891419D01*
X104569385Y-110222838D01*
X104672407Y-110143788D01*
X104843888Y-109972307D01*
X104922938Y-109869286D01*
X106591519Y-111537867D01*
X106591521Y-111537867D01*
X106700554Y-111417570D01*
X106946385Y-111086106D01*
X107158533Y-110732157D01*
X107334972Y-110359109D01*
X107334980Y-110359089D01*
X107473992Y-109970576D01*
X107574264Y-109570273D01*
X107634814Y-109162076D01*
X107655064Y-108749900D01*
X107653595Y-108720000D01*
X115894935Y-108720000D01*
X115915185Y-109132176D01*
X115975735Y-109540373D01*
X116076007Y-109940676D01*
X116215019Y-110329189D01*
X116215027Y-110329209D01*
X116391466Y-110702257D01*
X116603614Y-111056206D01*
X116849441Y-111387664D01*
X116958478Y-111507967D01*
X118627060Y-109839384D01*
X118706112Y-109942407D01*
X118877593Y-110113888D01*
X118980613Y-110192938D01*
X117312031Y-111861520D01*
X117432335Y-111970558D01*
X117763793Y-112216385D01*
X118117742Y-112428533D01*
X118490790Y-112604972D01*
X118490810Y-112604980D01*
X118879323Y-112743992D01*
X119279626Y-112844264D01*
X119687823Y-112904814D01*
X120100000Y-112925064D01*
X120512176Y-112904814D01*
X120920373Y-112844264D01*
X121320676Y-112743992D01*
X121709189Y-112604980D01*
X121709209Y-112604972D01*
X122082257Y-112428533D01*
X122436206Y-112216385D01*
X122767670Y-111970554D01*
X122887967Y-111861521D01*
X122887967Y-111861519D01*
X121219385Y-110192938D01*
X121322407Y-110113888D01*
X121493888Y-109942407D01*
X121572938Y-109839386D01*
X123241519Y-111507967D01*
X123241521Y-111507967D01*
X123350554Y-111387670D01*
X123596385Y-111056206D01*
X123808533Y-110702257D01*
X123984972Y-110329209D01*
X123984980Y-110329189D01*
X124123992Y-109940676D01*
X124224264Y-109540373D01*
X124284814Y-109132176D01*
X124305064Y-108720000D01*
X124284814Y-108307823D01*
X124224264Y-107899626D01*
X124123992Y-107499323D01*
X123984980Y-107110810D01*
X123984972Y-107110790D01*
X123808533Y-106737742D01*
X123596385Y-106383793D01*
X123350558Y-106052335D01*
X123241520Y-105932031D01*
X121572938Y-107600613D01*
X121493888Y-107497593D01*
X121322407Y-107326112D01*
X121219384Y-107247060D01*
X122887967Y-105578478D01*
X122767664Y-105469441D01*
X122436206Y-105223614D01*
X122082257Y-105011466D01*
X121709209Y-104835027D01*
X121709189Y-104835019D01*
X121320676Y-104696007D01*
X120920373Y-104595735D01*
X120512176Y-104535185D01*
X120100000Y-104514935D01*
X119687823Y-104535185D01*
X119279626Y-104595735D01*
X118879323Y-104696007D01*
X118490810Y-104835019D01*
X118490790Y-104835027D01*
X118117742Y-105011466D01*
X117763793Y-105223614D01*
X117432329Y-105469445D01*
X117312031Y-105578477D01*
X117312031Y-105578478D01*
X118980614Y-107247061D01*
X118877593Y-107326112D01*
X118706112Y-107497593D01*
X118627061Y-107600614D01*
X116958478Y-105932031D01*
X116958477Y-105932031D01*
X116849445Y-106052329D01*
X116603614Y-106383793D01*
X116391466Y-106737742D01*
X116215027Y-107110790D01*
X116215019Y-107110810D01*
X116076007Y-107499323D01*
X115975735Y-107899626D01*
X115915185Y-108307823D01*
X115894935Y-108720000D01*
X107653595Y-108720000D01*
X107634814Y-108337723D01*
X107574264Y-107929526D01*
X107473992Y-107529223D01*
X107334980Y-107140710D01*
X107334972Y-107140690D01*
X107158533Y-106767642D01*
X106946385Y-106413693D01*
X106700558Y-106082235D01*
X106591520Y-105961931D01*
X104922938Y-107630513D01*
X104843888Y-107527493D01*
X104672407Y-107356012D01*
X104569384Y-107276960D01*
X106237967Y-105608378D01*
X106117664Y-105499341D01*
X105786206Y-105253514D01*
X105432257Y-105041366D01*
X105059209Y-104864927D01*
X105059189Y-104864919D01*
X104670676Y-104725907D01*
X104270373Y-104625635D01*
X103862176Y-104565085D01*
X103450000Y-104544835D01*
X103037823Y-104565085D01*
X102629626Y-104625635D01*
X102229323Y-104725907D01*
X101840810Y-104864919D01*
X101840790Y-104864927D01*
X101467742Y-105041366D01*
X101113793Y-105253514D01*
X100782329Y-105499345D01*
X100662031Y-105608377D01*
X100662031Y-105608378D01*
X102330614Y-107276961D01*
X102227593Y-107356012D01*
X102056112Y-107527493D01*
X101977061Y-107630514D01*
X100308478Y-105961931D01*
X100308477Y-105961931D01*
X100199445Y-106082229D01*
X99953614Y-106413693D01*
X99741466Y-106767642D01*
X99565027Y-107140690D01*
X99565019Y-107140710D01*
X99426007Y-107529223D01*
X99325735Y-107929526D01*
X99265185Y-108337723D01*
X99244935Y-108749900D01*
X96520000Y-108749900D01*
X96520000Y-98428135D01*
X98991500Y-98428135D01*
X98991500Y-101723870D01*
X98991501Y-101723876D01*
X98997908Y-101783483D01*
X99048202Y-101918328D01*
X99048206Y-101918335D01*
X99134452Y-102033544D01*
X99134455Y-102033547D01*
X99249664Y-102119793D01*
X99249671Y-102119797D01*
X99384517Y-102170091D01*
X99384516Y-102170091D01*
X99391444Y-102170835D01*
X99444127Y-102176500D01*
X101578282Y-102176499D01*
X101645321Y-102196184D01*
X101665963Y-102212818D01*
X102217617Y-102764472D01*
X102292681Y-102839536D01*
X102346529Y-102893384D01*
X102346532Y-102893386D01*
X102498108Y-102994666D01*
X102498112Y-102994668D01*
X102547442Y-103015101D01*
X102547443Y-103015101D01*
X102666542Y-103064434D01*
X102845341Y-103099999D01*
X102845345Y-103100000D01*
X102845346Y-103100000D01*
X107168000Y-103100000D01*
X107235039Y-103119685D01*
X107280794Y-103172489D01*
X107292000Y-103224000D01*
X107292000Y-103681113D01*
X107298413Y-103751692D01*
X107349022Y-103914106D01*
X107437030Y-104059688D01*
X107557311Y-104179969D01*
X107557313Y-104179970D01*
X107557315Y-104179972D01*
X107702894Y-104267978D01*
X107865304Y-104318586D01*
X107935884Y-104325000D01*
X107935887Y-104325000D01*
X111149113Y-104325000D01*
X111149116Y-104325000D01*
X111219696Y-104318586D01*
X111382106Y-104267978D01*
X111527685Y-104179972D01*
X111647972Y-104059685D01*
X111735978Y-103914106D01*
X111786586Y-103751696D01*
X111793000Y-103681116D01*
X111793000Y-103378986D01*
X114750001Y-103378986D01*
X114760494Y-103481697D01*
X114815641Y-103648119D01*
X114815643Y-103648124D01*
X114907684Y-103797345D01*
X115031654Y-103921315D01*
X115180875Y-104013356D01*
X115180880Y-104013358D01*
X115347302Y-104068505D01*
X115347310Y-104068506D01*
X115431954Y-104077154D01*
X115439263Y-104078999D01*
X115443695Y-104078999D01*
X115456310Y-104079642D01*
X115463462Y-104080373D01*
X115471420Y-104078999D01*
X117624999Y-104078999D01*
X118125000Y-104078999D01*
X120400000Y-104078999D01*
X120900000Y-104078999D01*
X123174999Y-104078999D01*
X123675000Y-104078999D01*
X125849972Y-104078999D01*
X125849986Y-104078998D01*
X125952697Y-104068505D01*
X126119119Y-104013358D01*
X126119124Y-104013356D01*
X126268345Y-103921315D01*
X126392315Y-103797345D01*
X126484356Y-103648124D01*
X126484358Y-103648119D01*
X126539505Y-103481697D01*
X126539506Y-103481690D01*
X126549999Y-103378986D01*
X126550000Y-103378973D01*
X126550000Y-101554000D01*
X123675000Y-101554000D01*
X123675000Y-104078999D01*
X123174999Y-104078999D01*
X123175000Y-104078998D01*
X123175000Y-101554000D01*
X120900000Y-101554000D01*
X120900000Y-104078999D01*
X120400000Y-104078999D01*
X120400000Y-101554000D01*
X118125000Y-101554000D01*
X118125000Y-104078999D01*
X117624999Y-104078999D01*
X117625000Y-104078998D01*
X117625000Y-101554000D01*
X114750001Y-101554000D01*
X114750001Y-103378986D01*
X111793000Y-103378986D01*
X111793000Y-102927217D01*
X111812685Y-102860178D01*
X111829319Y-102839536D01*
X113614855Y-101054000D01*
X114750000Y-101054000D01*
X117625000Y-101054000D01*
X118125000Y-101054000D01*
X120400000Y-101054000D01*
X120900000Y-101054000D01*
X123175000Y-101054000D01*
X123675000Y-101054000D01*
X126549999Y-101054000D01*
X126549999Y-99129000D01*
X123675000Y-99129000D01*
X123675000Y-101054000D01*
X123175000Y-101054000D01*
X123175000Y-99129000D01*
X120900000Y-99129000D01*
X120900000Y-101054000D01*
X120400000Y-101054000D01*
X120400000Y-99129000D01*
X118125000Y-99129000D01*
X118125000Y-101054000D01*
X117625000Y-101054000D01*
X117625000Y-99129000D01*
X114750000Y-99129000D01*
X114750000Y-101054000D01*
X113614855Y-101054000D01*
X113748880Y-100919975D01*
X113748883Y-100919972D01*
X113850167Y-100768389D01*
X113870601Y-100719056D01*
X113919934Y-100599958D01*
X113955500Y-100421154D01*
X113955500Y-100238846D01*
X113955500Y-98629000D01*
X114750000Y-98629000D01*
X117625000Y-98629000D01*
X118125000Y-98629000D01*
X123175000Y-98629000D01*
X123675000Y-98629000D01*
X126549999Y-98629000D01*
X126549999Y-98535113D01*
X126550000Y-98535092D01*
X126550000Y-96704000D01*
X123675000Y-96704000D01*
X123675000Y-98629000D01*
X123175000Y-98629000D01*
X123175000Y-96704000D01*
X118125000Y-96704000D01*
X118125000Y-98629000D01*
X117625000Y-98629000D01*
X117625000Y-96704000D01*
X114750000Y-96704000D01*
X114750000Y-98629000D01*
X113955500Y-98629000D01*
X113955500Y-95176716D01*
X113975185Y-95109677D01*
X113991814Y-95089040D01*
X114538321Y-94542533D01*
X114599642Y-94509050D01*
X114669334Y-94514034D01*
X114725267Y-94555906D01*
X114749684Y-94621370D01*
X114750000Y-94630216D01*
X114750000Y-96204000D01*
X123175000Y-96204000D01*
X123675000Y-96204000D01*
X126549999Y-96204000D01*
X126549999Y-94379028D01*
X126549998Y-94379013D01*
X126539505Y-94276302D01*
X126484358Y-94109880D01*
X126484356Y-94109875D01*
X126392315Y-93960654D01*
X126268345Y-93836684D01*
X126119124Y-93744643D01*
X126119119Y-93744641D01*
X125952697Y-93689494D01*
X125952690Y-93689493D01*
X125849986Y-93679000D01*
X123675000Y-93679000D01*
X123675000Y-96204000D01*
X123175000Y-96204000D01*
X123175000Y-93679000D01*
X122308217Y-93679000D01*
X122241178Y-93659315D01*
X122195423Y-93606511D01*
X122185479Y-93537353D01*
X122214504Y-93473797D01*
X122220536Y-93467319D01*
X123068881Y-92618974D01*
X123068883Y-92618972D01*
X123128666Y-92529500D01*
X123170167Y-92467389D01*
X123170171Y-92467377D01*
X123173037Y-92462018D01*
X123175076Y-92463108D01*
X123212439Y-92416711D01*
X123278726Y-92394624D01*
X123346431Y-92411879D01*
X123348207Y-92412953D01*
X123430666Y-92463814D01*
X123597203Y-92518999D01*
X123699991Y-92529500D01*
X124400008Y-92529499D01*
X124400016Y-92529498D01*
X124400019Y-92529498D01*
X124456302Y-92523748D01*
X124502797Y-92518999D01*
X124669334Y-92463814D01*
X124818656Y-92371712D01*
X124942712Y-92247656D01*
X125034814Y-92098334D01*
X125089999Y-91931797D01*
X125100500Y-91829009D01*
X125100499Y-90038716D01*
X125120184Y-89971678D01*
X125136813Y-89951040D01*
X125432883Y-89654972D01*
X125444326Y-89637846D01*
X125534167Y-89503389D01*
X125554601Y-89454056D01*
X125603934Y-89334958D01*
X125639500Y-89156154D01*
X125639500Y-88973846D01*
X125639500Y-82204846D01*
X125639500Y-78902846D01*
X125639500Y-78902843D01*
X125603934Y-78724047D01*
X125603933Y-78724046D01*
X125603933Y-78724042D01*
X125572160Y-78647334D01*
X125534168Y-78555612D01*
X125534166Y-78555608D01*
X125432886Y-78404032D01*
X125432884Y-78404029D01*
X125386649Y-78357794D01*
X125303972Y-78275117D01*
X124039950Y-77011095D01*
X124006465Y-76949772D01*
X124005398Y-76942825D01*
X124004451Y-76938062D01*
X123956734Y-76784935D01*
X123956733Y-76784931D01*
X123955927Y-76783598D01*
X123955634Y-76782491D01*
X123953655Y-76778092D01*
X123954386Y-76777762D01*
X123938089Y-76716048D01*
X123958939Y-76650556D01*
X124010167Y-76573889D01*
X124079933Y-76405458D01*
X124115500Y-76226654D01*
X124115500Y-74649797D01*
X124135185Y-74582758D01*
X124151820Y-74562115D01*
X124203503Y-74510432D01*
X124281347Y-74399260D01*
X124335782Y-74321518D01*
X124433246Y-74112505D01*
X124492935Y-73889743D01*
X124513035Y-73660000D01*
X124492935Y-73430257D01*
X124433246Y-73207495D01*
X124335782Y-72998483D01*
X124203504Y-72809569D01*
X124203502Y-72809566D01*
X124040432Y-72646496D01*
X123851522Y-72514220D01*
X123851518Y-72514218D01*
X123851516Y-72514217D01*
X123642505Y-72416754D01*
X123642501Y-72416753D01*
X123642497Y-72416751D01*
X123419748Y-72357066D01*
X123419744Y-72357065D01*
X123419743Y-72357065D01*
X123419742Y-72357064D01*
X123419737Y-72357064D01*
X123190002Y-72336965D01*
X123189998Y-72336965D01*
X122960262Y-72357064D01*
X122960251Y-72357066D01*
X122737502Y-72416751D01*
X122737495Y-72416753D01*
X122737495Y-72416754D01*
X122736485Y-72417225D01*
X122528484Y-72514217D01*
X122528482Y-72514218D01*
X122339566Y-72646497D01*
X122176497Y-72809566D01*
X122044218Y-72998482D01*
X122044214Y-72998489D01*
X122032381Y-73023866D01*
X121986208Y-73076305D01*
X121919015Y-73095456D01*
X121852134Y-73075239D01*
X121807619Y-73023866D01*
X121795785Y-72998489D01*
X121795781Y-72998482D01*
X121795780Y-72998481D01*
X121663504Y-72809569D01*
X121663502Y-72809566D01*
X121500432Y-72646496D01*
X121311522Y-72514220D01*
X121311518Y-72514218D01*
X121311516Y-72514217D01*
X121102505Y-72416754D01*
X121102501Y-72416753D01*
X121102497Y-72416751D01*
X120879748Y-72357066D01*
X120879744Y-72357065D01*
X120879743Y-72357065D01*
X120879742Y-72357064D01*
X120879737Y-72357064D01*
X120650002Y-72336965D01*
X120649998Y-72336965D01*
X120420262Y-72357064D01*
X120420251Y-72357066D01*
X120197502Y-72416751D01*
X120197495Y-72416753D01*
X120197495Y-72416754D01*
X120196485Y-72417225D01*
X119988484Y-72514217D01*
X119988482Y-72514218D01*
X119799566Y-72646497D01*
X119636497Y-72809566D01*
X119504219Y-72998481D01*
X119492106Y-73024458D01*
X119445933Y-73076897D01*
X119378739Y-73096048D01*
X119311858Y-73075832D01*
X119267342Y-73024457D01*
X119255350Y-72998740D01*
X119201589Y-72921961D01*
X118629704Y-73493847D01*
X118617859Y-73449638D01*
X118546109Y-73325362D01*
X118444638Y-73223891D01*
X118320362Y-73152141D01*
X118276151Y-73140294D01*
X118848037Y-72568408D01*
X118771264Y-72514651D01*
X118562334Y-72417226D01*
X118562325Y-72417222D01*
X118339660Y-72357560D01*
X118339649Y-72357558D01*
X118110002Y-72337467D01*
X118109998Y-72337467D01*
X117880350Y-72357558D01*
X117880339Y-72357560D01*
X117657674Y-72417222D01*
X117657665Y-72417225D01*
X117448731Y-72514654D01*
X117371961Y-72568407D01*
X117943848Y-73140294D01*
X117899638Y-73152141D01*
X117775362Y-73223891D01*
X117673891Y-73325362D01*
X117602141Y-73449638D01*
X117590294Y-73493848D01*
X117018407Y-72921961D01*
X116964655Y-72998729D01*
X116952382Y-73025050D01*
X116906209Y-73077489D01*
X116839015Y-73096640D01*
X116772134Y-73076424D01*
X116727618Y-73025048D01*
X116715351Y-72998742D01*
X116661589Y-72921961D01*
X116089704Y-73493847D01*
X116077859Y-73449638D01*
X116006109Y-73325362D01*
X115904638Y-73223891D01*
X115780362Y-73152141D01*
X115736151Y-73140294D01*
X116308037Y-72568408D01*
X116231264Y-72514651D01*
X116022334Y-72417226D01*
X116022325Y-72417222D01*
X115799660Y-72357560D01*
X115799649Y-72357558D01*
X115570002Y-72337467D01*
X115569998Y-72337467D01*
X115340350Y-72357558D01*
X115340339Y-72357560D01*
X115117674Y-72417222D01*
X115117665Y-72417225D01*
X114908731Y-72514654D01*
X114831961Y-72568407D01*
X115403848Y-73140294D01*
X115359638Y-73152141D01*
X115235362Y-73223891D01*
X115133891Y-73325362D01*
X115062141Y-73449638D01*
X115050294Y-73493848D01*
X114478407Y-72921961D01*
X114424655Y-72998729D01*
X114412382Y-73025050D01*
X114366209Y-73077489D01*
X114299015Y-73096640D01*
X114232134Y-73076424D01*
X114187618Y-73025048D01*
X114175351Y-72998742D01*
X114121589Y-72921961D01*
X113549704Y-73493847D01*
X113537859Y-73449638D01*
X113466109Y-73325362D01*
X113364638Y-73223891D01*
X113240362Y-73152141D01*
X113196151Y-73140294D01*
X113768037Y-72568408D01*
X113691264Y-72514651D01*
X113482334Y-72417226D01*
X113482325Y-72417222D01*
X113259660Y-72357560D01*
X113259649Y-72357558D01*
X113030002Y-72337467D01*
X113029998Y-72337467D01*
X112800350Y-72357558D01*
X112800339Y-72357560D01*
X112577674Y-72417222D01*
X112577665Y-72417225D01*
X112368731Y-72514654D01*
X112291961Y-72568407D01*
X112863848Y-73140294D01*
X112819638Y-73152141D01*
X112695362Y-73223891D01*
X112593891Y-73325362D01*
X112522141Y-73449638D01*
X112510294Y-73493848D01*
X111938407Y-72921961D01*
X111884655Y-72998729D01*
X111872382Y-73025050D01*
X111826209Y-73077489D01*
X111759015Y-73096640D01*
X111692134Y-73076424D01*
X111647618Y-73025048D01*
X111635351Y-72998742D01*
X111581589Y-72921961D01*
X111009704Y-73493847D01*
X110997859Y-73449638D01*
X110926109Y-73325362D01*
X110824638Y-73223891D01*
X110700362Y-73152141D01*
X110656151Y-73140294D01*
X111228037Y-72568408D01*
X111151264Y-72514651D01*
X110942334Y-72417226D01*
X110942325Y-72417222D01*
X110719660Y-72357560D01*
X110719649Y-72357558D01*
X110490002Y-72337467D01*
X110489998Y-72337467D01*
X110260350Y-72357558D01*
X110260339Y-72357560D01*
X110037674Y-72417222D01*
X110037665Y-72417225D01*
X109828731Y-72514654D01*
X109751961Y-72568407D01*
X110323848Y-73140294D01*
X110279638Y-73152141D01*
X110155362Y-73223891D01*
X110053891Y-73325362D01*
X109982141Y-73449638D01*
X109970294Y-73493848D01*
X109398407Y-72921961D01*
X109344655Y-72998729D01*
X109332382Y-73025050D01*
X109286209Y-73077489D01*
X109219015Y-73096640D01*
X109152134Y-73076424D01*
X109107618Y-73025048D01*
X109095351Y-72998742D01*
X109041589Y-72921961D01*
X108469704Y-73493847D01*
X108457859Y-73449638D01*
X108386109Y-73325362D01*
X108284638Y-73223891D01*
X108160362Y-73152141D01*
X108116151Y-73140294D01*
X108688037Y-72568408D01*
X108611264Y-72514651D01*
X108402334Y-72417226D01*
X108402325Y-72417222D01*
X108179660Y-72357560D01*
X108179649Y-72357558D01*
X107950002Y-72337467D01*
X107949998Y-72337467D01*
X107720350Y-72357558D01*
X107720339Y-72357560D01*
X107497674Y-72417222D01*
X107497665Y-72417225D01*
X107288731Y-72514654D01*
X107211961Y-72568407D01*
X107783848Y-73140294D01*
X107739638Y-73152141D01*
X107615362Y-73223891D01*
X107513891Y-73325362D01*
X107442141Y-73449638D01*
X107430294Y-73493848D01*
X106858407Y-72921961D01*
X106804655Y-72998729D01*
X106792382Y-73025050D01*
X106746209Y-73077489D01*
X106679015Y-73096640D01*
X106612134Y-73076424D01*
X106567618Y-73025048D01*
X106555351Y-72998742D01*
X106501589Y-72921961D01*
X105929704Y-73493847D01*
X105917859Y-73449638D01*
X105846109Y-73325362D01*
X105744638Y-73223891D01*
X105620362Y-73152141D01*
X105576151Y-73140294D01*
X106148037Y-72568408D01*
X106071264Y-72514651D01*
X105862334Y-72417226D01*
X105862325Y-72417222D01*
X105639660Y-72357560D01*
X105639649Y-72357558D01*
X105410002Y-72337467D01*
X105409998Y-72337467D01*
X105180350Y-72357558D01*
X105180339Y-72357560D01*
X104957674Y-72417222D01*
X104957665Y-72417225D01*
X104748731Y-72514654D01*
X104671961Y-72568407D01*
X105243848Y-73140294D01*
X105199638Y-73152141D01*
X105075362Y-73223891D01*
X104973891Y-73325362D01*
X104902141Y-73449638D01*
X104890294Y-73493848D01*
X104318407Y-72921961D01*
X104264655Y-72998729D01*
X104252382Y-73025050D01*
X104206209Y-73077489D01*
X104139015Y-73096640D01*
X104072134Y-73076424D01*
X104027618Y-73025048D01*
X104015351Y-72998742D01*
X103961589Y-72921961D01*
X103389704Y-73493847D01*
X103377859Y-73449638D01*
X103306109Y-73325362D01*
X103204638Y-73223891D01*
X103080362Y-73152141D01*
X103036151Y-73140294D01*
X103608037Y-72568408D01*
X103531264Y-72514651D01*
X103322334Y-72417226D01*
X103322325Y-72417222D01*
X103099660Y-72357560D01*
X103099649Y-72357558D01*
X102870002Y-72337467D01*
X102869998Y-72337467D01*
X102640350Y-72357558D01*
X102640339Y-72357560D01*
X102417674Y-72417222D01*
X102417665Y-72417225D01*
X102208731Y-72514654D01*
X102131961Y-72568407D01*
X102703848Y-73140294D01*
X102659638Y-73152141D01*
X102535362Y-73223891D01*
X102433891Y-73325362D01*
X102362141Y-73449638D01*
X102350294Y-73493848D01*
X101776999Y-72920553D01*
X101713807Y-72907853D01*
X101663624Y-72859237D01*
X101647500Y-72798092D01*
X101647500Y-72794672D01*
X101647499Y-72794655D01*
X101641098Y-72735127D01*
X101641096Y-72735120D01*
X101590854Y-72600413D01*
X101590850Y-72600406D01*
X101504690Y-72485312D01*
X101504687Y-72485309D01*
X101389593Y-72399149D01*
X101389586Y-72399145D01*
X101254879Y-72348903D01*
X101254872Y-72348901D01*
X101195344Y-72342500D01*
X100580000Y-72342500D01*
X100580000Y-73175025D01*
X100540362Y-73152141D01*
X100401751Y-73115000D01*
X100258249Y-73115000D01*
X100119638Y-73152141D01*
X100080000Y-73175025D01*
X100080000Y-72342500D01*
X99464655Y-72342500D01*
X99405127Y-72348901D01*
X99405120Y-72348903D01*
X99270413Y-72399145D01*
X99270406Y-72399149D01*
X99155312Y-72485309D01*
X99155309Y-72485312D01*
X99069149Y-72600406D01*
X99069145Y-72600413D01*
X99018903Y-72735120D01*
X99018901Y-72735127D01*
X99012500Y-72794655D01*
X99012500Y-73410000D01*
X99845026Y-73410000D01*
X99822141Y-73449638D01*
X99785000Y-73588249D01*
X99785000Y-73731751D01*
X99822141Y-73870362D01*
X99845026Y-73910000D01*
X99012500Y-73910000D01*
X99012500Y-74525344D01*
X99018901Y-74584872D01*
X99018903Y-74584879D01*
X99069145Y-74719586D01*
X99069149Y-74719593D01*
X99155309Y-74834687D01*
X99155312Y-74834690D01*
X99270406Y-74920850D01*
X99270413Y-74920854D01*
X99405120Y-74971096D01*
X99405127Y-74971098D01*
X99464655Y-74977499D01*
X99464672Y-74977500D01*
X100080000Y-74977500D01*
X100080000Y-74144974D01*
X100119638Y-74167859D01*
X100258249Y-74205000D01*
X100401751Y-74205000D01*
X100540362Y-74167859D01*
X100580000Y-74144974D01*
X100580000Y-74977500D01*
X101195328Y-74977500D01*
X101195344Y-74977499D01*
X101254872Y-74971098D01*
X101254879Y-74971096D01*
X101389586Y-74920854D01*
X101389593Y-74920850D01*
X101504687Y-74834690D01*
X101504690Y-74834687D01*
X101590850Y-74719593D01*
X101590854Y-74719586D01*
X101641096Y-74584879D01*
X101641098Y-74584872D01*
X101647499Y-74525344D01*
X101647500Y-74525327D01*
X101647500Y-74521906D01*
X101667185Y-74454867D01*
X101719989Y-74409112D01*
X101777185Y-74399260D01*
X102350294Y-73826151D01*
X102362141Y-73870362D01*
X102433891Y-73994638D01*
X102535362Y-74096109D01*
X102659638Y-74167859D01*
X102703848Y-74179705D01*
X102131961Y-74751590D01*
X102208735Y-74805348D01*
X102417665Y-74902773D01*
X102417674Y-74902777D01*
X102640339Y-74962439D01*
X102640350Y-74962441D01*
X102869998Y-74982533D01*
X102870002Y-74982533D01*
X103099649Y-74962441D01*
X103099660Y-74962439D01*
X103322325Y-74902777D01*
X103322334Y-74902773D01*
X103531266Y-74805347D01*
X103531270Y-74805345D01*
X103608037Y-74751591D01*
X103036151Y-74179705D01*
X103080362Y-74167859D01*
X103204638Y-74096109D01*
X103306109Y-73994638D01*
X103377859Y-73870362D01*
X103389705Y-73826151D01*
X103961591Y-74398037D01*
X104015345Y-74321270D01*
X104015349Y-74321262D01*
X104027618Y-74294953D01*
X104073790Y-74242513D01*
X104140984Y-74223361D01*
X104207865Y-74243577D01*
X104252382Y-74294953D01*
X104264650Y-74321262D01*
X104318408Y-74398037D01*
X104890294Y-73826151D01*
X104902141Y-73870362D01*
X104973891Y-73994638D01*
X105075362Y-74096109D01*
X105199638Y-74167859D01*
X105243848Y-74179705D01*
X104671961Y-74751590D01*
X104748735Y-74805348D01*
X104957665Y-74902773D01*
X104957674Y-74902777D01*
X105180339Y-74962439D01*
X105180350Y-74962441D01*
X105409998Y-74982533D01*
X105410002Y-74982533D01*
X105639649Y-74962441D01*
X105639660Y-74962439D01*
X105862325Y-74902777D01*
X105862334Y-74902773D01*
X106071266Y-74805347D01*
X106071270Y-74805345D01*
X106148037Y-74751591D01*
X105576151Y-74179705D01*
X105620362Y-74167859D01*
X105744638Y-74096109D01*
X105846109Y-73994638D01*
X105917859Y-73870362D01*
X105929705Y-73826151D01*
X106501591Y-74398037D01*
X106555345Y-74321270D01*
X106555349Y-74321262D01*
X106567618Y-74294953D01*
X106613790Y-74242513D01*
X106680984Y-74223361D01*
X106747865Y-74243577D01*
X106792382Y-74294953D01*
X106804650Y-74321262D01*
X106858408Y-74398037D01*
X107430294Y-73826151D01*
X107442141Y-73870362D01*
X107513891Y-73994638D01*
X107615362Y-74096109D01*
X107739638Y-74167859D01*
X107783848Y-74179705D01*
X107211961Y-74751590D01*
X107288735Y-74805348D01*
X107497665Y-74902773D01*
X107497674Y-74902777D01*
X107720339Y-74962439D01*
X107720350Y-74962441D01*
X107949998Y-74982533D01*
X107950002Y-74982533D01*
X108179649Y-74962441D01*
X108179660Y-74962439D01*
X108402325Y-74902777D01*
X108402334Y-74902773D01*
X108611266Y-74805347D01*
X108611270Y-74805345D01*
X108688037Y-74751591D01*
X108116151Y-74179705D01*
X108160362Y-74167859D01*
X108284638Y-74096109D01*
X108386109Y-73994638D01*
X108457859Y-73870362D01*
X108469705Y-73826151D01*
X109041591Y-74398037D01*
X109095345Y-74321270D01*
X109095349Y-74321262D01*
X109107618Y-74294953D01*
X109153790Y-74242513D01*
X109220984Y-74223361D01*
X109287865Y-74243577D01*
X109332382Y-74294953D01*
X109344650Y-74321262D01*
X109398408Y-74398037D01*
X109970294Y-73826151D01*
X109982141Y-73870362D01*
X110053891Y-73994638D01*
X110155362Y-74096109D01*
X110279638Y-74167859D01*
X110323848Y-74179705D01*
X109751961Y-74751590D01*
X109828735Y-74805348D01*
X110037665Y-74902773D01*
X110037674Y-74902777D01*
X110260339Y-74962439D01*
X110260350Y-74962441D01*
X110489998Y-74982533D01*
X110490002Y-74982533D01*
X110719649Y-74962441D01*
X110719660Y-74962439D01*
X110942325Y-74902777D01*
X110942334Y-74902773D01*
X111151266Y-74805347D01*
X111151270Y-74805345D01*
X111228037Y-74751591D01*
X110656151Y-74179705D01*
X110700362Y-74167859D01*
X110824638Y-74096109D01*
X110926109Y-73994638D01*
X110997859Y-73870362D01*
X111009705Y-73826151D01*
X111581591Y-74398037D01*
X111635345Y-74321270D01*
X111635349Y-74321262D01*
X111647618Y-74294953D01*
X111693790Y-74242513D01*
X111760984Y-74223361D01*
X111827865Y-74243577D01*
X111872382Y-74294953D01*
X111884650Y-74321262D01*
X111938408Y-74398037D01*
X112510294Y-73826151D01*
X112522141Y-73870362D01*
X112593891Y-73994638D01*
X112695362Y-74096109D01*
X112819638Y-74167859D01*
X112863848Y-74179705D01*
X112291961Y-74751590D01*
X112368735Y-74805348D01*
X112577665Y-74902773D01*
X112577674Y-74902777D01*
X112800339Y-74962439D01*
X112800350Y-74962441D01*
X113029998Y-74982533D01*
X113030002Y-74982533D01*
X113259649Y-74962441D01*
X113259660Y-74962439D01*
X113482325Y-74902777D01*
X113482334Y-74902773D01*
X113691266Y-74805347D01*
X113691270Y-74805345D01*
X113768037Y-74751591D01*
X113196151Y-74179705D01*
X113240362Y-74167859D01*
X113364638Y-74096109D01*
X113466109Y-73994638D01*
X113537859Y-73870362D01*
X113549705Y-73826151D01*
X114121591Y-74398037D01*
X114175345Y-74321270D01*
X114175349Y-74321262D01*
X114187618Y-74294953D01*
X114233790Y-74242513D01*
X114300984Y-74223361D01*
X114367865Y-74243577D01*
X114412382Y-74294953D01*
X114424650Y-74321262D01*
X114478408Y-74398037D01*
X115050294Y-73826151D01*
X115062141Y-73870362D01*
X115133891Y-73994638D01*
X115235362Y-74096109D01*
X115359638Y-74167859D01*
X115403848Y-74179705D01*
X114831961Y-74751590D01*
X114908735Y-74805348D01*
X115117665Y-74902773D01*
X115117674Y-74902777D01*
X115340339Y-74962439D01*
X115340350Y-74962441D01*
X115569998Y-74982533D01*
X115570002Y-74982533D01*
X115799649Y-74962441D01*
X115799660Y-74962439D01*
X116022325Y-74902777D01*
X116022334Y-74902773D01*
X116231266Y-74805347D01*
X116231270Y-74805345D01*
X116308037Y-74751591D01*
X115736151Y-74179705D01*
X115780362Y-74167859D01*
X115904638Y-74096109D01*
X116006109Y-73994638D01*
X116077859Y-73870362D01*
X116089705Y-73826151D01*
X116661591Y-74398037D01*
X116715345Y-74321270D01*
X116715349Y-74321262D01*
X116727618Y-74294953D01*
X116773790Y-74242513D01*
X116840984Y-74223361D01*
X116907865Y-74243577D01*
X116952382Y-74294953D01*
X116964650Y-74321262D01*
X117018408Y-74398037D01*
X117590294Y-73826151D01*
X117602141Y-73870362D01*
X117673891Y-73994638D01*
X117775362Y-74096109D01*
X117899638Y-74167859D01*
X117943848Y-74179705D01*
X117371961Y-74751590D01*
X117448735Y-74805348D01*
X117657665Y-74902773D01*
X117657674Y-74902777D01*
X117880339Y-74962439D01*
X117880350Y-74962441D01*
X118109998Y-74982533D01*
X118110002Y-74982533D01*
X118339649Y-74962441D01*
X118339660Y-74962439D01*
X118562325Y-74902777D01*
X118562334Y-74902773D01*
X118771266Y-74805347D01*
X118771270Y-74805345D01*
X118848037Y-74751591D01*
X118276151Y-74179705D01*
X118320362Y-74167859D01*
X118444638Y-74096109D01*
X118546109Y-73994638D01*
X118617859Y-73870362D01*
X118629705Y-73826151D01*
X119201591Y-74398037D01*
X119255345Y-74321270D01*
X119255346Y-74321267D01*
X119267341Y-74295545D01*
X119313513Y-74243105D01*
X119380706Y-74223952D01*
X119447588Y-74244167D01*
X119492105Y-74295542D01*
X119504099Y-74321262D01*
X119504218Y-74321518D01*
X119504220Y-74321522D01*
X119636496Y-74510432D01*
X119799567Y-74673503D01*
X119988477Y-74805779D01*
X119988479Y-74805780D01*
X119988482Y-74805782D01*
X120197495Y-74903246D01*
X120420257Y-74962935D01*
X120584359Y-74977292D01*
X120649998Y-74983035D01*
X120650000Y-74983035D01*
X120650002Y-74983035D01*
X120713276Y-74977499D01*
X120879743Y-74962935D01*
X121102505Y-74903246D01*
X121311518Y-74805782D01*
X121500431Y-74673504D01*
X121663504Y-74510431D01*
X121795782Y-74321518D01*
X121807618Y-74296134D01*
X121853789Y-74243696D01*
X121920982Y-74224543D01*
X121987864Y-74244758D01*
X122032381Y-74296134D01*
X122044218Y-74321518D01*
X122044219Y-74321519D01*
X122044220Y-74321522D01*
X122176496Y-74510432D01*
X122228180Y-74562115D01*
X122261666Y-74623438D01*
X122264500Y-74649797D01*
X122264500Y-76226654D01*
X122264500Y-76226656D01*
X122264499Y-76226656D01*
X122300065Y-76405452D01*
X122300067Y-76405458D01*
X122369831Y-76573885D01*
X122369836Y-76573894D01*
X122421059Y-76650554D01*
X122441937Y-76717232D01*
X122425643Y-76777776D01*
X122426345Y-76778092D01*
X122424387Y-76782441D01*
X122424080Y-76783584D01*
X122423270Y-76784924D01*
X122423265Y-76784933D01*
X122375548Y-76938065D01*
X122369500Y-77004621D01*
X122369500Y-77007749D01*
X122360061Y-77055201D01*
X122300068Y-77200037D01*
X122300067Y-77200041D01*
X122300067Y-77200042D01*
X122294765Y-77226692D01*
X122262382Y-77288601D01*
X122201667Y-77323176D01*
X122173149Y-77326500D01*
X115500230Y-77326500D01*
X115433191Y-77306815D01*
X115412549Y-77290181D01*
X115335657Y-77213289D01*
X115335656Y-77213288D01*
X115186334Y-77121186D01*
X115019797Y-77066001D01*
X115019795Y-77066000D01*
X114917010Y-77055500D01*
X112666998Y-77055500D01*
X112666981Y-77055501D01*
X112564203Y-77066000D01*
X112564200Y-77066001D01*
X112397668Y-77121185D01*
X112397663Y-77121187D01*
X112248345Y-77213287D01*
X112168988Y-77292644D01*
X112107664Y-77326128D01*
X112037973Y-77321144D01*
X111993626Y-77292643D01*
X111950038Y-77249055D01*
X111950034Y-77249052D01*
X111803311Y-77158551D01*
X111803300Y-77158546D01*
X111639652Y-77104319D01*
X111538654Y-77094000D01*
X111502000Y-77094000D01*
X111502000Y-77995000D01*
X111482315Y-78062039D01*
X111429511Y-78107794D01*
X111378000Y-78119000D01*
X111252000Y-78119000D01*
X111252000Y-78245000D01*
X111232315Y-78312039D01*
X111179511Y-78357794D01*
X111128000Y-78369000D01*
X110277001Y-78369000D01*
X110277001Y-78455654D01*
X110287319Y-78556652D01*
X110341546Y-78720300D01*
X110341551Y-78720311D01*
X110432052Y-78867034D01*
X110432055Y-78867038D01*
X110470982Y-78905965D01*
X110504467Y-78967288D01*
X110499483Y-79036980D01*
X110470983Y-79081326D01*
X110431661Y-79120648D01*
X110341093Y-79267481D01*
X110341091Y-79267486D01*
X110327445Y-79308668D01*
X110286826Y-79431247D01*
X110286826Y-79431248D01*
X110286825Y-79431248D01*
X110276500Y-79532315D01*
X110276500Y-80205669D01*
X110276501Y-80205687D01*
X110286825Y-80306752D01*
X110310438Y-80378009D01*
X110341092Y-80470516D01*
X110431660Y-80617350D01*
X110553650Y-80739340D01*
X110700484Y-80829908D01*
X110864247Y-80884174D01*
X110965323Y-80894500D01*
X111538676Y-80894499D01*
X111538684Y-80894498D01*
X111538687Y-80894498D01*
X111594030Y-80888844D01*
X111639753Y-80884174D01*
X111803498Y-80829913D01*
X111873324Y-80827512D01*
X111933366Y-80863243D01*
X111964559Y-80925764D01*
X111966500Y-80947620D01*
X111966500Y-81756001D01*
X111966501Y-81756019D01*
X111977000Y-81858791D01*
X111977001Y-81858799D01*
X112032185Y-82025331D01*
X112032187Y-82025336D01*
X112052796Y-82058749D01*
X112124288Y-82174656D01*
X112248344Y-82298712D01*
X112397666Y-82390814D01*
X112564203Y-82445999D01*
X112666991Y-82456500D01*
X114917008Y-82456499D01*
X115019797Y-82445999D01*
X115186334Y-82390814D01*
X115335656Y-82298712D01*
X115459712Y-82174656D01*
X115495461Y-82116696D01*
X115547409Y-82069972D01*
X115616371Y-82058749D01*
X115680453Y-82086592D01*
X115719310Y-82144661D01*
X115725000Y-82181793D01*
X115725000Y-82808000D01*
X117750000Y-82808000D01*
X118250000Y-82808000D01*
X120275000Y-82808000D01*
X120275000Y-82085172D01*
X120274999Y-82085155D01*
X120268598Y-82025627D01*
X120268596Y-82025620D01*
X120218354Y-81890913D01*
X120218350Y-81890906D01*
X120132190Y-81775812D01*
X120132187Y-81775809D01*
X120017093Y-81689649D01*
X120017086Y-81689645D01*
X119882379Y-81639403D01*
X119882372Y-81639401D01*
X119822844Y-81633000D01*
X118250000Y-81633000D01*
X118250000Y-82808000D01*
X117750000Y-82808000D01*
X117750000Y-81633000D01*
X116177155Y-81633000D01*
X116117627Y-81639401D01*
X116117620Y-81639403D01*
X115982913Y-81689645D01*
X115982906Y-81689649D01*
X115867813Y-81775809D01*
X115840764Y-81811940D01*
X115784829Y-81853809D01*
X115715137Y-81858791D01*
X115653815Y-81825304D01*
X115620332Y-81763980D01*
X115617499Y-81737635D01*
X115617499Y-80855992D01*
X115614834Y-80829908D01*
X115606999Y-80753203D01*
X115606998Y-80753200D01*
X115571916Y-80647331D01*
X115551814Y-80586666D01*
X115459712Y-80437344D01*
X115335656Y-80313288D01*
X115186334Y-80221186D01*
X115019797Y-80166001D01*
X115019795Y-80166000D01*
X114917016Y-80155500D01*
X114917009Y-80155500D01*
X113577452Y-80155500D01*
X113510413Y-80135815D01*
X113489771Y-80119181D01*
X112938770Y-79568180D01*
X112905285Y-79506857D01*
X112910269Y-79437165D01*
X112952141Y-79381232D01*
X113017605Y-79356815D01*
X113026451Y-79356499D01*
X114917002Y-79356499D01*
X114917008Y-79356499D01*
X115019797Y-79345999D01*
X115186334Y-79290814D01*
X115335656Y-79198712D01*
X115459712Y-79074656D01*
X115551814Y-78925334D01*
X115606999Y-78758797D01*
X115614140Y-78688897D01*
X115640536Y-78624206D01*
X115697717Y-78584054D01*
X115737498Y-78577500D01*
X122769607Y-78577500D01*
X122830029Y-78565481D01*
X122887299Y-78554090D01*
X122956891Y-78560317D01*
X122999171Y-78588026D01*
X123752181Y-79341036D01*
X123785666Y-79402359D01*
X123788500Y-79428717D01*
X123788500Y-81508500D01*
X123768815Y-81575539D01*
X123716011Y-81621294D01*
X123664500Y-81632500D01*
X121477129Y-81632500D01*
X121477123Y-81632501D01*
X121417516Y-81638908D01*
X121282671Y-81689202D01*
X121282664Y-81689206D01*
X121167455Y-81775452D01*
X121167452Y-81775455D01*
X121081206Y-81890664D01*
X121081202Y-81890671D01*
X121030908Y-82025517D01*
X121024501Y-82085116D01*
X121024500Y-82085135D01*
X121024500Y-84030870D01*
X121024501Y-84030876D01*
X121030908Y-84090483D01*
X121081202Y-84225328D01*
X121081206Y-84225335D01*
X121167452Y-84340544D01*
X121167455Y-84340547D01*
X121282664Y-84426793D01*
X121282671Y-84426797D01*
X121417517Y-84477091D01*
X121417516Y-84477091D01*
X121424444Y-84477835D01*
X121477127Y-84483500D01*
X123664500Y-84483499D01*
X123731539Y-84503184D01*
X123777294Y-84555987D01*
X123788500Y-84607499D01*
X123788500Y-86807481D01*
X123768815Y-86874520D01*
X123716011Y-86920275D01*
X123677102Y-86930839D01*
X123597202Y-86939001D01*
X123597200Y-86939001D01*
X123430668Y-86994185D01*
X123430663Y-86994187D01*
X123281342Y-87086289D01*
X123276909Y-87089795D01*
X123212113Y-87115934D01*
X123143471Y-87102892D01*
X123123091Y-87089795D01*
X123118657Y-87086289D01*
X123118656Y-87086288D01*
X122970946Y-86995180D01*
X122969336Y-86994187D01*
X122969331Y-86994185D01*
X122958527Y-86990605D01*
X122802797Y-86939001D01*
X122802795Y-86939000D01*
X122700010Y-86928500D01*
X121999998Y-86928500D01*
X121999980Y-86928501D01*
X121897203Y-86939000D01*
X121897200Y-86939001D01*
X121730668Y-86994185D01*
X121730663Y-86994187D01*
X121651559Y-87042979D01*
X121581344Y-87086288D01*
X121581343Y-87086288D01*
X121581330Y-87086297D01*
X121576487Y-87090126D01*
X121511687Y-87116256D01*
X121443047Y-87103204D01*
X121422683Y-87090114D01*
X121418346Y-87086684D01*
X121269124Y-86994643D01*
X121269119Y-86994641D01*
X121102697Y-86939494D01*
X121102690Y-86939493D01*
X120999986Y-86929000D01*
X120900000Y-86929000D01*
X120900000Y-89605000D01*
X120880315Y-89672039D01*
X120827511Y-89717794D01*
X120776000Y-89729000D01*
X120524000Y-89729000D01*
X120456961Y-89709315D01*
X120411206Y-89656511D01*
X120400000Y-89605000D01*
X120400000Y-86928999D01*
X120300028Y-86929000D01*
X120300012Y-86929001D01*
X120197302Y-86939494D01*
X120030880Y-86994641D01*
X120030871Y-86994645D01*
X119948484Y-87045462D01*
X119881091Y-87063902D01*
X119814428Y-87042979D01*
X119774536Y-86995180D01*
X119773037Y-86995982D01*
X119770163Y-86990605D01*
X119668883Y-86839028D01*
X119668880Y-86839025D01*
X118216975Y-85387119D01*
X118216967Y-85387113D01*
X118065391Y-85285833D01*
X118065387Y-85285831D01*
X117896962Y-85216068D01*
X117896952Y-85216065D01*
X117718156Y-85180500D01*
X117718154Y-85180500D01*
X117008288Y-85180500D01*
X117008268Y-85180499D01*
X117002154Y-85180499D01*
X116819846Y-85180499D01*
X116819844Y-85180499D01*
X116641047Y-85216064D01*
X116641041Y-85216066D01*
X116539497Y-85258128D01*
X116539496Y-85258128D01*
X116472612Y-85285831D01*
X116472608Y-85285833D01*
X116321032Y-85387113D01*
X116321029Y-85387115D01*
X116256573Y-85451571D01*
X116192117Y-85516028D01*
X110420464Y-91287681D01*
X110359141Y-91321166D01*
X110332783Y-91324000D01*
X109378849Y-91324000D01*
X109311810Y-91304315D01*
X109266055Y-91251511D01*
X109254849Y-91200000D01*
X109254849Y-87479466D01*
X109274534Y-87412427D01*
X109327338Y-87366672D01*
X109335505Y-87363288D01*
X109371680Y-87349796D01*
X109486895Y-87263546D01*
X109573145Y-87148331D01*
X109623440Y-87013483D01*
X109629849Y-86953873D01*
X109629848Y-86105997D01*
X110524383Y-86105997D01*
X110524383Y-86106002D01*
X110544207Y-86332599D01*
X110544209Y-86332610D01*
X110603079Y-86552317D01*
X110603084Y-86552331D01*
X110699212Y-86758478D01*
X110750323Y-86831472D01*
X111429349Y-86152446D01*
X111429349Y-86158661D01*
X111456608Y-86260394D01*
X111509269Y-86351606D01*
X111583743Y-86426080D01*
X111674955Y-86478741D01*
X111776688Y-86506000D01*
X111782902Y-86506000D01*
X111103875Y-87185025D01*
X111176862Y-87236132D01*
X111176870Y-87236136D01*
X111383017Y-87332264D01*
X111383031Y-87332269D01*
X111602738Y-87391139D01*
X111602749Y-87391141D01*
X111829347Y-87410966D01*
X111829351Y-87410966D01*
X112055948Y-87391141D01*
X112055959Y-87391139D01*
X112275666Y-87332269D01*
X112275680Y-87332264D01*
X112481827Y-87236136D01*
X112554820Y-87185024D01*
X111875796Y-86506000D01*
X111882010Y-86506000D01*
X111983743Y-86478741D01*
X112074955Y-86426080D01*
X112149429Y-86351606D01*
X112202090Y-86260394D01*
X112229349Y-86158661D01*
X112229349Y-86152447D01*
X112908373Y-86831471D01*
X112959485Y-86758478D01*
X113055613Y-86552331D01*
X113055618Y-86552317D01*
X113114488Y-86332610D01*
X113114490Y-86332599D01*
X113134315Y-86106002D01*
X113134315Y-86105997D01*
X113114490Y-85879400D01*
X113114488Y-85879389D01*
X113055618Y-85659682D01*
X113055613Y-85659668D01*
X112959485Y-85453521D01*
X112959481Y-85453513D01*
X112908374Y-85380526D01*
X112229349Y-86059551D01*
X112229349Y-86053339D01*
X112202090Y-85951606D01*
X112149429Y-85860394D01*
X112074955Y-85785920D01*
X111983743Y-85733259D01*
X111882010Y-85706000D01*
X111875794Y-85706000D01*
X112554821Y-85026974D01*
X112481827Y-84975863D01*
X112275680Y-84879735D01*
X112275666Y-84879730D01*
X112055959Y-84820860D01*
X112055948Y-84820858D01*
X111829351Y-84801034D01*
X111829347Y-84801034D01*
X111602749Y-84820858D01*
X111602738Y-84820860D01*
X111383031Y-84879730D01*
X111383022Y-84879734D01*
X111176865Y-84975866D01*
X111176861Y-84975868D01*
X111103875Y-85026973D01*
X111103875Y-85026974D01*
X111782902Y-85706000D01*
X111776688Y-85706000D01*
X111674955Y-85733259D01*
X111583743Y-85785920D01*
X111509269Y-85860394D01*
X111456608Y-85951606D01*
X111429349Y-86053339D01*
X111429349Y-86059552D01*
X110750323Y-85380526D01*
X110750322Y-85380526D01*
X110699217Y-85453512D01*
X110699215Y-85453516D01*
X110603083Y-85659673D01*
X110603079Y-85659682D01*
X110544209Y-85879389D01*
X110544207Y-85879400D01*
X110524383Y-86105997D01*
X109629848Y-86105997D01*
X109629848Y-85258128D01*
X109623440Y-85198517D01*
X109575264Y-85069351D01*
X109573146Y-85063671D01*
X109573142Y-85063664D01*
X109486896Y-84948455D01*
X109486893Y-84948452D01*
X109371684Y-84862206D01*
X109371677Y-84862202D01*
X109236831Y-84811908D01*
X109236832Y-84811908D01*
X109177232Y-84805501D01*
X109177230Y-84805500D01*
X109177222Y-84805500D01*
X109177214Y-84805500D01*
X109053849Y-84805500D01*
X108986810Y-84785815D01*
X108941055Y-84733011D01*
X108929849Y-84681500D01*
X108929849Y-84030844D01*
X115725000Y-84030844D01*
X115731401Y-84090372D01*
X115731403Y-84090379D01*
X115781645Y-84225086D01*
X115781649Y-84225093D01*
X115867809Y-84340187D01*
X115867812Y-84340190D01*
X115982906Y-84426350D01*
X115982913Y-84426354D01*
X116117620Y-84476596D01*
X116117627Y-84476598D01*
X116177155Y-84482999D01*
X116177172Y-84483000D01*
X117750000Y-84483000D01*
X118250000Y-84483000D01*
X119822828Y-84483000D01*
X119822844Y-84482999D01*
X119882372Y-84476598D01*
X119882379Y-84476596D01*
X120017086Y-84426354D01*
X120017093Y-84426350D01*
X120132187Y-84340190D01*
X120132190Y-84340187D01*
X120218350Y-84225093D01*
X120218354Y-84225086D01*
X120268596Y-84090379D01*
X120268598Y-84090372D01*
X120274999Y-84030844D01*
X120275000Y-84030827D01*
X120275000Y-83308000D01*
X118250000Y-83308000D01*
X118250000Y-84483000D01*
X117750000Y-84483000D01*
X117750000Y-83308000D01*
X115725000Y-83308000D01*
X115725000Y-84030844D01*
X108929849Y-84030844D01*
X108929849Y-80910881D01*
X108949534Y-80843842D01*
X108966168Y-80823200D01*
X108992712Y-80796656D01*
X109084814Y-80647334D01*
X109139999Y-80480797D01*
X109150500Y-80378009D01*
X109150499Y-79577992D01*
X109143232Y-79506857D01*
X109139999Y-79475203D01*
X109139998Y-79475200D01*
X109100664Y-79356498D01*
X109084814Y-79308666D01*
X108992712Y-79159344D01*
X108899049Y-79065681D01*
X108865564Y-79004358D01*
X108870548Y-78934666D01*
X108899049Y-78890319D01*
X108945868Y-78843500D01*
X108992712Y-78796656D01*
X109084814Y-78647334D01*
X109139999Y-78480797D01*
X109150500Y-78378009D01*
X109150499Y-77782345D01*
X110277000Y-77782345D01*
X110277000Y-77869000D01*
X111002000Y-77869000D01*
X111002000Y-77094000D01*
X110965361Y-77094000D01*
X110965343Y-77094001D01*
X110864347Y-77104319D01*
X110700699Y-77158546D01*
X110700688Y-77158551D01*
X110553965Y-77249052D01*
X110553961Y-77249055D01*
X110432055Y-77370961D01*
X110432052Y-77370965D01*
X110341551Y-77517688D01*
X110341546Y-77517699D01*
X110287319Y-77681347D01*
X110277000Y-77782345D01*
X109150499Y-77782345D01*
X109150499Y-77577992D01*
X109139999Y-77475203D01*
X109084814Y-77308666D01*
X108992712Y-77159344D01*
X108868656Y-77035288D01*
X108745441Y-76959289D01*
X108719336Y-76943187D01*
X108719331Y-76943185D01*
X108703871Y-76938062D01*
X108552797Y-76888001D01*
X108552795Y-76888000D01*
X108450010Y-76877500D01*
X107449998Y-76877500D01*
X107449980Y-76877501D01*
X107347203Y-76888000D01*
X107347200Y-76888001D01*
X107180668Y-76943185D01*
X107180663Y-76943187D01*
X107031342Y-77035289D01*
X107020178Y-77046454D01*
X106958853Y-77079937D01*
X106889162Y-77074950D01*
X106844818Y-77046452D01*
X106802985Y-77004619D01*
X106757655Y-76959289D01*
X106757652Y-76959287D01*
X106757651Y-76959286D01*
X106608337Y-76867187D01*
X106608335Y-76867186D01*
X106525065Y-76839593D01*
X106441797Y-76812001D01*
X106441795Y-76812000D01*
X106339015Y-76801500D01*
X106339008Y-76801500D01*
X104988992Y-76801500D01*
X104988984Y-76801500D01*
X104886204Y-76812000D01*
X104886203Y-76812001D01*
X104719664Y-76867186D01*
X104719662Y-76867187D01*
X104570348Y-76959286D01*
X104570344Y-76959289D01*
X104446289Y-77083344D01*
X104446286Y-77083348D01*
X104354187Y-77232662D01*
X104354186Y-77232664D01*
X104299001Y-77399203D01*
X104299000Y-77399204D01*
X104288500Y-77501984D01*
X104288500Y-78527015D01*
X104299000Y-78629795D01*
X104299001Y-78629797D01*
X104307687Y-78656009D01*
X104354186Y-78796335D01*
X104354187Y-78796337D01*
X104446286Y-78945651D01*
X104446289Y-78945655D01*
X104570344Y-79069710D01*
X104570348Y-79069713D01*
X104719662Y-79161812D01*
X104719664Y-79161813D01*
X104719666Y-79161814D01*
X104886203Y-79216999D01*
X104988992Y-79227500D01*
X104988997Y-79227500D01*
X106339003Y-79227500D01*
X106339008Y-79227500D01*
X106441797Y-79216999D01*
X106608334Y-79161814D01*
X106643112Y-79140362D01*
X106710502Y-79121921D01*
X106777166Y-79142842D01*
X106821937Y-79196483D01*
X106830600Y-79265814D01*
X106817236Y-79301650D01*
X106818240Y-79302118D01*
X106815185Y-79308668D01*
X106802815Y-79345998D01*
X106760001Y-79475203D01*
X106760001Y-79475204D01*
X106760000Y-79475204D01*
X106749500Y-79577983D01*
X106749500Y-79717770D01*
X106729815Y-79784809D01*
X106677011Y-79830564D01*
X106607853Y-79840508D01*
X106586497Y-79835476D01*
X106441699Y-79787495D01*
X106441689Y-79787493D01*
X106338985Y-79777000D01*
X105914000Y-79777000D01*
X105914000Y-82202000D01*
X106338973Y-82202000D01*
X106338985Y-82201999D01*
X106441689Y-82191506D01*
X106441696Y-82191505D01*
X106608118Y-82136358D01*
X106608123Y-82136356D01*
X106757344Y-82044315D01*
X106881315Y-81920344D01*
X106973356Y-81771123D01*
X106973358Y-81771118D01*
X107028505Y-81604696D01*
X107028506Y-81604689D01*
X107038999Y-81501985D01*
X107039000Y-81501972D01*
X107039000Y-81137590D01*
X107058685Y-81070551D01*
X107111489Y-81024796D01*
X107180647Y-81014852D01*
X107201996Y-81019882D01*
X107347203Y-81067999D01*
X107449991Y-81078500D01*
X107604849Y-81078499D01*
X107671888Y-81098183D01*
X107717643Y-81150987D01*
X107728849Y-81202499D01*
X107728849Y-84681500D01*
X107709164Y-84748539D01*
X107656360Y-84794294D01*
X107604850Y-84805500D01*
X107481479Y-84805500D01*
X107481472Y-84805501D01*
X107421865Y-84811908D01*
X107287020Y-84862202D01*
X107287013Y-84862206D01*
X107171804Y-84948452D01*
X107171801Y-84948455D01*
X107085555Y-85063664D01*
X107085551Y-85063671D01*
X107035257Y-85198517D01*
X107028850Y-85258116D01*
X107028849Y-85258128D01*
X107028849Y-86953870D01*
X107028850Y-86953876D01*
X107035257Y-87013483D01*
X107085551Y-87148328D01*
X107085555Y-87148335D01*
X107171801Y-87263544D01*
X107171804Y-87263547D01*
X107287013Y-87349793D01*
X107287018Y-87349796D01*
X107323181Y-87363284D01*
X107379115Y-87405154D01*
X107403533Y-87470618D01*
X107403849Y-87479466D01*
X107403849Y-91609631D01*
X107385966Y-91673780D01*
X107349023Y-91734891D01*
X107298413Y-91897307D01*
X107292000Y-91967886D01*
X107292000Y-94981113D01*
X107298413Y-95051692D01*
X107349022Y-95214106D01*
X107437030Y-95359688D01*
X107557311Y-95479969D01*
X107557313Y-95479970D01*
X107557315Y-95479972D01*
X107702894Y-95567978D01*
X107865304Y-95618586D01*
X107935884Y-95625000D01*
X107935887Y-95625000D01*
X111149113Y-95625000D01*
X111149116Y-95625000D01*
X111219696Y-95618586D01*
X111382106Y-95567978D01*
X111527685Y-95479972D01*
X111647972Y-95359685D01*
X111735978Y-95214106D01*
X111786586Y-95051696D01*
X111793000Y-94981116D01*
X111793000Y-92584215D01*
X111812685Y-92517176D01*
X111829314Y-92496539D01*
X115988319Y-88337533D01*
X116049642Y-88304049D01*
X116119334Y-88309033D01*
X116175267Y-88350905D01*
X116199684Y-88416369D01*
X116200000Y-88425215D01*
X116200000Y-89479000D01*
X117126000Y-89479000D01*
X117193039Y-89498685D01*
X117238794Y-89551489D01*
X117250000Y-89603000D01*
X117250000Y-89855000D01*
X117230315Y-89922039D01*
X117177511Y-89967794D01*
X117126000Y-89979000D01*
X116200001Y-89979000D01*
X116200001Y-91828986D01*
X116210494Y-91931697D01*
X116265641Y-92098119D01*
X116265644Y-92098126D01*
X116268899Y-92103402D01*
X116287340Y-92170794D01*
X116266418Y-92237458D01*
X116212777Y-92282228D01*
X116163361Y-92292500D01*
X114462844Y-92292500D01*
X114284047Y-92328065D01*
X114284037Y-92328068D01*
X114115617Y-92397829D01*
X114115604Y-92397836D01*
X114011514Y-92467388D01*
X113964025Y-92499118D01*
X113964022Y-92499121D01*
X112803830Y-93659315D01*
X112440028Y-94023117D01*
X112375571Y-94087573D01*
X112311115Y-94152029D01*
X112311113Y-94152032D01*
X112209833Y-94303608D01*
X112209831Y-94303612D01*
X112140068Y-94472037D01*
X112140065Y-94472047D01*
X112104500Y-94650843D01*
X112104500Y-99895282D01*
X112084815Y-99962321D01*
X112068181Y-99982963D01*
X111792582Y-100258562D01*
X111731259Y-100292047D01*
X111661567Y-100287063D01*
X111617220Y-100258562D01*
X111527688Y-100169030D01*
X111382106Y-100081022D01*
X111219696Y-100030414D01*
X111219694Y-100030413D01*
X111219692Y-100030413D01*
X111170278Y-100025923D01*
X111149116Y-100024000D01*
X107935884Y-100024000D01*
X107916645Y-100025748D01*
X107865307Y-100030413D01*
X107702893Y-100081022D01*
X107557311Y-100169030D01*
X107437030Y-100289311D01*
X107349022Y-100434893D01*
X107298413Y-100597307D01*
X107292000Y-100667886D01*
X107292000Y-101125000D01*
X107272315Y-101192039D01*
X107219511Y-101237794D01*
X107168000Y-101249000D01*
X103371217Y-101249000D01*
X103304178Y-101229315D01*
X103283536Y-101212681D01*
X103228818Y-101157963D01*
X103195333Y-101096640D01*
X103192499Y-101070282D01*
X103192499Y-98428129D01*
X103192498Y-98428123D01*
X103192497Y-98428116D01*
X103186091Y-98368517D01*
X103135796Y-98233669D01*
X103135795Y-98233668D01*
X103135793Y-98233664D01*
X103049547Y-98118455D01*
X103049544Y-98118452D01*
X102934335Y-98032206D01*
X102934328Y-98032202D01*
X102799482Y-97981908D01*
X102799483Y-97981908D01*
X102739883Y-97975501D01*
X102739881Y-97975500D01*
X102739873Y-97975500D01*
X102739864Y-97975500D01*
X99444129Y-97975500D01*
X99444123Y-97975501D01*
X99384516Y-97981908D01*
X99249671Y-98032202D01*
X99249664Y-98032206D01*
X99134455Y-98118452D01*
X99134452Y-98118455D01*
X99048206Y-98233664D01*
X99048202Y-98233671D01*
X98997908Y-98368517D01*
X98991501Y-98428116D01*
X98991501Y-98428123D01*
X98991500Y-98428135D01*
X96520000Y-98428135D01*
X96520000Y-84585999D01*
X99004192Y-84585999D01*
X99004193Y-84586000D01*
X100329639Y-84586000D01*
X100322743Y-84602649D01*
X100292000Y-84757207D01*
X100292000Y-84914793D01*
X100322743Y-85069351D01*
X100329639Y-85086000D01*
X99004193Y-85086000D01*
X99006697Y-85122619D01*
X99065146Y-85403888D01*
X99065150Y-85403902D01*
X99161355Y-85674595D01*
X99293527Y-85929676D01*
X99459204Y-86164385D01*
X99459204Y-86164386D01*
X99655288Y-86374341D01*
X99878135Y-86555641D01*
X99878146Y-86555648D01*
X100123607Y-86704917D01*
X100387108Y-86819371D01*
X100663737Y-86896879D01*
X100663746Y-86896881D01*
X100841999Y-86921380D01*
X100842000Y-86921380D01*
X100842000Y-85598360D01*
X100858649Y-85605257D01*
X101013207Y-85636000D01*
X101170793Y-85636000D01*
X101325351Y-85605257D01*
X101342000Y-85598360D01*
X101342000Y-86921380D01*
X101520253Y-86896881D01*
X101520262Y-86896879D01*
X101796891Y-86819371D01*
X102060392Y-86704917D01*
X102305853Y-86555648D01*
X102305864Y-86555641D01*
X102528711Y-86374341D01*
X102724795Y-86164386D01*
X102724795Y-86164385D01*
X102890472Y-85929676D01*
X103022644Y-85674595D01*
X103118849Y-85403902D01*
X103118853Y-85403888D01*
X103177302Y-85122619D01*
X103179807Y-85086000D01*
X101854361Y-85086000D01*
X101861257Y-85069351D01*
X101892000Y-84914793D01*
X101892000Y-84757207D01*
X101861257Y-84602649D01*
X101854361Y-84586000D01*
X103179807Y-84586000D01*
X103179807Y-84585999D01*
X103177302Y-84549380D01*
X103118853Y-84268111D01*
X103118849Y-84268097D01*
X103022644Y-83997404D01*
X102890472Y-83742323D01*
X102724795Y-83507614D01*
X102724795Y-83507613D01*
X102528711Y-83297658D01*
X102305864Y-83116358D01*
X102305853Y-83116351D01*
X102060392Y-82967082D01*
X101796891Y-82852628D01*
X101520262Y-82775120D01*
X101520255Y-82775119D01*
X101342000Y-82750618D01*
X101342000Y-84073639D01*
X101325351Y-84066743D01*
X101170793Y-84036000D01*
X101013207Y-84036000D01*
X100858649Y-84066743D01*
X100842000Y-84073639D01*
X100842000Y-82750618D01*
X100663744Y-82775119D01*
X100663737Y-82775120D01*
X100387108Y-82852628D01*
X100123607Y-82967082D01*
X99878146Y-83116351D01*
X99878135Y-83116358D01*
X99655288Y-83297658D01*
X99459204Y-83507613D01*
X99459204Y-83507614D01*
X99293527Y-83742323D01*
X99161355Y-83997404D01*
X99065150Y-84268097D01*
X99065146Y-84268111D01*
X99006697Y-84549380D01*
X99004192Y-84585999D01*
X96520000Y-84585999D01*
X96520000Y-81501985D01*
X104289000Y-81501985D01*
X104299493Y-81604689D01*
X104299494Y-81604696D01*
X104354641Y-81771118D01*
X104354643Y-81771123D01*
X104446684Y-81920344D01*
X104570655Y-82044315D01*
X104719876Y-82136356D01*
X104719881Y-82136358D01*
X104886303Y-82191505D01*
X104886310Y-82191506D01*
X104989014Y-82201999D01*
X104989027Y-82202000D01*
X105414000Y-82202000D01*
X105414000Y-81239500D01*
X104289000Y-81239500D01*
X104289000Y-81501985D01*
X96520000Y-81501985D01*
X96520000Y-80477014D01*
X104289000Y-80477014D01*
X104289000Y-80739500D01*
X105414000Y-80739500D01*
X105414000Y-79777000D01*
X104989014Y-79777000D01*
X104886310Y-79787493D01*
X104886303Y-79787494D01*
X104719881Y-79842641D01*
X104719876Y-79842643D01*
X104570655Y-79934684D01*
X104446684Y-80058655D01*
X104354643Y-80207876D01*
X104354641Y-80207881D01*
X104299494Y-80374303D01*
X104299493Y-80374310D01*
X104289000Y-80477014D01*
X96520000Y-80477014D01*
X96520000Y-69974000D01*
X96539685Y-69906961D01*
X96592489Y-69861206D01*
X96644000Y-69850000D01*
X126875946Y-69850000D01*
X126942985Y-69869685D01*
G37*
%TD.AperFunction*%
%TD*%
M02*
