%TF.GenerationSoftware,KiCad,Pcbnew,8.0.7*%
%TF.CreationDate,2025-03-15T22:48:53-07:00*%
%TF.ProjectId,launchController_noTemp,6c61756e-6368-4436-9f6e-74726f6c6c65,rev?*%
%TF.SameCoordinates,Original*%
%TF.FileFunction,Copper,L4,Bot*%
%TF.FilePolarity,Positive*%
%FSLAX46Y46*%
G04 Gerber Fmt 4.6, Leading zero omitted, Abs format (unit mm)*
G04 Created by KiCad (PCBNEW 8.0.7) date 2025-03-15 22:48:53*
%MOMM*%
%LPD*%
G01*
G04 APERTURE LIST*
%TA.AperFunction,ComponentPad*%
%ADD10R,1.700000X1.700000*%
%TD*%
%TA.AperFunction,ComponentPad*%
%ADD11O,1.700000X1.700000*%
%TD*%
%TA.AperFunction,ComponentPad*%
%ADD12C,5.500000*%
%TD*%
%TA.AperFunction,ComponentPad*%
%ADD13C,1.600000*%
%TD*%
%TA.AperFunction,ComponentPad*%
%ADD14O,1.600000X1.600000*%
%TD*%
%TA.AperFunction,ComponentPad*%
%ADD15C,7.400000*%
%TD*%
%TA.AperFunction,ComponentPad*%
%ADD16C,4.000000*%
%TD*%
%TA.AperFunction,ComponentPad*%
%ADD17R,1.600000X1.600000*%
%TD*%
%TA.AperFunction,ComponentPad*%
%ADD18R,1.635000X1.635000*%
%TD*%
%TA.AperFunction,ComponentPad*%
%ADD19C,1.635000*%
%TD*%
%TA.AperFunction,ComponentPad*%
%ADD20C,1.778000*%
%TD*%
%TA.AperFunction,ComponentPad*%
%ADD21C,3.200000*%
%TD*%
%TA.AperFunction,ComponentPad*%
%ADD22R,1.750000X1.750000*%
%TD*%
%TA.AperFunction,ComponentPad*%
%ADD23C,1.750000*%
%TD*%
%TA.AperFunction,ViaPad*%
%ADD24C,0.600000*%
%TD*%
%TA.AperFunction,ViaPad*%
%ADD25C,1.000000*%
%TD*%
%TA.AperFunction,ViaPad*%
%ADD26C,1.600000*%
%TD*%
%TA.AperFunction,ViaPad*%
%ADD27C,2.000000*%
%TD*%
%TA.AperFunction,ViaPad*%
%ADD28C,1.700000*%
%TD*%
%TA.AperFunction,Conductor*%
%ADD29C,0.800000*%
%TD*%
%TA.AperFunction,Conductor*%
%ADD30C,0.300000*%
%TD*%
%TA.AperFunction,Conductor*%
%ADD31C,0.850000*%
%TD*%
%TA.AperFunction,Conductor*%
%ADD32C,0.400000*%
%TD*%
%TA.AperFunction,Conductor*%
%ADD33C,0.500000*%
%TD*%
%TA.AperFunction,Conductor*%
%ADD34C,0.200000*%
%TD*%
%TA.AperFunction,Conductor*%
%ADD35C,0.600000*%
%TD*%
%TA.AperFunction,Conductor*%
%ADD36C,0.700000*%
%TD*%
%TA.AperFunction,Conductor*%
%ADD37C,0.760000*%
%TD*%
G04 APERTURE END LIST*
D10*
%TO.P,J2,1,Pin_1*%
%TO.N,/+24V_switched*%
X143281753Y-182500000D03*
D11*
%TO.P,J2,2,Pin_2*%
%TO.N,/+5V*%
X140741753Y-182500000D03*
%TO.P,J2,3,Pin_3*%
%TO.N,/GPIO 17*%
X138201753Y-182500000D03*
%TO.P,J2,4,Pin_4*%
%TO.N,GND*%
X135661753Y-182500000D03*
%TO.P,J2,5,Pin_5*%
%TO.N,/RelayOut2*%
X133121753Y-182500000D03*
%TD*%
D10*
%TO.P,J8,1,Pin_1*%
%TO.N,/+24V_switched*%
X259692271Y-182500000D03*
D11*
%TO.P,J8,2,Pin_2*%
%TO.N,/+5V*%
X257152271Y-182500000D03*
%TO.P,J8,3,Pin_3*%
%TO.N,/GPIO 5*%
X254612271Y-182500000D03*
%TO.P,J8,4,Pin_4*%
%TO.N,GND*%
X252072271Y-182500000D03*
%TO.P,J8,5,Pin_5*%
%TO.N,/RelayOut8*%
X249532271Y-182500000D03*
%TD*%
D12*
%TO.P,POWER1,1,Pin_1*%
%TO.N,/+24V*%
X109365000Y-106260000D03*
%TO.P,POWER1,2,Pin_2*%
%TO.N,GND*%
X109365000Y-113110000D03*
%TO.P,POWER1,3,Pin_3*%
X109365000Y-119960000D03*
%TD*%
D13*
%TO.P,C15,1*%
%TO.N,/+24V_switched*%
X115540000Y-159610000D03*
D14*
%TO.P,C15,2*%
%TO.N,GND*%
X115540000Y-152110000D03*
%TD*%
D10*
%TO.P,J6,1,Pin_1*%
%TO.N,/+24V_switched*%
X220888765Y-182500000D03*
D11*
%TO.P,J6,2,Pin_2*%
%TO.N,/+5V*%
X218348765Y-182500000D03*
%TO.P,J6,3,Pin_3*%
%TO.N,/GPIO 9*%
X215808765Y-182500000D03*
%TO.P,J6,4,Pin_4*%
%TO.N,GND*%
X213268765Y-182500000D03*
%TO.P,J6,5,Pin_5*%
%TO.N,/RelayOut6*%
X210728765Y-182500000D03*
%TD*%
D15*
%TO.P,H1,1,1*%
%TO.N,GND*%
X308990000Y-88910000D03*
%TD*%
D12*
%TO.P,RELAY_ARM1,1,Pin_1*%
%TO.N,/+24V*%
X109365000Y-147060000D03*
%TO.P,RELAY_ARM1,2,Pin_2*%
%TO.N,GND*%
X109365000Y-153910000D03*
%TO.P,RELAY_ARM1,3,Pin_3*%
%TO.N,/+24V_switched*%
X109365000Y-160760000D03*
%TD*%
D16*
%TO.P,J13,0*%
%TO.N,N/C*%
X297915000Y-92960000D03*
X264615000Y-92960000D03*
D17*
%TO.P,J13,1,Pin_1*%
%TO.N,/guarded_RelayOut9*%
X272640000Y-94380000D03*
D13*
%TO.P,J13,2,Pin_2*%
%TO.N,/guarded_RelayOut8*%
X274930000Y-94380000D03*
%TO.P,J13,3,Pin_3*%
%TO.N,/guarded_RelayOut7*%
X277220000Y-94380000D03*
%TO.P,J13,4,Pin_4*%
%TO.N,/guarded_RelayOut6*%
X279510000Y-94380000D03*
%TO.P,J13,5,Pin_5*%
%TO.N,/guarded_RelayOut5*%
X281800000Y-94380000D03*
%TO.P,J13,6,Pin_6*%
%TO.N,/guarded_RelayOut4*%
X284090000Y-94380000D03*
%TO.P,J13,7,Pin_7*%
%TO.N,/guarded_RelayOut3*%
X286380000Y-94380000D03*
%TO.P,J13,8,Pin_8*%
%TO.N,/guarded_RelayOut2*%
X288670000Y-94380000D03*
%TO.P,J13,9,Pin_9*%
%TO.N,/guarded_RelayOut1*%
X290960000Y-94380000D03*
%TO.P,J13,10,Pin_10*%
%TO.N,/guarded_RelayOut10*%
X271495000Y-92400000D03*
%TO.P,J13,11,Pin_11*%
%TO.N,GND*%
X273785000Y-92400000D03*
%TO.P,J13,12,Pin_12*%
X276075000Y-92400000D03*
%TO.P,J13,13,Pin_13*%
X278365000Y-92400000D03*
%TO.P,J13,14,Pin_14*%
X280655000Y-92400000D03*
%TO.P,J13,15,Pin_15*%
X282945000Y-92400000D03*
%TO.P,J13,16,Pin_16*%
X285235000Y-92400000D03*
%TO.P,J13,17,Pin_17*%
X287525000Y-92400000D03*
%TO.P,J13,18,Pin_18*%
X289815000Y-92400000D03*
%TO.P,J13,19,Pin_19*%
X272640000Y-90420000D03*
%TO.P,J13,20,Pin_20*%
X274930000Y-90420000D03*
%TO.P,J13,21,Pin_21*%
%TO.N,/PressureSwitch_in3*%
X277220000Y-90420000D03*
%TO.P,J13,22,Pin_22*%
%TO.N,/+24V_guarded*%
X279510000Y-90420000D03*
%TO.P,J13,23,Pin_23*%
%TO.N,/PressureSwitch_in2*%
X281800000Y-90420000D03*
%TO.P,J13,24,Pin_24*%
%TO.N,/+24V_guarded*%
X284090000Y-90420000D03*
%TO.P,J13,25,Pin_25*%
%TO.N,/PressureSwitch_in1*%
X286380000Y-90420000D03*
%TO.P,J13,26,Pin_26*%
%TO.N,/+24V_guarded*%
X288670000Y-90420000D03*
%TD*%
D10*
%TO.P,J5,1,Pin_1*%
%TO.N,/+24V_switched*%
X201487012Y-182500000D03*
D11*
%TO.P,J5,2,Pin_2*%
%TO.N,/+5V*%
X198947012Y-182500000D03*
%TO.P,J5,3,Pin_3*%
%TO.N,/GPIO 10*%
X196407012Y-182500000D03*
%TO.P,J5,4,Pin_4*%
%TO.N,GND*%
X193867012Y-182500000D03*
%TO.P,J5,5,Pin_5*%
%TO.N,/RelayOut5*%
X191327012Y-182500000D03*
%TD*%
D16*
%TO.P,J17,0*%
%TO.N,N/C*%
X166385000Y-91170331D03*
X119285000Y-91170331D03*
D17*
%TO.P,J17,1,1*%
%TO.N,GND*%
X126215000Y-92590331D03*
D13*
%TO.P,J17,2,2*%
%TO.N,/A8*%
X128985000Y-92590331D03*
%TO.P,J17,3,3*%
%TO.N,GND*%
X131755000Y-92590331D03*
%TO.P,J17,4,4*%
%TO.N,/A7*%
X134525000Y-92590331D03*
%TO.P,J17,5,5*%
%TO.N,/A6*%
X137295000Y-92590331D03*
%TO.P,J17,6,6*%
%TO.N,GND*%
X140065000Y-92590331D03*
%TO.P,J17,7,7*%
%TO.N,/A5*%
X142835000Y-92590331D03*
%TO.P,J17,8,8*%
%TO.N,/A4*%
X145605000Y-92590331D03*
%TO.P,J17,9,9*%
%TO.N,GND*%
X148375000Y-92590331D03*
%TO.P,J17,10,10*%
%TO.N,/A3*%
X151145000Y-92590331D03*
%TO.P,J17,11,11*%
%TO.N,/A2*%
X153915000Y-92590331D03*
%TO.P,J17,12,12*%
%TO.N,GND*%
X156685000Y-92590331D03*
%TO.P,J17,13,13*%
%TO.N,/A1*%
X159455000Y-92590331D03*
%TO.P,J17,14,P14*%
%TO.N,GND*%
X127600000Y-89750331D03*
%TO.P,J17,15,P15*%
%TO.N,/+5V*%
X130370000Y-89750331D03*
%TO.P,J17,16,P16*%
X133140000Y-89750331D03*
%TO.P,J17,17,P17*%
%TO.N,GND*%
X135910000Y-89750331D03*
%TO.P,J17,18,P18*%
%TO.N,/+5V*%
X138680000Y-89750331D03*
%TO.P,J17,19,P19*%
X141450000Y-89750331D03*
%TO.P,J17,20,P20*%
%TO.N,GND*%
X144220000Y-89750331D03*
%TO.P,J17,21,P21*%
%TO.N,/+5V*%
X146990000Y-89750331D03*
%TO.P,J17,22,P22*%
X149760000Y-89750331D03*
%TO.P,J17,23,P23*%
%TO.N,GND*%
X152530000Y-89750331D03*
%TO.P,J17,24,P24*%
%TO.N,/+5V*%
X155300000Y-89750331D03*
%TO.P,J17,25,P25*%
X158070000Y-89750331D03*
%TD*%
D18*
%TO.P,J12,1,Pin_1*%
%TO.N,GND*%
X199110000Y-85920000D03*
D19*
%TO.P,J12,2,Pin_2*%
X196570000Y-85920000D03*
%TO.P,J12,3,Pin_3*%
X194030000Y-85920000D03*
%TO.P,J12,4,Pin_4*%
X191490000Y-85920000D03*
%TO.P,J12,5,Pin_5*%
X188950000Y-85920000D03*
%TO.P,J12,6,Pin_6*%
X186410000Y-85920000D03*
%TO.P,J12,7,Pin_7*%
X183870000Y-85920000D03*
%TO.P,J12,8,Pin_8*%
X181330000Y-85920000D03*
%TO.P,J12,9,Pin_9*%
%TO.N,/+5V*%
X178790000Y-85920000D03*
%TO.P,J12,10,Pin_10*%
%TO.N,/+24V*%
X176250000Y-85920000D03*
%TD*%
D17*
%TO.P,C1,1*%
%TO.N,/+24V*%
X116257621Y-101960000D03*
D13*
%TO.P,C1,2*%
%TO.N,GND*%
X118757621Y-101960000D03*
%TD*%
D20*
%TO.P,U2,1,Vin*%
%TO.N,/+5V*%
X128693000Y-115247000D03*
%TO.P,U2,2,GND*%
%TO.N,GND*%
X131233000Y-115247000D03*
%TO.P,U2,3,SCL*%
%TO.N,/SCLB*%
X133773000Y-115247000D03*
%TO.P,U2,4,SDA*%
%TO.N,/SDAB*%
X136313000Y-115247000D03*
%TO.P,U2,5,ADDR*%
%TO.N,GND*%
X138853000Y-115247000D03*
%TO.P,U2,6,ALERT/RDY*%
%TO.N,unconnected-(U2-ALERT{slash}RDY-Pad6)*%
X141393000Y-115247000D03*
%TO.P,U2,7,A+*%
%TO.N,unconnected-(U2-A+-Pad7)*%
X128693000Y-102547000D03*
%TO.P,U2,8,AIN3*%
%TO.N,/A8*%
X131233000Y-102547000D03*
%TO.P,U2,9,AIN2*%
%TO.N,/A7*%
X133773000Y-102547000D03*
%TO.P,U2,10,AIN1*%
%TO.N,/A6*%
X136313000Y-102547000D03*
%TO.P,U2,11,AIN0*%
%TO.N,/A5*%
X138853000Y-102547000D03*
%TO.P,U2,12,A-*%
%TO.N,unconnected-(U2-A--Pad12)*%
X141393000Y-102547000D03*
D21*
%TO.P,U2,P$1*%
%TO.N,N/C*%
X124883000Y-102547000D03*
X124883000Y-115247000D03*
X145203000Y-102547000D03*
X145203000Y-115247000D03*
%TD*%
D15*
%TO.P,H4,1,1*%
%TO.N,GND*%
X102990000Y-182110000D03*
%TD*%
%TO.P,H3,1,1*%
%TO.N,GND*%
X102990000Y-88910000D03*
%TD*%
D10*
%TO.P,J9,1,Pin_1*%
%TO.N,/+24V_switched*%
X279094024Y-182500000D03*
D11*
%TO.P,J9,2,Pin_2*%
%TO.N,/+5V*%
X276554024Y-182500000D03*
%TO.P,J9,3,Pin_3*%
%TO.N,/GPIO 6*%
X274014024Y-182500000D03*
%TO.P,J9,4,Pin_4*%
%TO.N,GND*%
X271474024Y-182500000D03*
%TO.P,J9,5,Pin_5*%
%TO.N,/RelayOut9*%
X268934024Y-182500000D03*
%TD*%
D16*
%TO.P,J16,0*%
%TO.N,N/C*%
X256325000Y-91180000D03*
X209225000Y-91180000D03*
D17*
%TO.P,J16,1,1*%
%TO.N,GND*%
X216155000Y-92600000D03*
D13*
%TO.P,J16,2,2*%
X218925000Y-92600000D03*
%TO.P,J16,3,3*%
X221695000Y-92600000D03*
%TO.P,J16,4,4*%
%TO.N,Net-(J16-Pad4)*%
X224465000Y-92600000D03*
%TO.P,J16,5,5*%
%TO.N,Net-(J16-Pad5)*%
X227235000Y-92600000D03*
%TO.P,J16,6,6*%
%TO.N,Net-(J16-Pad6)*%
X230005000Y-92600000D03*
%TO.P,J16,7,7*%
%TO.N,Net-(J16-Pad7)*%
X232775000Y-92600000D03*
%TO.P,J16,8,8*%
%TO.N,Net-(J16-Pad8)*%
X235545000Y-92600000D03*
%TO.P,J16,9,9*%
%TO.N,Net-(J16-Pad9)*%
X238315000Y-92600000D03*
%TO.P,J16,10,10*%
%TO.N,Net-(J16-Pad10)*%
X241085000Y-92600000D03*
%TO.P,J16,11,11*%
%TO.N,Net-(J16-Pad11)*%
X243855000Y-92600000D03*
%TO.P,J16,12,12*%
%TO.N,Net-(J16-Pad12)*%
X246625000Y-92600000D03*
%TO.P,J16,13,13*%
%TO.N,Net-(J16-Pad13)*%
X249395000Y-92600000D03*
%TO.P,J16,14,P14*%
%TO.N,GND*%
X217540000Y-89760000D03*
%TO.P,J16,15,P15*%
X220310000Y-89760000D03*
%TO.P,J16,16,P16*%
X223080000Y-89760000D03*
%TO.P,J16,17,P17*%
X225850000Y-89760000D03*
%TO.P,J16,18,P18*%
X228620000Y-89760000D03*
%TO.P,J16,19,P19*%
X231390000Y-89760000D03*
%TO.P,J16,20,P20*%
X234160000Y-89760000D03*
%TO.P,J16,21,P21*%
X236930000Y-89760000D03*
%TO.P,J16,22,P22*%
X239700000Y-89760000D03*
%TO.P,J16,23,P23*%
X242470000Y-89760000D03*
%TO.P,J16,24,P24*%
X245240000Y-89760000D03*
%TO.P,J16,25,P25*%
X248010000Y-89760000D03*
%TD*%
D20*
%TO.P,U1,1,Vin*%
%TO.N,/+5V*%
X155540000Y-115260000D03*
%TO.P,U1,2,GND*%
%TO.N,GND*%
X158080000Y-115260000D03*
%TO.P,U1,3,SCL*%
%TO.N,/SCLB*%
X160620000Y-115260000D03*
%TO.P,U1,4,SDA*%
%TO.N,/SDAB*%
X163160000Y-115260000D03*
%TO.P,U1,5,ADDR*%
%TO.N,/+5V*%
X165700000Y-115260000D03*
%TO.P,U1,6,ALERT/RDY*%
%TO.N,unconnected-(U1-ALERT{slash}RDY-Pad6)*%
X168240000Y-115260000D03*
%TO.P,U1,7,A+*%
%TO.N,unconnected-(U1-A+-Pad7)*%
X155540000Y-102560000D03*
%TO.P,U1,8,AIN3*%
%TO.N,/A4*%
X158080000Y-102560000D03*
%TO.P,U1,9,AIN2*%
%TO.N,/A3*%
X160620000Y-102560000D03*
%TO.P,U1,10,AIN1*%
%TO.N,/A2*%
X163160000Y-102560000D03*
%TO.P,U1,11,AIN0*%
%TO.N,/A1*%
X165700000Y-102560000D03*
%TO.P,U1,12,A-*%
%TO.N,unconnected-(U1-A--Pad12)*%
X168240000Y-102560000D03*
D21*
%TO.P,U1,P$1*%
%TO.N,N/C*%
X151730000Y-102560000D03*
X151730000Y-115260000D03*
X172050000Y-102560000D03*
X172050000Y-115260000D03*
%TD*%
D10*
%TO.P,J1,1,Pin_1*%
%TO.N,/+24V_switched*%
X123880000Y-182500000D03*
D11*
%TO.P,J1,2,Pin_2*%
%TO.N,/+5V*%
X121340000Y-182500000D03*
%TO.P,J1,3,Pin_3*%
%TO.N,/GPIO 4*%
X118800000Y-182500000D03*
%TO.P,J1,4,Pin_4*%
%TO.N,GND*%
X116260000Y-182500000D03*
%TO.P,J1,5,Pin_5*%
%TO.N,/RelayOut1*%
X113720000Y-182500000D03*
%TD*%
D10*
%TO.P,J10,1,Pin_1*%
%TO.N,/+24V_switched*%
X298495777Y-182500000D03*
D11*
%TO.P,J10,2,Pin_2*%
%TO.N,/+5V*%
X295955777Y-182500000D03*
%TO.P,J10,3,Pin_3*%
%TO.N,/GPIO 13*%
X293415777Y-182500000D03*
%TO.P,J10,4,Pin_4*%
%TO.N,GND*%
X290875777Y-182500000D03*
%TO.P,J10,5,Pin_5*%
%TO.N,/RelayOut10*%
X288335777Y-182500000D03*
%TD*%
D15*
%TO.P,H2,1,1*%
%TO.N,GND*%
X308990000Y-182110000D03*
%TD*%
D16*
%TO.P,J14,0*%
%TO.N,N/C*%
X306529669Y-151505000D03*
X306529669Y-104405000D03*
D17*
%TO.P,J14,1,1*%
%TO.N,GND*%
X305109669Y-111335000D03*
D13*
%TO.P,J14,2,2*%
%TO.N,/PressureSwitch_in1*%
X305109669Y-114105000D03*
%TO.P,J14,3,3*%
%TO.N,/PressureSwitch_in2*%
X305109669Y-116875000D03*
%TO.P,J14,4,4*%
%TO.N,/RelayOut1*%
X305109669Y-119645000D03*
%TO.P,J14,5,5*%
%TO.N,/RelayOut2*%
X305109669Y-122415000D03*
%TO.P,J14,6,6*%
%TO.N,/RelayOut3*%
X305109669Y-125185000D03*
%TO.P,J14,7,7*%
%TO.N,/RelayOut4*%
X305109669Y-127955000D03*
%TO.P,J14,8,8*%
%TO.N,/RelayOut5*%
X305109669Y-130725000D03*
%TO.P,J14,9,9*%
%TO.N,/RelayOut6*%
X305109669Y-133495000D03*
%TO.P,J14,10,10*%
%TO.N,/RelayOut7*%
X305109669Y-136265000D03*
%TO.P,J14,11,11*%
%TO.N,/RelayOut8*%
X305109669Y-139035000D03*
%TO.P,J14,12,12*%
%TO.N,/RelayOut9*%
X305109669Y-141805000D03*
%TO.P,J14,13,13*%
%TO.N,/RelayOut10*%
X305109669Y-144575000D03*
%TO.P,J14,14,P14*%
%TO.N,/+24V_guarded*%
X307949669Y-112720000D03*
%TO.P,J14,15,P15*%
%TO.N,/PressureSwitch_in3*%
X307949669Y-115490000D03*
%TO.P,J14,16,P16*%
%TO.N,/guarded_RelayOut1*%
X307949669Y-118260000D03*
%TO.P,J14,17,P17*%
%TO.N,/guarded_RelayOut2*%
X307949669Y-121030000D03*
%TO.P,J14,18,P18*%
%TO.N,/guarded_RelayOut3*%
X307949669Y-123800000D03*
%TO.P,J14,19,P19*%
%TO.N,/guarded_RelayOut4*%
X307949669Y-126570000D03*
%TO.P,J14,20,P20*%
%TO.N,/guarded_RelayOut5*%
X307949669Y-129340000D03*
%TO.P,J14,21,P21*%
%TO.N,/guarded_RelayOut6*%
X307949669Y-132110000D03*
%TO.P,J14,22,P22*%
%TO.N,/guarded_RelayOut7*%
X307949669Y-134880000D03*
%TO.P,J14,23,P23*%
%TO.N,/guarded_RelayOut8*%
X307949669Y-137650000D03*
%TO.P,J14,24,P24*%
%TO.N,/guarded_RelayOut9*%
X307949669Y-140420000D03*
%TO.P,J14,25,P25*%
%TO.N,/guarded_RelayOut10*%
X307949669Y-143190000D03*
%TD*%
D10*
%TO.P,J4,1,Pin_1*%
%TO.N,/+24V_switched*%
X182085259Y-182500000D03*
D11*
%TO.P,J4,2,Pin_2*%
%TO.N,/+5V*%
X179545259Y-182500000D03*
%TO.P,J4,3,Pin_3*%
%TO.N,/GPIO 22*%
X177005259Y-182500000D03*
%TO.P,J4,4,Pin_4*%
%TO.N,GND*%
X174465259Y-182500000D03*
%TO.P,J4,5,Pin_5*%
%TO.N,/RelayOut4*%
X171925259Y-182500000D03*
%TD*%
D10*
%TO.P,J7,1,Pin_1*%
%TO.N,/+24V_switched*%
X240290518Y-182500000D03*
D11*
%TO.P,J7,2,Pin_2*%
%TO.N,/+5V*%
X237750518Y-182500000D03*
%TO.P,J7,3,Pin_3*%
%TO.N,/GPIO 11*%
X235210518Y-182500000D03*
%TO.P,J7,4,Pin_4*%
%TO.N,GND*%
X232670518Y-182500000D03*
%TO.P,J7,5,Pin_5*%
%TO.N,/RelayOut7*%
X230130518Y-182500000D03*
%TD*%
D22*
%TO.P,J11,1,3V3*%
%TO.N,/+3.3V*%
X186010000Y-152990000D03*
D23*
%TO.P,J11,2,5V*%
%TO.N,/+5V*%
X186010000Y-155530000D03*
%TO.P,J11,3,SDA_I2C1/GPIO02*%
%TO.N,/SDAA*%
X188550000Y-152990000D03*
%TO.P,J11,4,5V*%
%TO.N,/+5V*%
X188550000Y-155530000D03*
%TO.P,J11,5,SCL_I2C1/GPIO03*%
%TO.N,/SCLA*%
X191090000Y-152990000D03*
%TO.P,J11,6,GND*%
%TO.N,GND*%
X191090000Y-155530000D03*
%TO.P,J11,7,GPCLK0/GPIO04*%
%TO.N,/GPIO 4*%
X193630000Y-152990000D03*
%TO.P,J11,8,GPIO14/UART_TXD*%
%TO.N,unconnected-(J11-GPIO14{slash}UART_TXD-Pad8)*%
X193630000Y-155530000D03*
%TO.P,J11,9,GND*%
%TO.N,GND*%
X196170000Y-152990000D03*
%TO.P,J11,10,GPIO15/UART_RXD*%
%TO.N,unconnected-(J11-GPIO15{slash}UART_RXD-Pad10)*%
X196170000Y-155530000D03*
%TO.P,J11,11,GPIO17/SPI1_~{CE1}*%
%TO.N,/GPIO 17*%
X198710000Y-152990000D03*
%TO.P,J11,12,GPIO18/SPI1_~{CE0}/PCM_CLK/PWM0*%
%TO.N,unconnected-(J11-GPIO18{slash}SPI1_~{CE0}{slash}PCM_CLK{slash}PWM0-Pad12)*%
X198710000Y-155530000D03*
%TO.P,J11,13,GPIO27/SDIO_DAT3*%
%TO.N,/GPIO 27*%
X201250000Y-152990000D03*
%TO.P,J11,14,GND*%
%TO.N,GND*%
X201250000Y-155530000D03*
%TO.P,J11,15,GPIO22/SDIO_CLK*%
%TO.N,/GPIO 22*%
X203790000Y-152990000D03*
%TO.P,J11,16,GPIO23/SDIO_CMD*%
%TO.N,unconnected-(J11-GPIO23{slash}SDIO_CMD-Pad16)*%
X203790000Y-155530000D03*
%TO.P,J11,17,3V3*%
%TO.N,/+3.3V*%
X206330000Y-152990000D03*
%TO.P,J11,18,GPIO24/SDIO_DAT0*%
%TO.N,unconnected-(J11-GPIO24{slash}SDIO_DAT0-Pad18)*%
X206330000Y-155530000D03*
%TO.P,J11,19,MOSI_SPI0/GPIO10*%
%TO.N,/GPIO 10*%
X208870000Y-152990000D03*
%TO.P,J11,20,GND*%
%TO.N,GND*%
X208870000Y-155530000D03*
%TO.P,J11,21,MISO_SPI0/GPIO09*%
%TO.N,/GPIO 9*%
X211410000Y-152990000D03*
%TO.P,J11,22,GPIO25/SDIO_DAT1*%
%TO.N,unconnected-(J11-GPIO25{slash}SDIO_DAT1-Pad22)*%
X211410000Y-155530000D03*
%TO.P,J11,23,SCLK_SPI0/GPIO11*%
%TO.N,/GPIO 11*%
X213950000Y-152990000D03*
%TO.P,J11,24,~{CE0}_SPI0/GPIO08*%
%TO.N,unconnected-(J11-~{CE0}_SPI0{slash}GPIO08-Pad24)*%
X213950000Y-155530000D03*
%TO.P,J11,25,GND*%
%TO.N,GND*%
X216490000Y-152990000D03*
%TO.P,J11,26,~{CE1}_SPI0/GPIO07*%
%TO.N,unconnected-(J11-~{CE1}_SPI0{slash}GPIO07-Pad26)*%
X216490000Y-155530000D03*
%TO.P,J11,27,ID_SD_I2C0/GPIO00*%
%TO.N,unconnected-(J11-ID_SD_I2C0{slash}GPIO00-Pad27)*%
X219030000Y-152990000D03*
%TO.P,J11,28,ID_SC_I2C0/GPIO01*%
%TO.N,unconnected-(J11-ID_SC_I2C0{slash}GPIO01-Pad28)*%
X219030000Y-155530000D03*
%TO.P,J11,29,GPCLK1/GPIO05*%
%TO.N,/GPIO 5*%
X221570000Y-152990000D03*
%TO.P,J11,30,GND*%
%TO.N,GND*%
X221570000Y-155530000D03*
%TO.P,J11,31,GPCLK2/GPIO06*%
%TO.N,/GPIO 6*%
X224110000Y-152990000D03*
%TO.P,J11,32,GPIO12/PWM0*%
%TO.N,unconnected-(J11-GPIO12{slash}PWM0-Pad32)*%
X224110000Y-155530000D03*
%TO.P,J11,33,GPIO13/PWM1*%
%TO.N,/GPIO 13*%
X226650000Y-152990000D03*
%TO.P,J11,34,GND*%
%TO.N,GND*%
X226650000Y-155530000D03*
%TO.P,J11,35,GPIO19/SPI1_MISO/PCM_FS*%
%TO.N,unconnected-(J11-GPIO19{slash}SPI1_MISO{slash}PCM_FS-Pad35)*%
X229190000Y-152990000D03*
%TO.P,J11,36,GPIO16/SPI1_~{CE2}*%
%TO.N,unconnected-(J11-GPIO16{slash}SPI1_~{CE2}-Pad36)*%
X229190000Y-155530000D03*
%TO.P,J11,37,GPIO26/SDIO_DAT2*%
%TO.N,unconnected-(J11-GPIO26{slash}SDIO_DAT2-Pad37)*%
X231730000Y-152990000D03*
%TO.P,J11,38,GPIO20/SPI1_MOSI/PCM_DIN/PWM1*%
%TO.N,unconnected-(J11-GPIO20{slash}SPI1_MOSI{slash}PCM_DIN{slash}PWM1-Pad38)*%
X231730000Y-155530000D03*
%TO.P,J11,39,GND*%
%TO.N,GND*%
X234270000Y-152990000D03*
%TO.P,J11,40,GPIO21/SPI1_SCLK/PCM_DOUT*%
%TO.N,unconnected-(J11-GPIO21{slash}SPI1_SCLK{slash}PCM_DOUT-Pad40)*%
X234270000Y-155530000D03*
%TD*%
D10*
%TO.P,J3,1,Pin_1*%
%TO.N,/+24V_switched*%
X162683506Y-182500000D03*
D11*
%TO.P,J3,2,Pin_2*%
%TO.N,/+5V*%
X160143506Y-182500000D03*
%TO.P,J3,3,Pin_3*%
%TO.N,/GPIO 27*%
X157603506Y-182500000D03*
%TO.P,J3,4,Pin_4*%
%TO.N,GND*%
X155063506Y-182500000D03*
%TO.P,J3,5,Pin_5*%
%TO.N,/RelayOut3*%
X152523506Y-182500000D03*
%TD*%
D24*
%TO.N,GND*%
X184940000Y-154460000D03*
D25*
%TO.N,/+5V*%
X180540000Y-144160000D03*
X179324000Y-152146000D03*
X149440000Y-144060000D03*
X183140000Y-144160000D03*
X145540000Y-147960000D03*
X175640000Y-144160000D03*
D24*
X191850500Y-140288500D03*
D25*
X175640000Y-151760000D03*
X210140000Y-164170000D03*
X163040000Y-149960000D03*
D26*
X207340000Y-144060000D03*
D25*
X168740000Y-144260000D03*
D27*
%TO.N,/RelayOut1*%
X278540000Y-146060000D03*
X110806464Y-173660000D03*
%TO.N,/RelayOut2*%
X130290000Y-173660000D03*
X281452335Y-146072335D03*
%TO.N,/RelayOut3*%
X284237335Y-146057334D03*
X149630458Y-173660000D03*
%TO.N,/RelayOut4*%
X287022335Y-146042334D03*
X169042455Y-173660000D03*
%TO.N,/RelayOut5*%
X188454452Y-173660000D03*
X289807335Y-146027335D03*
%TO.N,/RelayOut6*%
X292542335Y-146062335D03*
X207866449Y-173660000D03*
%TO.N,/RelayOut7*%
X227278446Y-173660000D03*
X295268222Y-146097335D03*
%TO.N,/RelayOut8*%
X246499967Y-173660000D03*
X298056259Y-146082335D03*
%TO.N,/RelayOut9*%
X300844296Y-146067335D03*
X265911964Y-173660000D03*
%TO.N,/RelayOut10*%
X303632334Y-146052334D03*
X285323961Y-173660000D03*
D28*
%TO.N,/guarded_RelayOut8*%
X283064707Y-116235293D03*
%TO.N,/guarded_RelayOut9*%
X281929707Y-117870293D03*
%TO.N,/guarded_RelayOut4*%
X287604707Y-109695293D03*
%TO.N,/guarded_RelayOut1*%
X291009707Y-104790293D03*
%TO.N,/guarded_RelayOut10*%
X280794707Y-119505293D03*
%TO.N,/guarded_RelayOut3*%
X288739707Y-108060293D03*
%TO.N,/guarded_RelayOut2*%
X289874707Y-106425293D03*
%TO.N,/guarded_RelayOut7*%
X284199707Y-114600293D03*
%TO.N,/guarded_RelayOut6*%
X285334707Y-112965293D03*
%TO.N,/guarded_RelayOut5*%
X286469707Y-111330293D03*
%TD*%
D29*
%TO.N,/+5V*%
X178340000Y-118460000D02*
X178340000Y-116260000D01*
D30*
X295923224Y-182550000D02*
X294413224Y-184060000D01*
D31*
X178340000Y-86370000D02*
X178790000Y-85920000D01*
D32*
X180540000Y-127760000D02*
X183140000Y-130360000D01*
X175640000Y-124160000D02*
X178340000Y-121460000D01*
D30*
X217300000Y-183700000D02*
X216840000Y-184160000D01*
D33*
X178340000Y-121460000D02*
X178340000Y-120160000D01*
D30*
X217315712Y-183700000D02*
X218465712Y-182550000D01*
X140817724Y-172182276D02*
X163040000Y-149960000D01*
D34*
X191850500Y-131144500D02*
X191850500Y-128570500D01*
D30*
X165940000Y-180560000D02*
X169840000Y-184460000D01*
D34*
X145540000Y-147960000D02*
X145440000Y-148060000D01*
X132780000Y-111160000D02*
X159840000Y-111160000D01*
X172340000Y-111160000D02*
X178140000Y-105360000D01*
D30*
X140817724Y-182550000D02*
X140817724Y-172182276D01*
D32*
X177190000Y-116310000D02*
X177990000Y-115510000D01*
D35*
X178340000Y-115060000D02*
X191533000Y-128253000D01*
D30*
X191850500Y-128570500D02*
X191533000Y-128253000D01*
X210140000Y-164360000D02*
X210140000Y-164170000D01*
D35*
X191533000Y-128253000D02*
X207340000Y-144060000D01*
D34*
X159640000Y-111160000D02*
X159840000Y-111160000D01*
D32*
X168740000Y-128060000D02*
X178340000Y-118460000D01*
X149440000Y-144060000D02*
X177190000Y-116310000D01*
X183140000Y-130360000D02*
X183140000Y-144160000D01*
D34*
X175540000Y-153260000D02*
X175640000Y-153160000D01*
D30*
X217315712Y-183700000D02*
X217300000Y-183700000D01*
D34*
X128693000Y-115247000D02*
X132780000Y-111160000D01*
D30*
X175640000Y-153160000D02*
X175640000Y-151660000D01*
X278021227Y-184060000D02*
X277661227Y-183700000D01*
X179324000Y-152146000D02*
X165940000Y-165530000D01*
D34*
X169800000Y-111160000D02*
X171340000Y-111160000D01*
D35*
X178340000Y-116260000D02*
X178340000Y-115860000D01*
D30*
X277661227Y-183700000D02*
X276511227Y-182550000D01*
D36*
X178340000Y-120160000D02*
X178340000Y-118460000D01*
D33*
X178340000Y-120160000D02*
X180540000Y-122360000D01*
D30*
X169840000Y-184460000D02*
X177731718Y-184460000D01*
D34*
X191850500Y-131144500D02*
X191850500Y-140288500D01*
D30*
X258609230Y-184060000D02*
X278140000Y-184060000D01*
D31*
X178340000Y-116260000D02*
X178340000Y-86370000D01*
D30*
X199053715Y-182550000D02*
X200663715Y-184160000D01*
X236267709Y-184160000D02*
X237877709Y-182550000D01*
D32*
X175640000Y-144160000D02*
X175640000Y-124160000D01*
D34*
X159840000Y-111160000D02*
X171340000Y-111160000D01*
D33*
X180540000Y-122360000D02*
X180540000Y-127760000D01*
D34*
X155540000Y-115260000D02*
X159640000Y-111160000D01*
D30*
X258249230Y-183700000D02*
X258609230Y-184060000D01*
X199053715Y-175446285D02*
X210140000Y-164360000D01*
X278140000Y-184060000D02*
X278021227Y-184060000D01*
X121405727Y-182550000D02*
X121405727Y-172094273D01*
D34*
X171340000Y-111160000D02*
X172340000Y-111160000D01*
D30*
X165940000Y-165530000D02*
X165940000Y-180560000D01*
D34*
X165700000Y-115260000D02*
X169800000Y-111160000D01*
X178140000Y-115360000D02*
X177990000Y-115510000D01*
X175640000Y-151660000D02*
X175640000Y-151760000D01*
X258249230Y-183700000D02*
X257099230Y-182550000D01*
D30*
X216840000Y-184160000D02*
X236267709Y-184160000D01*
X200663715Y-184160000D02*
X216840000Y-184160000D01*
X177731718Y-184460000D02*
X179641718Y-182550000D01*
X294413224Y-184060000D02*
X278140000Y-184060000D01*
D34*
X199053715Y-182550000D02*
X199053715Y-175446285D01*
D32*
X180540000Y-144160000D02*
X180540000Y-127760000D01*
X177190000Y-116310000D02*
X178140000Y-115360000D01*
X168740000Y-144260000D02*
X168740000Y-128060000D01*
D30*
X121405727Y-172094273D02*
X145540000Y-147960000D01*
X160229721Y-182550000D02*
X160229721Y-168570279D01*
X160229721Y-168570279D02*
X175540000Y-153260000D01*
D31*
%TO.N,/RelayOut1*%
X138240000Y-146060000D02*
X278540000Y-146060000D01*
X138240000Y-146060000D02*
X110806464Y-173493536D01*
X110806464Y-173493536D02*
X110806464Y-173660000D01*
%TO.N,/RelayOut2*%
X279464669Y-148060000D02*
X281452334Y-146072335D01*
X155840000Y-148060000D02*
X130290000Y-173610000D01*
X130290000Y-173610000D02*
X130290000Y-173660000D01*
X155840000Y-148060000D02*
X279464669Y-148060000D01*
%TO.N,/RelayOut3*%
X280340000Y-149954669D02*
X173335789Y-149954669D01*
X173335789Y-149954669D02*
X149630458Y-173660000D01*
X284237334Y-146057335D02*
X280340000Y-149954669D01*
%TO.N,/RelayOut4*%
X183640000Y-160560000D02*
X272504669Y-160560000D01*
X169042455Y-173660000D02*
X182142455Y-160560000D01*
X272504669Y-160560000D02*
X287022335Y-146042334D01*
X182142455Y-160560000D02*
X183640000Y-160560000D01*
%TO.N,/RelayOut5*%
X188454894Y-173660000D02*
X199687559Y-162427335D01*
X199687559Y-162427335D02*
X202640000Y-162427335D01*
X188454452Y-173660000D02*
X188454894Y-173660000D01*
X273407335Y-162427335D02*
X289807335Y-146027335D01*
X202640000Y-162427335D02*
X273407335Y-162427335D01*
%TO.N,/RelayOut6*%
X274192335Y-164412335D02*
X292542335Y-146062335D01*
X217087665Y-164412335D02*
X274192335Y-164412335D01*
X207866449Y-173660000D02*
X207866449Y-173633551D01*
X207866449Y-173633551D02*
X217087665Y-164412335D01*
%TO.N,/RelayOut7*%
X279314669Y-162085331D02*
X279314669Y-162060000D01*
X227278446Y-173660000D02*
X227279011Y-173660000D01*
X234579011Y-166360000D02*
X236240000Y-166360000D01*
X275040000Y-166360000D02*
X279314669Y-162085331D01*
X227279011Y-173660000D02*
X234579011Y-166360000D01*
X279314669Y-162060000D02*
X295277335Y-146097335D01*
X236240000Y-166360000D02*
X275040000Y-166360000D01*
%TO.N,/RelayOut8*%
X251886259Y-168272484D02*
X252940000Y-168272484D01*
X246499967Y-173660000D02*
X246499967Y-173658776D01*
X246499967Y-173658776D02*
X251886259Y-168272484D01*
X275872185Y-168272484D02*
X252940000Y-168272484D01*
X298062335Y-146082335D02*
X275872185Y-168272484D01*
%TO.N,/RelayOut9*%
X276736187Y-170178482D02*
X300847335Y-146067335D01*
X269393482Y-170178482D02*
X270540000Y-170178482D01*
X265911964Y-173660000D02*
X269393482Y-170178482D01*
X270540000Y-170178482D02*
X276736187Y-170178482D01*
%TO.N,/RelayOut10*%
X285323961Y-173660000D02*
X285323961Y-164360708D01*
X285323961Y-164360708D02*
X303632334Y-146052335D01*
%TO.N,/guarded_RelayOut8*%
X274930000Y-108100586D02*
X283114707Y-116285293D01*
X274930000Y-94380000D02*
X274930000Y-108100586D01*
X283114707Y-116285293D02*
X303114707Y-136285293D01*
D37*
X305547020Y-137648144D02*
X304486434Y-137648144D01*
D31*
X307956689Y-137648144D02*
X305547020Y-137648144D01*
X303114707Y-136285293D02*
X304519414Y-137690000D01*
%TO.N,/guarded_RelayOut9*%
X303979707Y-139920293D02*
X304519414Y-140460000D01*
X272640000Y-108580586D02*
X279179707Y-115120293D01*
D37*
X305540000Y-140420000D02*
X304479414Y-140420000D01*
D34*
X304479414Y-140420000D02*
X303979707Y-139920293D01*
D31*
X272640000Y-94380000D02*
X272640000Y-108580586D01*
X282029707Y-117970293D02*
X303979707Y-139920293D01*
X279179707Y-115120293D02*
X282029707Y-117970293D01*
X307949669Y-140420000D02*
X305540000Y-140420000D01*
%TO.N,/guarded_RelayOut4*%
X287754707Y-109845293D02*
X303904707Y-125995293D01*
X284090000Y-94380000D02*
X284090000Y-106180586D01*
X284090000Y-106180586D02*
X287754707Y-109845293D01*
X303904707Y-125995293D02*
X304519414Y-126610000D01*
D37*
X305549625Y-126569640D02*
X304489039Y-126569640D01*
D31*
X307959294Y-126569640D02*
X305549625Y-126569640D01*
D36*
X304479414Y-126570000D02*
X303904707Y-125995293D01*
D31*
%TO.N,/guarded_RelayOut1*%
X290960000Y-104740586D02*
X291009707Y-104790293D01*
D37*
X305535165Y-118260000D02*
X304474579Y-118260000D01*
D31*
X290960000Y-99380000D02*
X290960000Y-104740586D01*
X290960000Y-94380000D02*
X290960000Y-99380000D01*
X307944834Y-118260000D02*
X305535165Y-118260000D01*
X291009707Y-104790293D02*
X304479414Y-118260000D01*
%TO.N,/guarded_RelayOut10*%
X280794707Y-119505293D02*
X304519414Y-143230000D01*
D37*
X305503645Y-143192148D02*
X304443059Y-143192148D01*
D31*
X270440000Y-93455000D02*
X270440000Y-109150586D01*
X307913314Y-143192148D02*
X305503645Y-143192148D01*
X270440000Y-109150586D02*
X278244707Y-116955293D01*
X271495000Y-92400000D02*
X270440000Y-93455000D01*
X278244707Y-116955293D02*
X280794707Y-119505293D01*
%TO.N,/guarded_RelayOut3*%
X286380000Y-94380000D02*
X286380000Y-103760000D01*
X286380000Y-105700586D02*
X288889707Y-108210293D01*
X288889707Y-108210293D02*
X304519414Y-123840000D01*
X307968285Y-123799497D02*
X305558616Y-123799497D01*
X286380000Y-103760000D02*
X286380000Y-105700586D01*
D37*
X305558616Y-123799497D02*
X304498030Y-123799497D01*
D31*
%TO.N,/guarded_RelayOut2*%
X289974707Y-106525293D02*
X303774707Y-120325293D01*
D37*
X305574106Y-121029386D02*
X304513520Y-121029386D01*
D31*
X303774707Y-120325293D02*
X304519414Y-121070000D01*
X288670000Y-101860000D02*
X288670000Y-105220586D01*
X288670000Y-94380000D02*
X288670000Y-98690000D01*
X288670000Y-98690000D02*
X288670000Y-101860000D01*
X307983775Y-121029386D02*
X305574106Y-121029386D01*
D34*
X304479414Y-121030000D02*
X303774707Y-120325293D01*
D31*
X288670000Y-105220586D02*
X289974707Y-106525293D01*
%TO.N,/guarded_RelayOut7*%
X277220000Y-94380000D02*
X277220000Y-107620586D01*
X303999707Y-134400293D02*
X304519414Y-134920000D01*
X277220000Y-107620586D02*
X284299707Y-114700293D01*
X307933980Y-134882559D02*
X305524311Y-134882559D01*
D37*
X305524311Y-134882559D02*
X304463725Y-134882559D01*
D31*
X284299707Y-114700293D02*
X303999707Y-134400293D01*
%TO.N,/+24V_guarded*%
X309440000Y-110919669D02*
X309440000Y-100350000D01*
X284340000Y-89860000D02*
X285440000Y-88760000D01*
X280860000Y-88760000D02*
X279760000Y-89860000D01*
X309440000Y-100350000D02*
X297850000Y-88760000D01*
X308199669Y-112160000D02*
X309440000Y-110919669D01*
X288920000Y-89860000D02*
X290020000Y-88760000D01*
X297850000Y-88760000D02*
X280860000Y-88760000D01*
%TO.N,/guarded_RelayOut6*%
X279510000Y-94380000D02*
X279510000Y-107140586D01*
D37*
X305549401Y-132110133D02*
X304488815Y-132110133D01*
D31*
X304034707Y-131665293D02*
X304519414Y-132150000D01*
X279510000Y-107140586D02*
X281784707Y-109415293D01*
D36*
X304479414Y-132110000D02*
X304034707Y-131665293D01*
D31*
X285484707Y-113115293D02*
X304034707Y-131665293D01*
X307959070Y-132110133D02*
X305549401Y-132110133D01*
X281784707Y-109415293D02*
X285484707Y-113115293D01*
%TO.N,/guarded_RelayOut5*%
X304069707Y-128930293D02*
X304519414Y-129380000D01*
X282669707Y-107530293D02*
X286619707Y-111480293D01*
X281800000Y-106660586D02*
X282669707Y-107530293D01*
X281800000Y-94380000D02*
X281800000Y-106660586D01*
X286619707Y-111480293D02*
X304069707Y-128930293D01*
D37*
X305584638Y-129344030D02*
X304524052Y-129344030D01*
D31*
X307994307Y-129344030D02*
X305584638Y-129344030D01*
%TD*%
M02*
